<svg width="553" height="492" viewBox="0 0 553 492" fill="none" xmlns="http://www.w3.org/2000/svg">
<path fill-rule="evenodd" clip-rule="evenodd" d="M275.94 27.7825C278.51 31.6754 281.155 36.9288 283.688 41.4642L307.309 83.7943C317.892 102.994 327.945 120.871 338.717 140.033C349.413 159.081 359.844 177.677 370.124 196.272C380.782 215.547 391.1 233.386 401.494 252.548C416.158 279.533 433.544 309.467 448.624 336.906C453.84 346.43 458.904 355.69 464.309 365.063C475.231 383.96 484.869 402.026 495.678 421.302L527.01 478.031C459.169 478.447 387.51 478.069 319.593 478.069H24.869C25.1714 476.331 38.5507 453.011 40.4027 449.685L71.8101 393.409C76.988 383.998 82.4682 374.171 87.495 365.29C98.2665 346.203 108.887 327.041 118.902 309.051C129.372 290.229 139.69 271.899 150.31 252.775C182.02 195.667 213.314 140.6 244.494 83.9833C249.748 74.4212 255.19 64.519 260.179 55.864C263.392 50.3082 273.559 31.184 275.94 27.7825ZM275.788 12.0977C273.521 16.8598 270.157 22.1133 267.474 27.0266C249.181 60.7395 228.356 96.191 209.799 130.32C199.556 149.179 188.105 169.173 176.842 189.431L78.0085 366.461C75.514 370.883 12.6991 482.907 12.4346 484.608H539.445C534.191 474.781 528.862 464.652 523.231 454.901C517.75 445.452 512.232 435.021 506.714 425.346L473.72 366.272C468.05 355.917 462.948 347.073 457.241 336.717L284.103 26.6109C282.629 23.9652 277.262 13.6095 275.751 12.0977H275.788Z" fill="#FEFEFE"/>
<path fill-rule="evenodd" clip-rule="evenodd" d="M322.049 242.986C322.276 245.329 323.259 247.635 323.788 249.978C327.454 266.078 328.248 283.351 318.874 297.146C309.917 310.298 291.889 320.238 275.108 318.953C256.135 317.517 240.148 307.728 233.345 295.143C228.961 287.055 227.298 278.853 227.94 267.741C228.734 254.173 231.984 250.129 233.836 241.172L222.876 256.365C211.991 273.033 205.452 296.806 212.104 317.139C219.701 340.383 243.814 358.336 272.992 359.621C303.794 360.981 329.117 344.314 338.452 321.826C347.032 301.152 341.778 278.437 332.027 259.049C331.007 257.008 324.77 245.669 323.07 243.704C322.389 242.948 322.994 243.439 322.163 242.91L322.049 242.986Z" fill="#FEFEFE"/>
<path fill-rule="evenodd" clip-rule="evenodd" d="M37.9082 470.699C38.3239 469.263 51.5521 445.83 52.6481 443.903L156.773 257.386C156.773 257.386 274.768 46.4909 275.675 44.072L290.982 70.7173C300.468 87.4982 311.845 107.454 320.802 124.159C323.334 128.883 325.942 133.381 328.361 137.614C331.082 142.376 333.312 146.458 335.731 150.842C345.709 168.984 355.951 186.52 365.551 204.246C370.313 213.09 375.529 222.388 380.442 230.967C390.307 248.164 400.473 266.721 410.149 284.144L499.458 444.167C501.423 447.644 513.517 468.696 514.047 470.624L248.236 470.737C178.391 470.813 107.564 471.153 37.946 470.699H37.9082ZM33.1838 473.609L43.7664 473.647L518.733 473.572C518.355 471.833 512.762 462.422 511.476 460.117C503.842 446.548 496.359 432.451 488.648 419.223C483.433 410.303 478.406 400.892 473.493 392.011L397.488 255.874C387.245 237.392 377.456 219.818 367.138 201.525C362.074 192.53 357.123 183.232 351.983 174.351C346.805 165.393 341.778 156.322 336.789 147.176C320.235 116.865 301.073 82.9251 283.65 51.9334L275.826 38.4028C272.009 45.8106 265.168 57.6026 260.67 65.6151C245.439 92.6761 229.906 120.228 215.128 147.176C185.497 201.109 154.127 256.592 124.118 310.298C113.989 328.402 103.255 347.262 93.7688 364.685C84.1312 382.335 73.473 401.497 63.4196 419.072C58.5063 427.689 53.2151 437.364 48.2262 446.246C46.3742 449.534 33.4484 472.287 33.1838 473.723V473.609Z" fill="#FEFEFE"/>
<path fill-rule="evenodd" clip-rule="evenodd" d="M262.447 229.418C261.351 232.555 254.775 250.961 254.51 252.246C259.272 249.222 272.576 240.794 275.751 238.337L297.294 252.435C296.273 249.373 289.546 230.703 289.47 229.455L308.972 216.605C310.257 215.471 309.35 216.567 309.917 215.32H284.33L275.94 192.417C274.352 196.687 268.607 213.355 267.663 215.093L241.168 215.434L262.409 229.38L262.447 229.418Z" fill="#FEFEFE"/>
<path fill-rule="evenodd" clip-rule="evenodd" d="M276.053 184.744L282.856 114.333C283.385 109.646 284.368 104.392 283.121 100.235L276.015 76.4244C273.332 83.7566 271.177 91.8446 268.834 99.8193C267.322 104.997 269.855 121.891 270.459 128.392C272.236 147.063 273.596 166.187 276.015 184.706L276.053 184.744Z" fill="#FEFEFE"/>
<path fill-rule="evenodd" clip-rule="evenodd" d="M347.258 325.719C348.43 326.966 354.742 331.161 356.254 331.728L352.928 342.046L362.301 336.112L371.825 342.159L368.499 332.219L377.834 325.87L366.005 325.681L362.943 316.837C362.452 315.892 362.754 316.383 362.225 315.892L358.257 325.681H347.221L347.258 325.719Z" fill="#FEFEFE"/>
<path fill-rule="evenodd" clip-rule="evenodd" d="M306.402 367.709C308.103 369.409 313.47 372.962 315.322 373.794L312.222 383.885L321.482 378.216L330.931 384.187L327.605 374.247L336.789 367.746L325.299 367.444L321.444 357.806L317.854 367.595L306.364 367.709H306.402Z" fill="#FEFEFE"/>
<path fill-rule="evenodd" clip-rule="evenodd" d="M332.632 227.792C335.277 230.438 339.397 231.761 341.703 234.255L338.339 244.082L348.014 238.262L357.236 243.969L353.948 234.293C355.384 233.273 362.527 228.737 363.019 227.792L351.68 227.755L347.939 217.739L344.121 227.755L332.632 227.792Z" fill="#FEFEFE"/>
<path fill-rule="evenodd" clip-rule="evenodd" d="M169.396 274.809C170.114 275.83 176.917 280.214 178.505 281.083L175.103 290.985L184.439 285.203L194.001 291.212L190.561 281.045L199.934 274.998C195.475 274.658 192.867 274.885 188.52 274.771L185.61 267.364C185.005 265.549 185.005 265.663 184.363 265.096L180.848 274.696L169.358 274.809H169.396Z" fill="#FEFEFE"/>
<path fill-rule="evenodd" clip-rule="evenodd" d="M355.951 274.62C356.216 274.733 364.493 280.176 365.286 281.007L361.885 290.796L371.22 285.014L380.782 290.872L377.494 281.083C379.648 279.42 386.111 275.3 386.565 274.544L375.113 274.507L371.523 264.567L367.705 274.507L355.989 274.62H355.951Z" fill="#FEFEFE"/>
<path fill-rule="evenodd" clip-rule="evenodd" d="M186.215 332.673L182.889 342.613L192.186 336.906L201.559 342.386L198.347 332.673L207.833 326.55L196.23 326.399L192.413 316.308L188.671 326.361L176.879 326.512L186.215 332.673Z" fill="#FEFEFE"/>
<path fill-rule="evenodd" clip-rule="evenodd" d="M192.829 227.906C193.018 228.095 192.867 228.246 193.774 229.002L201.56 234.029L198.385 244.158L207.607 238.262L217.169 244.195L213.767 234.331L218.303 231.27C220.986 229.531 221.742 229.607 222.233 227.906L211.5 227.868L207.834 217.815L204.016 227.906H192.829Z" fill="#FEFEFE"/>
<path fill-rule="evenodd" clip-rule="evenodd" d="M218.378 367.633C219.058 368.427 225.71 372.962 227.373 373.68L224.198 383.809L233.382 378.027L242.831 383.62L239.543 373.794L248.614 367.595L237.238 367.557L233.458 357.769L229.83 367.595L218.378 367.671V367.633Z" fill="#FEFEFE"/>
<path fill-rule="evenodd" clip-rule="evenodd" d="M292.418 206.174C294.232 205.456 324.657 186.672 327.227 185.084C330.553 183.006 329.873 183.724 331.574 180.284L334.748 173.821C332.216 174.048 329.608 174.88 327.152 175.484C323.145 176.429 323.599 176.769 321.293 178.848C319.328 180.587 293.401 204.851 292.38 206.174H292.418Z" fill="#FEFEFE"/>
<path fill-rule="evenodd" clip-rule="evenodd" d="M262.636 205.569C261.615 203.906 245.893 190.678 243.02 188.183C239.43 185.084 236.558 182.476 233.194 179.566C230.888 177.563 231.04 177.072 227.109 176.392L219.059 174.993C219.399 176.127 224.35 184.026 226.882 185.462L250.353 198.842C252.998 200.353 260.217 204.889 262.56 205.569H262.636Z" fill="#FEFEFE"/>
<path fill-rule="evenodd" clip-rule="evenodd" d="M263.467 185.16C262.711 183.081 246.157 151.863 244.154 147.97C242.415 144.606 242.869 145.022 239.467 143.132L232.967 139.806C233.269 142.452 234.063 144.984 234.668 147.592C235.461 151.031 236.406 151.334 238.182 153.677C240.715 156.927 262.56 184.555 263.467 185.198V185.16Z" fill="#FEFEFE"/>
<path fill-rule="evenodd" clip-rule="evenodd" d="M292.002 184.593C293.665 183.27 298.465 176.694 300.242 174.388C302.774 171.062 319.857 150.086 320.273 148.008L321.52 139.655C319.668 140.222 317.023 141.809 315.322 142.716C311.807 144.568 312.714 144.153 310.938 147.516C308.179 152.808 292.947 181.758 292.002 184.593Z" fill="#FEFEFE"/>
<path fill-rule="evenodd" clip-rule="evenodd" d="M276.28 304.402C277.3 300.623 279.265 296.05 280.135 292.346C280.588 290.343 276.847 253.531 275.977 250.469L272.878 278.815C271.253 295.029 270.686 288.718 274.919 301.757C275.335 303.004 275.259 303.004 275.864 303.911L276.28 304.402Z" fill="#FEFEFE"/>
<path fill-rule="evenodd" clip-rule="evenodd" d="M287.769 251.376C286.9 250.242 284.481 247.446 284.065 246.614C284.708 248.693 301.186 281.083 302.169 282.292C302.925 283.237 310.824 290.116 311.958 290.683L307.498 276.963L291.776 256.592C290.113 254.438 289.168 253.266 287.769 251.414V251.376Z" fill="#FEFEFE"/>
<path fill-rule="evenodd" clip-rule="evenodd" d="M252.545 282.859C253.641 281.726 263.354 263.244 265.093 260.069C266.567 257.423 270.308 251.15 271.064 248.617L262.938 258.293C259.99 261.997 248.841 275.414 247.178 277.87C246.46 278.929 243.209 289.284 243.021 290.947L252.545 282.897V282.859Z" fill="#FEFEFE"/>
<path d="M134.02 440.993C125.894 440.766 117.769 440.577 109.643 440.388C108.471 444.394 107.299 448.438 106.166 452.482C98.8334 452.482 91.5012 452.444 84.2446 452.444C88.591 439.859 92.9752 427.386 97.3216 415.065C101.63 402.895 106.052 390.915 110.436 379.085C118.26 380.067 126.083 381.163 133.945 382.297C138.291 394.581 142.6 406.637 146.984 418.467C151.293 430.108 155.677 441.484 160.061 452.633C152.54 452.633 145.019 452.596 137.497 452.596C136.364 448.741 135.192 444.885 134.058 441.03L134.02 440.993ZM129.447 425.535C128.2 421.226 126.915 416.842 125.668 412.495C124.383 408.111 123.135 403.689 121.888 399.267C120.565 403.462 119.318 407.658 118.071 411.891C116.786 416.161 115.539 420.432 114.291 424.741C119.356 424.968 124.42 425.27 129.523 425.535H129.447ZM166.977 387.626C173.667 388.722 180.319 389.818 187.046 390.915C191.393 397.226 195.739 403.425 200.086 409.472C204.394 415.406 208.778 421.188 213.163 426.857C213.163 421.528 213.163 416.199 213.163 410.87C213.163 405.541 213.163 400.212 213.163 394.845C219.928 395.714 226.693 396.584 233.496 397.302C233.496 406.562 233.496 415.821 233.496 425.081C233.496 434.341 233.496 443.6 233.496 452.86C226.693 452.86 219.928 452.822 213.163 452.822C208.816 447.455 204.432 442.013 200.161 436.382C195.853 430.675 191.506 424.816 187.198 418.845C187.198 424.514 187.198 430.183 187.198 435.815C187.198 441.446 187.198 447.115 187.198 452.785C180.432 452.747 173.705 452.747 166.977 452.747C166.977 441.9 166.977 431.09 166.977 420.243C166.977 409.396 166.977 398.587 166.977 387.74V387.626ZM244.079 434.794C250.882 434.643 257.647 434.454 264.488 434.227C264.941 436.76 265.848 438.725 267.209 440.048C269.439 442.202 272.576 443.298 276.696 443.298C279.757 443.298 282.138 442.731 283.801 441.635C285.464 440.539 286.295 439.254 286.295 437.78C286.295 436.382 285.54 435.172 283.952 434.076C282.365 432.98 278.699 431.997 272.954 431.015C263.505 429.314 256.853 427.009 252.809 424.174C248.727 421.302 246.724 417.711 246.724 413.44C246.724 410.643 247.745 408.073 249.823 405.768C251.94 403.425 255.039 401.61 259.197 400.439C263.392 399.229 269.099 398.814 276.318 398.776C285.199 398.738 292.002 399.645 296.689 401.988C301.338 404.294 304.097 408.225 305.004 413.78C298.239 414.461 291.511 414.99 284.746 415.481C284.254 413.062 283.083 411.324 281.382 410.265C279.644 409.169 277.262 408.716 274.239 408.678C271.744 408.678 269.817 409.018 268.57 409.812C267.322 410.606 266.68 411.588 266.68 412.76C266.68 413.591 267.209 414.385 268.23 415.065C269.212 415.783 271.593 416.464 275.411 417.106C284.821 418.58 291.549 419.979 295.593 421.453C299.675 422.927 302.661 424.816 304.475 427.122C306.327 429.465 307.234 432.111 307.234 435.097C307.234 438.574 306.024 441.824 303.568 444.81C301.073 447.758 297.672 449.988 293.212 451.5C288.752 453.011 283.196 453.729 276.469 453.729C264.639 453.729 256.438 451.991 251.902 448.438C247.367 444.885 244.797 440.274 244.192 434.756L244.079 434.794ZM315.246 425.232C315.246 420.735 316.002 416.653 317.589 413.024C319.177 409.396 321.558 406.146 324.733 403.311C331.082 397.453 339.888 393.749 351.189 392.011C362.792 390.234 371.712 391.557 377.985 396.244C381.085 398.662 383.466 401.837 385.015 405.692C386.565 409.585 387.396 414.196 387.396 419.45C387.396 423.267 387.018 426.782 386.376 429.957C385.733 433.131 384.675 435.966 383.315 438.423C380.593 443.374 376.587 447.153 371.409 449.837C366.231 452.482 359.806 453.767 352.058 453.767C344.235 453.767 337.696 452.747 332.594 450.706C327.454 448.703 323.259 445.566 320.084 441.295C318.459 439.178 317.249 436.76 316.493 434.114C315.738 431.468 315.322 428.52 315.322 425.27L315.246 425.232ZM336.714 424.023C336.714 429.843 338.036 433.963 340.644 436.419C343.29 438.876 346.843 440.086 351.34 439.934C355.989 439.783 359.542 438.309 362.074 435.588C364.644 432.791 365.891 427.916 365.891 420.999C365.891 415.179 364.531 411.059 361.885 408.678C359.239 406.335 355.649 405.466 351.113 405.995C346.767 406.524 343.29 408.187 340.644 411.021C337.999 413.856 336.676 418.165 336.676 424.061L336.714 424.023ZM399.226 452.633C399.226 441.408 399.226 430.183 399.226 418.958C399.226 407.733 399.226 396.508 399.226 385.283C411.169 383.393 423.075 381.541 435.056 379.954C441.707 379.047 446.772 379.123 450.325 379.992C453.802 380.861 456.636 382.864 458.791 386.039C460.983 389.214 462.003 393.258 462.003 398.058C462.003 402.253 461.21 405.919 459.547 409.018C457.884 412.155 455.616 414.687 452.706 416.728C450.892 418.013 448.359 419.109 445.185 420.054C447.717 420.848 449.607 421.679 450.74 422.511C451.534 423.078 452.706 424.363 454.18 426.29C455.692 428.218 456.674 429.768 457.166 430.864C458.904 434.454 460.643 438.045 462.381 441.635C464.12 445.263 465.858 448.892 467.635 452.52C459.509 452.52 451.421 452.558 443.333 452.558C441.405 448.854 439.515 445.15 437.588 441.484C435.66 437.818 433.771 434.19 431.843 430.561C430.369 427.764 429.084 425.988 427.988 425.194C426.401 424.174 424.662 423.758 422.697 423.834C422.054 423.872 421.449 423.909 420.807 423.947C420.807 428.709 420.807 433.509 420.807 438.271C420.807 443.034 420.807 447.796 420.807 452.596C413.588 452.596 406.369 452.633 399.226 452.633ZM420.807 410.643C423.831 410.379 426.854 410.114 429.878 409.85C430.823 409.774 432.75 409.283 435.547 408.414C437.021 407.998 438.155 407.166 439.024 405.843C439.931 404.521 440.422 403.084 440.422 401.459C440.422 399.078 439.704 397.34 438.268 396.206C436.832 395.072 434.148 394.694 430.218 395.148C427.081 395.488 423.944 395.866 420.769 396.244C420.769 401.044 420.769 405.843 420.769 410.643H420.807Z" fill="#FEFEFE"/>
</svg>
