<svg width="150" height="150" viewBox="0 0 150 150" fill="none" xmlns="http://www.w3.org/2000/svg">
<path d="M7 10H142V140H7V10Z" stroke="white" stroke-width="2.5"/>
<path d="M70.8756 21.1983C71.8788 20.8254 72.9575 21.1237 73.9984 21.1664C75.127 21.0172 76.3312 20.8467 77.4222 21.2516C78.0241 21.5393 78.5886 21.0491 79.2031 21.0491C79.9179 21.177 80.6078 21.3688 81.2972 21.5713C81.9745 21.8164 82.7271 21.3688 83.417 21.6032C84.295 21.8696 85.0223 22.5623 86.0254 22.3385C87.4928 22.2106 88.5215 23.3508 89.951 23.3721C90.9792 23.4467 91.7945 24.0434 92.5972 24.5442C93.8138 24.5868 94.8172 25.1303 95.7075 25.791C96.7611 26.1212 97.9274 26.3876 98.6297 27.2081C98.9182 27.6237 99.4572 27.7622 99.9716 27.8901C100.938 28.1032 101.477 28.8811 102.129 29.4566C102.655 29.8081 103.307 29.9893 103.846 30.3196C104.499 30.7991 104.75 31.6409 105.577 31.9606C106.606 32.3975 107.321 33.2287 107.584 34.1664C109.428 34.4754 109.49 36.3294 110.757 37.2138C111.585 37.8107 111.811 38.7483 112.325 39.5155C112.927 40.0909 113.517 40.6982 113.704 41.4761C113.88 42.4033 114.934 42.9573 115.16 43.8736C115.335 44.3532 115.398 44.8541 115.56 45.3442C116.351 46.1541 116.815 47.2514 116.502 48.2853C117.555 49.0632 117.63 50.2885 117.492 51.386C118.27 52.2597 118.27 53.3361 118.006 54.359C118.358 55.1687 118.683 56.0106 118.42 56.8843C118.069 57.9926 118.859 59.1219 118.358 60.2195C117.68 61.3171 118.734 62.6385 117.83 63.6828C117.291 64.2793 118.082 65.0147 117.705 65.6433C117.555 66.3679 116.74 66.9327 116.915 67.7C117.091 68.4672 116.564 69.1384 116.1 69.7565C115.485 70.417 115.987 71.3654 115.435 72.0474C115.122 72.4737 114.658 72.7935 114.307 73.1983C114.143 73.827 114.281 74.5301 113.78 75.063C113.278 75.6065 112.551 76.054 112.426 76.7786C112.287 77.9401 110.67 78.3664 110.381 79.4851C109.967 80.6893 108.274 81.0941 107.848 82.2771C107.521 83.0869 106.556 83.4384 105.816 83.9179C105.327 84.7598 104.536 85.463 103.571 85.9426C102.731 86.337 102.292 87.1148 101.527 87.5837C101.037 87.8072 100.486 87.9031 99.9839 88.0736C99.6205 88.3827 99.2817 88.7238 98.9305 89.0435C99.4952 89.8532 99.6831 90.8335 100.486 91.5155C101.176 92.1123 101.602 92.9754 101.501 93.8172C101.301 94.8722 102.655 95.7992 102.054 96.8646C101.628 97.7383 101.602 98.6971 101.602 99.6348C101.665 100.487 100.587 100.946 100.41 101.735C100.26 102.171 100.059 102.587 99.8463 103.003C100.197 103.472 100.662 103.877 101.201 104.196C102.003 104.824 102.593 105.698 102.617 106.636C102.857 106.551 103.095 106.476 103.333 106.401C104.173 107.137 105.127 107.808 105.577 108.789C107.458 109.993 109.591 110.909 111.334 112.262C109.353 112.603 107.296 112.518 105.339 112.923C104.775 114.681 104.311 116.46 103.646 118.187C102.48 116.258 101.715 114.18 100.611 112.241C99.871 111.421 98.9429 110.728 97.9022 110.195C98.0654 110.142 98.4162 110.035 98.5794 109.982C98.1912 109.407 97.9274 108.714 97.2249 108.341C96.4474 107.968 96.1717 107.222 95.7327 106.615C94.3028 106.423 93.5755 107.638 92.2588 107.83C91.5437 108.095 90.8164 107.691 90.1142 107.541C89.2737 108.117 88.17 108.459 87.079 108.32C85.687 108.117 84.2196 108.916 82.8901 108.266C81.9244 107.744 80.7331 108.075 79.667 107.894C79.1151 107.68 78.6762 107.307 78.1745 107.009C77.5098 106.87 76.7824 106.966 76.168 106.668C75.3403 106.306 74.9514 105.549 74.5124 104.899C74.4248 104.888 74.2616 104.867 74.1866 104.857C73.7349 105.581 73.2959 106.455 72.3051 106.742C71.4022 106.999 70.4114 107.084 69.6213 107.584C68.5177 108.32 66.9501 107.595 65.8086 108.255C64.6675 108.81 63.3505 108.266 62.1466 108.288C60.9049 108.544 59.5756 108.181 58.5974 107.531C57.9075 107.68 57.1676 108.075 56.4528 107.808C55.6126 107.649 54.948 107.19 54.2707 106.764C53.1043 106.679 52.0757 106.252 51.2983 105.506C51.06 106.433 50.1819 107.03 49.3544 107.595C49.0408 108.085 48.84 108.629 48.7273 109.172C48.2381 109.928 47.2599 110.323 46.5827 110.931C45.5543 112.923 44.739 115.001 43.5352 116.929C42.8453 115.193 42.3436 113.402 41.7795 111.633C41.1271 111.602 40.4751 111.591 39.8353 111.495C38.5313 111.261 37.1641 111.463 35.91 111.016C37.6406 109.758 39.7099 108.895 41.4281 107.626C41.8923 106.582 42.9332 105.89 43.8109 105.102C44.0618 105.283 44.3 105.475 44.5509 105.666C44.5635 104.814 44.739 103.887 45.6044 103.343C46.5073 102.789 47.2473 102.096 47.9246 101.351C47.5608 100.722 47.0342 100.104 47.0843 99.3685C47.0718 98.5908 47.0969 97.7916 46.6579 97.0884C45.9681 95.9801 47.31 94.9573 47.1344 93.8384C47.0592 92.7515 47.7869 91.8137 48.6271 91.068C49.141 90.2262 49.5173 89.3203 50.2198 88.5532C49.4672 88.4252 48.6144 88.3508 48.05 87.8498C47.4355 87.4131 47.0718 86.6993 46.2442 86.5072C44.827 86.1238 44.4633 84.7065 43.1841 84.1525C41.9551 83.5982 41.7416 82.2771 40.5626 81.691C39.8606 81.2966 39.5344 80.6253 39.1706 80.0073C38.8322 79.3786 38.1424 78.9737 37.6532 78.4301C37.2517 77.8121 37.1641 77.0343 36.4494 76.5976C35.3331 75.745 35.471 74.2745 34.4301 73.3689C33.6776 72.6976 33.8907 71.7066 33.5521 70.9287C32.6366 70.1828 32.1725 69.0319 32.5989 67.9876C31.7211 67.3482 31.257 66.336 31.533 65.3769C31.7461 64.8015 31.1442 64.3327 30.9937 63.8001C30.467 63.0115 31.395 62.1271 30.8056 61.3704C30.0531 60.2728 31.0313 59.0582 30.5798 57.9074C30.3415 57.0441 30.63 56.2023 30.9686 55.3926C30.7303 54.3057 30.7178 53.1867 31.3574 52.1853C31.094 51.0877 31.4327 49.9901 32.0722 49.031C31.9469 47.9763 32.436 46.9746 33.1132 46.1113C33.1885 44.9393 33.7402 43.8736 34.6432 42.9892C34.869 41.8916 35.2578 40.6556 36.5495 40.1228C36.6249 39.5795 36.6249 38.9933 37.026 38.5352C37.628 37.9065 38.4685 37.4058 38.7316 36.5851C38.9951 35.7647 39.9107 35.3279 40.638 34.8163C41.0518 34.358 41.077 33.6975 41.6036 33.3032C42.3187 32.7811 43.3095 32.4828 43.6855 31.6835C44.2499 30.5754 45.9555 30.5114 46.5577 29.4352C47.2473 28.4549 48.9027 28.5614 49.5801 27.5811C50.3827 26.6647 51.9001 26.686 52.7908 25.8868C53.6436 25.077 55.0734 25.1516 56.0138 24.459C56.8792 23.809 58.0581 23.7024 59.1366 23.4893C60.0273 23.0205 60.9928 22.6049 62.059 22.5623C62.8112 22.5623 63.451 22.2213 64.103 21.9655C65.1065 21.5073 66.3481 22.1999 67.2637 21.5393C68.3548 20.8573 69.7215 21.7311 70.8378 21.1983H70.8756ZM14 119.966H24.0332V122.929H18.076V125.337H23.1678V128.118H18.076V133.755H14V119.966ZM32.5739 131.485H27.9462L27.3065 133.765H23.1553L28.0966 119.977H32.5238L37.465 133.765H33.2135L32.5739 131.485ZM31.7211 128.501L30.2662 123.547L28.824 128.501H31.7211ZM36.5748 119.966H48.9154V123.377H44.7769V133.765H40.7134V123.377H36.5748V119.966ZM57.5816 131.485H52.9537L52.3143 133.765H48.1628L53.1043 119.977H57.5312L62.4728 133.765H58.2211L57.5816 131.485ZM56.7289 128.501L55.2738 123.547L53.8317 128.501H56.7289ZM60.8801 119.966H65.3822L68.0286 124.623L70.6748 119.966H75.1522L70.0477 127.979V133.755H65.9842V127.979L60.8674 119.966H60.8801ZM82.8276 131.485H78.1997L77.5599 133.765H73.4088L78.3503 119.977H82.7772L87.7188 133.765H83.4671L82.8276 131.485ZM81.9745 128.501L80.5198 123.547L79.0777 128.501H81.9745ZM86.8281 119.966H99.1687V123.377H95.0302V133.765H90.967V123.377H86.8281V119.966ZM107.145 119.966H110.933L115.874 127.596V119.966H119.7V133.755H115.874L110.957 126.179V133.755H107.145V119.966ZM130.949 119.966H135V128.193C135 129.013 134.875 129.78 134.637 130.504C134.398 131.229 134.022 131.858 133.495 132.402C132.98 132.945 132.441 133.318 131.864 133.542C131.075 133.851 130.133 134 129.017 134C128.378 134 127.675 133.957 126.923 133.861C126.17 133.765 125.544 133.585 125.03 133.307C124.528 133.03 124.051 132.625 123.637 132.114C123.211 131.602 122.923 131.069 122.772 130.527C122.521 129.652 122.396 128.874 122.396 128.193V119.966H126.446V128.384C126.446 129.14 126.648 129.727 127.036 130.143C127.437 130.569 127.99 130.782 128.692 130.782C129.394 130.782 129.933 130.569 130.335 130.153C130.724 129.738 130.924 129.14 130.924 128.384V119.966H130.949ZM74.4749 35.2425C75.9924 39.0892 77.3217 42.9892 78.8896 46.8148C79.4035 48.0826 79.9053 49.3721 80.2189 50.6933C86.5773 50.7148 92.9357 50.6507 99.295 50.7361C94.2779 53.9434 89.0856 56.9482 84.0817 60.1663C84.6083 62.1908 85.4862 64.1195 86.2388 66.0911C87.2419 68.7015 88.2829 71.2911 89.2989 73.9014C89.512 74.4132 89.6251 74.9457 89.7 75.4893C86.3264 73.2731 82.7772 71.2482 79.4035 69.0319C77.698 68.1049 76.1931 66.9327 74.4371 66.0696C69.333 69.1704 64.2912 72.3457 59.2246 75.4893C59.9772 72.9637 61.2059 70.5664 61.9584 68.0516C62.9619 65.4195 63.9902 62.7983 65.0564 60.1877C59.9144 57.0548 54.7598 53.9327 49.6553 50.7466C56.0138 50.6721 62.36 50.7361 68.7184 50.704C69.2075 49.0632 69.9976 47.5075 70.4741 45.8663C71.7785 42.3287 73.3085 38.8442 74.4497 35.2532L74.4749 35.2425ZM74.4875 61.6154H74.4999C77.184 61.6582 79.8803 61.1468 81.3098 59.8787C83.1286 58.0351 82.9405 55.414 84.4579 53.4213C82.6143 53.4213 80.5198 53.1762 79.0024 54.2631C77.0333 55.8081 77.5476 58.4829 75.6413 60.0493C75.5912 58.7596 75.2275 57.3531 76.143 56.213C76.6696 55.1475 75.2275 54.3375 75.6161 53.3039C76.1052 52.7393 76.9205 52.3663 77.1587 51.6632C77.8234 50.3205 76.444 47.1452 74.5625 46.8998C74.5376 46.8998 74.5124 46.8998 74.4875 46.8998C74.4623 46.8998 74.4371 46.8998 74.4248 46.8998C72.5434 47.1344 71.1639 50.3098 71.8286 51.6632C72.0668 52.3555 72.8822 52.7393 73.3713 53.3039C73.7602 54.3375 72.3178 55.1475 72.8444 56.213C73.7602 57.3531 73.3961 58.7596 73.346 60.0493C71.4397 58.4829 71.9666 55.8081 69.985 54.2631C68.4676 53.1762 66.3605 53.4213 64.5294 53.4213C66.0346 55.414 65.8587 58.0351 67.6774 59.8787C69.1069 61.1468 71.8034 61.6687 74.4875 61.6154ZM71.026 22.3598C70.0228 23.127 69.2576 24.0967 68.6805 25.1303C69.2075 25.1516 69.7341 25.1623 70.261 25.1623C71.1513 24.0647 72.1548 23.0311 73.1957 22.0401C72.4806 22.1254 71.5652 21.8483 71.026 22.3598ZM74.7633 22.104C73.6596 22.8819 72.7192 23.8196 72.0294 24.8852C72.6313 24.8746 73.2584 25.0237 73.8352 24.8426C74.7384 23.8303 75.8795 22.9885 76.8829 22.0614C76.1805 22.0614 75.4531 22.0081 74.7507 22.1147L74.7633 22.104ZM67.2259 22.786C66.4232 23.7024 65.721 24.6828 65.1065 25.695C65.6709 25.695 66.2476 25.6844 66.8246 25.695C67.6523 24.5229 68.4175 23.2975 69.5085 22.2746C68.731 22.3278 67.8029 22.2426 67.2259 22.7753V22.786ZM78.4505 22.3917C77.2467 22.9778 76.2933 23.8623 75.3778 24.7254C75.8294 24.9066 76.2685 25.109 76.745 25.2368C77.3217 24.9385 77.7481 24.4696 78.2372 24.0753C78.9144 23.4787 79.8426 23.1164 80.3317 22.3705C79.7045 22.3491 79.065 22.2746 78.4379 22.3811L78.4505 22.3917ZM82.0249 22.8499C80.8333 23.3295 79.9679 24.2246 78.8394 24.7999C79.2532 25.045 79.5794 25.5032 80.1435 25.4819C80.6579 25.5352 80.9588 25.109 81.3098 24.8639C82.0877 24.1073 83.3041 23.777 84.0189 22.9565C83.3668 22.8499 82.677 22.5729 82.0373 22.8606L82.0249 22.8499ZM63.401 23.7131C62.8365 24.5868 62.2846 25.4713 61.9458 26.4303C62.4476 26.4623 62.9619 26.4729 63.4759 26.4835C64.1409 25.1942 64.931 23.9581 65.8086 22.7753C64.9684 22.9778 63.8522 22.9565 63.401 23.7237V23.7131ZM85.5616 23.5213C84.37 24.0008 83.2289 24.6188 82.4262 25.5352C82.8777 25.7057 83.3291 25.8762 83.7806 26.036C85.0097 25.2049 86.3891 24.5335 87.7062 23.8196C87.0037 23.7024 86.2514 23.1696 85.5489 23.5213H85.5616ZM60.1526 24.3417C59.3874 25.2901 59.0991 26.4303 58.6475 27.4958C59.0739 27.5065 59.5003 27.5065 59.9267 27.5172C60.9049 26.3344 61.1431 24.8213 62.2094 23.6705C61.5194 23.8623 60.6039 23.7664 60.1526 24.3417ZM85.825 25.8975C86.0633 26.3983 86.3769 26.9631 87.1417 26.7287C88.4962 26.0893 89.8381 25.3967 91.3307 25.0024C90.7914 24.7787 90.2772 24.4484 89.6626 24.3844C88.2829 24.672 87.079 25.354 85.825 25.8975ZM56.9293 25.2475C56.2398 26.3984 55.8383 27.6451 55.5748 28.9024C56.0765 28.7958 56.5782 28.6787 57.08 28.5508C57.5439 27.2294 57.9703 25.8761 58.7228 24.6508C58.1335 24.8639 57.5312 25.0557 56.9293 25.2475ZM74.8387 25.5672C74.3996 25.8655 73.8979 26.0787 73.3587 26.2172C72.6941 26.3131 72.1296 25.9188 71.5652 25.7057C70.8378 26.1532 69.9222 26.6008 68.9942 26.3344C67.8656 25.9934 66.9624 27.0376 65.8465 26.8672C65.3321 26.8138 64.6927 26.6434 64.3164 27.0696C63.6265 27.7622 62.4854 27.5065 61.5573 27.5705C61.1936 27.9008 60.8173 28.2205 60.4537 28.5508C59.8012 28.5614 59.1619 28.5827 58.5095 28.604C57.8574 29.904 55.8884 29.5844 54.948 30.586C54.3962 31.1508 53.5055 31.2573 52.7655 31.5664C52.1384 32.3016 51.3234 32.8876 50.2699 33.122C49.442 33.772 48.9027 34.9123 47.5861 34.891C47.4856 35.9245 46.4572 36.7449 45.3286 37.022C45.3035 38.1411 44.0996 38.7909 43.1463 39.3878C43.3344 40.4639 42.3061 41.0605 41.516 41.7107C41.3405 42.1369 41.2777 42.5951 41.1271 43.032C40.7007 43.5968 39.8104 43.9697 39.8731 44.7261C39.8606 45.5358 39.2207 46.1328 38.644 46.7081C38.5186 47.3047 38.6189 47.923 38.4058 48.5089C38.1049 48.85 37.7534 49.1376 37.4023 49.4466C37.6532 50.395 37.8036 51.5351 36.6876 52.1213C37.0386 53.0802 37.2769 54.3164 36.1356 54.9555C37.0012 55.8081 36.5748 56.9697 36.2234 57.9181C36.7503 58.8343 36.8131 59.8787 36.1356 60.7524C37.0012 61.4983 37.1266 62.5426 36.6375 63.4803C37.4023 64.2156 37.8788 65.1959 37.2896 66.1336C37.9794 66.9755 38.8571 67.9876 38.2051 69.0319C39.3087 69.4793 39.7726 70.6941 39.459 71.6533C40.5879 72.0689 41.0269 73.0917 41.0017 74.0828C42.0928 74.5834 42.908 75.5426 42.8204 76.6294C44.2751 76.7041 44.4132 78.1 45.178 78.8564C46.0561 79.336 46.7333 79.9966 47.2098 80.7851C48.2634 81.2539 49.2415 81.9041 49.6052 82.927C50.8091 82.8418 51.4236 83.7795 52.1511 84.4294C53.3801 84.6318 54.4336 85.2498 55.0106 86.2197C55.8758 85.8786 56.7538 85.5058 57.732 85.5483C58.9362 85.6335 59.8639 84.6106 61.1056 84.8663C62.1466 85.1539 63.1749 84.909 64.2159 84.8342C65.2694 84.6958 66.0469 85.6975 67.1004 85.4525C68.2794 85.2498 69.2577 86.2837 70.424 85.9318C71.7659 85.612 72.8821 86.4539 73.873 87.0827C74.5877 87.3598 75.403 87.1574 75.9924 86.7525C76.6948 86.273 77.6352 86.4647 78.4505 86.273C78.9144 86.0491 79.3534 85.7934 79.8299 85.6017C80.7832 85.1432 81.9872 85.5588 82.9527 85.1221C84.1318 84.5359 85.6117 85.0688 86.8033 84.4827C88.0572 83.9713 89.4117 84.6958 90.6909 84.4082C91.9701 84.1097 93.2371 84.7173 94.2276 85.3459C94.8925 85.1861 95.582 85.0688 96.2719 85.0155C96.623 83.9394 97.7017 83.2041 99.0188 83.1719C99.2314 82.1384 100.373 81.5523 101.489 81.3287C101.677 80.327 102.505 79.581 103.634 79.2613C103.822 78.4197 104.423 77.7055 105.277 77.2581C106.142 76.8958 105.816 75.9049 106.417 75.372C106.782 75.063 107.234 74.8498 107.647 74.6049C107.622 73.6032 108.061 72.5589 109.227 72.1648C109.24 71.6319 109.264 71.099 109.29 70.5664C109.678 70.2572 110.055 69.9377 110.431 69.6287C110.368 68.6696 110.544 67.7319 111.259 66.9648C111.46 65.9416 111.296 64.8122 112.275 64.0343C111.811 63.0967 111.962 62.0098 112.814 61.2638C111.962 60.4541 112.275 59.3246 112.927 58.5039C112.162 57.5984 112.099 56.4154 112.839 55.4884C111.936 54.7638 111.849 53.7089 112.337 52.7711C111.61 52.0466 111.272 51.077 111.585 50.15C111.133 49.2549 110.118 48.4023 110.644 47.358C109.779 46.6868 109.365 45.7279 109.315 44.7476C108.562 44.0016 107.823 43.1916 107.96 42.1476C107.083 41.7532 106.28 41.1566 106.179 40.2615C106.117 39.4836 104.95 39.3771 104.649 38.7058C104.374 38.2581 104.311 37.6615 103.721 37.4058C102.831 36.937 102.229 36.2016 101.727 35.4449C101.051 35.0827 100.298 34.7629 99.8587 34.1664C99.4069 33.4737 98.4418 33.3138 97.8146 32.7811C97.2501 32.3655 96.9239 31.6835 96.109 31.6196C95.1682 31.4598 94.5285 30.8311 94.0394 30.1705C92.798 30.2344 91.8447 29.5844 91.0045 28.8811C89.8255 28.8491 88.5088 28.6573 87.957 27.6451C87.3425 27.709 86.6901 27.8369 86.0882 27.677C85.5864 27.4213 85.1099 27.1335 84.646 26.8352C83.4923 27.1335 82.2881 26.9417 81.4104 26.2278C80.2942 26.6754 79.0275 26.4729 78.1496 25.7696C77.096 26.377 75.7289 26.2917 74.8011 25.5458L74.8387 25.5672ZM88.9352 27.0909C89.2863 27.336 89.5873 27.6664 90.0262 27.8155C90.6909 27.8475 91.2428 27.4852 91.8072 27.2614C92.7101 26.8352 93.7136 26.5794 94.6917 26.3131C94.0772 26.0573 93.4875 25.5885 92.7479 25.6844C91.3681 25.8868 90.1391 26.5155 88.9226 27.0803L88.9352 27.0909ZM53.5809 26.8352C52.8784 27.8369 52.9288 29.0303 52.59 30.1278C53.0038 30.1278 53.4053 30.1172 53.8065 30.1172C54.6593 28.8385 54.4964 27.2614 55.3239 25.9614C54.722 26.2065 53.9445 26.3025 53.5809 26.8352ZM92.0455 28.1885C92.4592 28.6253 93.0737 29.3287 93.8138 28.9983C95.0429 28.5188 96.3598 28.2311 97.6765 27.9753C97.4257 27.7409 97.1625 27.5065 96.9239 27.272C95.1935 27.0164 93.6256 27.6983 92.0455 28.1778V28.1885ZM50.3326 28.7532C49.9437 29.7761 49.8183 30.8524 49.806 31.9287C50.0316 31.9393 50.4956 31.9606 50.7338 31.9712C50.9846 31.6303 51.3609 31.3319 51.336 30.9057C51.4489 29.7442 51.7624 28.6253 52.0382 27.4852C51.3861 27.8049 50.5708 28.0926 50.3453 28.7639L50.3326 28.7532ZM95.0803 29.6164C95.3939 30.0426 95.7327 30.5328 96.3721 30.6179C97.8146 30.2131 99.2949 29.936 100.799 29.7975C100.223 29.4032 99.7334 28.6573 98.8679 28.8172C97.5763 28.9664 96.322 29.3179 95.0803 29.6164ZM47.4856 30.2344C47.235 31.4278 46.708 32.7172 47.3854 33.8893C47.7991 33.804 48.2508 33.7188 48.5643 33.4525C48.6645 32.0672 48.5769 30.6713 48.9655 29.2967C48.4637 29.5844 47.7869 29.7549 47.4856 30.2344ZM98.1155 31.2787C98.3165 31.7049 98.4541 32.4294 99.1944 32.2376C100.674 32.0458 102.167 31.918 103.659 31.8754C103.27 31.4172 102.843 30.9164 102.167 30.7565C100.811 30.895 99.4326 30.9164 98.1281 31.2787H98.1155ZM44.6763 32.3122C44.526 33.3032 44.5635 34.3155 44.6514 35.3066C44.6388 35.9671 45.8051 36.0736 46.1188 35.5303C46.2816 34.827 46.1437 34.1024 45.9807 33.3991C45.755 32.6958 46.1062 31.9926 46.1814 31.2893C45.617 31.545 45.0652 31.8647 44.6763 32.3122ZM100.624 33.0688C100.787 33.3991 100.938 33.7401 101.1 34.0811C101.439 34.1131 101.778 34.209 102.116 34.1664C103.521 33.9958 104.938 34.0916 106.342 34.0385C105.791 33.559 105.289 32.9196 104.411 32.9622C103.157 32.6532 101.891 33.0795 100.624 33.0795V33.0688ZM42.2434 34.4114C41.9799 35.6902 42.1554 37.086 42.8453 38.258C43.6105 38.1941 44.0996 37.3951 43.8361 36.7983C43.5352 35.6902 43.3218 34.5605 43.3218 33.4205C42.9458 33.7401 42.5569 34.0491 42.2307 34.4114H42.2434ZM103.069 35.1252C103.22 35.4556 103.383 35.786 103.533 36.1269C105.214 36.6598 107.032 36.2016 108.751 36.5532C108.237 35.9671 107.722 35.2107 106.782 35.1252C105.553 35.0187 104.311 35.0934 103.069 35.1252ZM39.898 37.1927C39.9232 38.3968 40.1615 39.6113 40.8136 40.6878C41.2904 40.3255 42.1554 39.9736 41.8043 39.3024C41.3405 38.237 41.24 37.0968 40.8762 35.9992C40.4999 36.3615 40.0109 36.6812 39.8854 37.1819L39.898 37.1927ZM105.615 37.4483C105.615 37.6508 105.628 38.0449 105.628 38.237C107.196 38.8761 108.964 38.7269 110.632 39.0148C110.431 38.6204 110.256 38.2155 109.98 37.8639C108.612 37.3418 107.083 37.4376 105.615 37.4376V37.4483ZM37.8288 39.7927C37.9041 41.0179 38.418 42.2113 39.1832 43.2449C39.5722 42.8615 40.2116 42.4992 39.9733 41.9131C39.5845 40.8048 39.1458 39.7179 38.7568 38.6096C38.418 38.9722 37.7787 39.2598 37.8162 39.7927H37.8288ZM107.308 39.7605C107.572 40.1656 107.684 40.7089 108.148 40.986C109.603 41.2099 111.058 41.3909 112.463 41.8172C112.313 41.4123 112.187 41.0072 111.936 40.6449C110.557 39.9204 108.901 39.6968 107.308 39.7605ZM36.7878 41.1992C36.5244 41.6999 35.8598 42.1902 36.1231 42.7868C36.3739 43.8417 36.9007 44.8541 37.628 45.7386C38.5435 45.877 38.6941 44.8328 38.3679 44.3106C37.7534 43.2982 37.4149 42.1902 36.7752 41.1885L36.7878 41.1992ZM109.165 42.1795C109.264 42.6909 109.302 43.3836 110.017 43.5753C111.334 43.8736 112.651 44.1933 113.88 44.7048C113.88 44.3746 113.88 44.0441 113.88 43.7245C112.563 42.7441 110.845 42.4033 109.165 42.1902V42.1795ZM34.5931 45.6425C35.1575 46.6334 35.6717 47.667 36.399 48.5836C37.0386 48.8178 37.0639 48.1148 37.2395 47.7736C37.4399 47.2836 36.9634 46.868 36.6998 46.4632C36.0855 45.7279 35.7343 44.8646 35.3079 44.0442C35.007 44.5237 34.2293 45.0352 34.5931 45.632V45.6425ZM110.782 44.7476C110.77 45.1632 110.77 45.5892 110.782 46.0048C112.25 46.5269 113.768 46.9639 115.172 47.5926C115.097 47.0812 115.047 46.5483 114.708 46.1113C113.479 45.4933 112.124 45.1204 110.782 44.7476ZM33.8907 46.932C33.7528 47.241 33.6399 47.5607 33.5647 47.8802C33.226 49.4148 34.9192 50.4802 35.797 51.6417C36.0228 51.1836 36.3739 50.7361 36.3489 50.2245C35.5587 49.1164 34.5931 48.0933 33.8907 46.932ZM112.037 47.4968C111.999 47.9549 111.986 48.413 111.999 48.8711C113.566 49.2867 114.908 50.086 116.351 50.7466C116.201 50.2458 116.05 49.7452 115.949 49.2441C114.72 48.5622 113.391 47.9974 112.049 47.5075L112.037 47.4968ZM33.0004 50.0434C32.7369 50.6189 32.436 51.2901 32.7369 51.8867C33.364 52.75 34.1792 53.4853 34.9067 54.2843C35.4835 54.6361 35.5337 53.8154 35.7093 53.5171C35.9852 53.0057 35.3832 52.6646 35.032 52.3237C34.2168 51.6524 33.7026 50.7891 33.0004 50.0328V50.0434ZM113.102 50.3735C112.965 50.6507 112.827 50.9172 112.676 51.1942C112.977 51.5458 113.266 51.9296 113.768 52.0998C114.922 52.6009 115.874 53.368 117.003 53.9116C117.154 51.9614 114.808 51.1089 113.102 50.3843V50.3735ZM32.1099 53.1549C32.0973 53.6877 31.9469 54.2417 32.135 54.7638C32.8247 55.7867 33.8657 56.5859 34.869 57.3746C35.2076 56.9908 35.6967 56.5434 35.3581 56.0427C34.9818 55.6483 34.5304 55.2967 34.1165 54.9344C33.4141 54.3697 33.0004 53.5597 32.0973 53.1549H32.1099ZM113.178 54.1566C114.457 55.2009 115.911 56.0746 117.291 57.023C117.241 56.4154 117.317 55.7441 116.853 55.2219C116.075 54.3164 114.884 53.805 113.805 53.2189C113.604 53.5278 113.391 53.8476 113.178 54.1566ZM114.018 56.0531C113.83 56.4901 113.641 56.9271 113.479 57.3638C114.908 58.0673 115.849 59.2607 117.267 59.9746C117.229 59.3351 117.342 58.6212 116.853 58.0884C116.088 57.2466 114.984 56.7033 114.018 56.0531ZM31.7211 56.2877C31.7712 56.8631 31.6458 57.4918 32.0346 58.0033C32.7369 58.9517 33.8907 59.559 34.9442 60.1983C35.1825 59.8572 35.5839 59.5271 35.4459 59.0901C35.4584 58.7064 34.894 58.6212 34.6307 58.387C33.5773 57.7582 32.8749 56.7777 31.7086 56.277L31.7211 56.2877ZM113.917 58.9835C113.78 59.495 113.265 60.1343 113.943 60.5181C115.009 61.3171 115.636 62.4787 116.877 63.0967C116.89 62.5638 117.065 62.0098 116.84 61.4983C116.137 60.4648 115.134 59.5697 113.905 58.9835H113.917ZM31.7587 59.4205C31.4327 61.2319 33.5647 62.2441 35.1449 62.9794C35.797 62.7983 35.9601 62.0312 35.3706 61.7115C34.2168 60.8908 33.0004 60.1451 31.7587 59.4205ZM113.479 63.4908C114.532 64.3219 115.071 65.59 116.338 66.2188C116.727 64.4607 115.297 63.0327 113.805 62.0098C113.391 62.3935 112.876 63.054 113.479 63.4908ZM32.0346 62.5531C32.16 63.0752 32.298 63.587 32.4108 64.1091C33.4393 64.7908 34.5429 65.3983 35.7595 65.8139C36.8758 65.5475 36.0604 64.5351 35.3706 64.29C34.2168 63.7679 33.2386 63.0115 32.0472 62.5531H32.0346ZM113.316 64.7271C113.027 65.1212 112.426 65.4835 112.626 66.0056C113.391 67.1246 114.357 68.1368 115.059 69.2983C115.247 68.8506 115.498 68.4139 115.56 67.9451C115.172 66.7195 114.143 65.7499 113.316 64.7271ZM33.0129 65.7074C32.9752 66.144 32.9376 66.5918 32.9125 67.0285C34.2293 67.6893 35.5713 68.7229 37.2142 68.5204C37.1014 68.1582 36.9885 67.8066 36.8758 67.4443C35.5462 66.9222 34.2419 66.3679 33.0129 65.7074ZM111.798 69.0745C112.563 70.1188 113.29 71.1844 113.693 72.3886C113.931 71.8557 114.482 71.3654 114.47 70.7793C113.917 69.6607 113.215 68.5949 112.551 67.5295C112.099 67.9343 111.385 68.4457 111.798 69.0745ZM33.8155 68.6378C33.8907 69.1492 33.9158 69.7032 34.2921 70.1295C35.5212 70.7368 36.8253 71.2589 38.2302 71.5041C38.0922 71.0353 38.4058 70.2893 37.7408 70.0655C36.3739 69.7032 35.0696 69.2024 33.803 68.6378H33.8155ZM110.456 71.536C110.971 72.7188 111.598 73.8803 112.237 75.0204C112.501 74.509 113.115 74.008 112.927 73.4114C112.601 72.3886 112.074 71.3976 111.347 70.5343C110.657 70.3 110.606 71.1523 110.456 71.536ZM35.0195 71.7066C35.1323 72.154 35.2703 72.6014 35.4208 73.0385C36.8379 73.5073 38.2677 73.9654 39.7726 74.1468C39.7351 73.8163 39.685 73.4966 39.6349 73.1769C39.2835 72.7935 38.6941 72.708 38.1798 72.5803C37.0888 72.3672 36.0981 71.9301 35.0195 71.7066ZM109.014 74.3385C109.453 75.5318 109.879 76.7253 110.331 77.9187C111.911 76.4802 110.77 74.4557 109.804 73.0065C109.428 73.39 108.751 73.763 109.014 74.3385ZM36.5244 74.4343C36.6998 74.8925 36.8131 75.3934 37.1767 75.7876C38.5814 76.4056 40.1615 76.5121 41.7041 76.6509C41.4533 76.182 41.3278 75.6065 40.8387 75.2654C39.3588 75.1696 37.9167 74.8498 36.5244 74.445V74.4343ZM107.083 76.3419C107.521 77.7162 107.873 79.1017 108.174 80.4976C108.562 80.0606 109.102 79.645 109.24 79.091C109.052 77.8869 108.838 76.6613 108.162 75.5745C107.797 75.8301 107.434 76.0858 107.083 76.3419ZM38.3431 77.2474C38.5939 77.6737 38.7568 78.1745 39.1832 78.5156C40.5252 78.899 41.9424 78.963 43.3218 79.1654C43.347 78.782 43.3845 78.3875 43.4223 78.0041C41.7416 77.7055 40.036 77.5245 38.3431 77.2581V77.2474ZM105.226 78.409C105.101 79.9007 105.753 81.3394 105.666 82.8311C106.08 82.3834 106.857 82.0533 106.844 81.4138C106.995 80.2523 106.606 79.1229 106.443 77.9827C106.042 78.1211 105.628 78.2705 105.226 78.3982V78.409ZM40.4624 79.9221C40.7886 80.3695 41.1649 80.7958 41.6664 81.1155C43.0709 81.2754 44.5008 81.1796 45.9054 81.1367C45.755 80.8065 45.6044 80.4869 45.4664 80.1564C43.7734 80.2737 42.1431 79.7409 40.4624 79.9221ZM102.831 81.6802C103.095 82.7564 103.333 83.8647 102.956 84.9408C103.483 84.6851 104.136 84.5041 104.311 83.9498C104.487 83.0442 104.411 82.1065 104.374 81.1899C104.386 80.8065 104.085 80.4976 103.809 80.2204C103.358 80.6253 102.617 81.0197 102.831 81.6802ZM42.6571 82.2238C43.1336 82.6498 43.5853 83.0975 44.1245 83.4705C45.5417 83.7048 46.9716 83.4384 48.3635 83.1827C48.2007 82.863 48.05 82.5433 47.8996 82.2131C46.1437 82.1917 44.4006 82.181 42.6571 82.2238ZM101.1 82.5007C100.875 82.7031 100.649 82.8951 100.423 83.0869C100.398 84.4082 100.373 85.7401 100.109 87.0508C100.649 86.7951 101.201 86.4966 101.527 86.0276C101.979 84.8771 102.003 83.6622 101.953 82.4689C101.74 82.4795 101.314 82.5007 101.113 82.5007H101.1ZM45.4415 84.6318C45.9681 84.9837 46.3317 85.655 47.0969 85.6121C48.3761 85.591 49.6302 85.3245 50.8719 85.1007C50.7464 84.6426 50.5961 83.8221 49.8309 84.0353C48.3636 84.2162 46.8962 84.3869 45.4541 84.6318H45.4415ZM97.6639 84.8131C97.8272 86.0491 97.062 87.2851 97.5637 88.4785C97.8899 88.3508 98.2283 88.2335 98.5547 88.1162C98.9685 86.8483 99.3196 85.527 99.1441 84.2055C98.642 84.3975 98.1533 84.5999 97.6639 84.8131ZM87.3172 85.3459C86.2388 86.1875 85.3234 87.1785 84.6587 88.3082C85.0347 88.4681 85.411 88.6279 85.7872 88.7875C86.9536 87.7539 87.8817 86.5498 88.8974 85.3993C88.3582 85.3671 87.8316 85.3564 87.3046 85.3459H87.3172ZM91.0798 85.5058C89.6499 85.9639 88.747 87.0719 87.6935 87.9459C88.3834 88.1058 89.349 88.4999 89.8756 87.8819C90.7663 87.0615 91.7819 86.3581 92.8355 85.6761C92.2588 85.612 91.6442 85.2286 91.0672 85.5058H91.0798ZM48.2007 86.4432C48.5769 86.9335 49.1036 87.4342 49.8435 87.4342C51.2229 87.4771 52.5273 87.0294 53.7816 86.5926C53.6436 86.3262 53.5181 86.0705 53.3801 85.8041C51.6244 85.8681 49.9563 86.3902 48.2007 86.4432ZM57.3434 89.1819C57.8949 89.2138 58.4344 89.2245 58.9863 89.2245C59.6758 87.9778 60.8173 86.9975 61.6449 85.8252C59.3122 85.591 58.171 87.6902 57.3434 89.1819ZM60.3657 88.255C60.8674 88.6598 61.8081 88.9795 62.3096 88.4041C63.225 87.5622 64.2912 86.8695 65.3195 86.1342C64.7929 85.9851 64.266 85.7827 63.6893 85.8359C62.36 86.4007 61.3566 87.3491 60.3657 88.2654V88.255ZM83.3792 86.209C82.5141 87.1359 82.0123 88.255 81.3726 89.2885C81.9622 89.5228 82.5768 89.4162 83.1535 89.2245C83.6052 87.9992 84.4828 86.955 85.2105 85.8467C84.5833 85.8786 83.8808 85.8148 83.3792 86.2197V86.209ZM94.7418 86.3474C95.2057 86.6353 95.6826 86.912 96.1339 87.2106C96.2719 86.827 96.3973 86.4328 96.5101 86.0384C95.9083 86.1023 95.3189 86.209 94.7292 86.3474H94.7418ZM66.9501 86.5926C65.633 87.0401 64.5046 87.7754 63.4384 88.5532C63.9902 88.7238 64.5168 88.9902 65.1191 88.9902C66.4106 88.3082 67.6148 87.509 68.9692 86.912C68.3295 86.7418 67.6397 86.3369 66.9501 86.5926ZM79.3661 87.2426C78.8016 88.1162 78.2623 89.0007 77.8987 89.9598C78.3377 89.9812 78.789 89.9916 79.228 90.0023C80.2188 88.8408 80.8333 87.4875 81.7741 86.3048C80.8834 86.3581 79.8426 86.5072 79.3661 87.2426ZM56.0639 86.9654C55.3365 88.0951 54.8348 89.3418 54.647 90.6203C55.1736 90.5138 55.688 90.3967 56.1893 90.258C56.553 88.9795 57.08 87.7221 57.8199 86.5712C57.218 86.6353 56.5782 86.6671 56.0516 86.9761L56.0639 86.9654ZM70.5746 87.0508C69.3204 87.573 67.9785 88.1058 67.1257 89.0861C67.7528 89.2564 68.5428 89.8214 69.0443 89.1712C69.8595 88.3508 71.1513 88.191 72.1296 87.5837C72.1548 87.4982 72.2049 87.3276 72.2424 87.2426C71.7158 87.0827 71.1265 86.7311 70.5869 87.0615L70.5746 87.0508ZM76.3059 87.7647C75.4658 88.7023 74.9514 89.8106 74.2994 90.8335C74.8888 91.068 75.5407 91.0892 76.0677 90.7162C76.7698 89.5975 77.397 88.4467 78.1745 87.3705C77.535 87.4238 76.8326 87.3916 76.3059 87.7754V87.7647ZM91.8699 87.7328C91.5816 89.0967 90.9166 90.3539 90.4779 91.6754C91.2929 91.4303 92.2462 91.1317 92.5345 90.3647C92.8856 89.427 93.4626 88.4359 93.1491 87.4342C92.7227 87.5303 92.2963 87.637 91.8573 87.7221L91.8699 87.7328ZM52.7655 88.6172C52.2516 89.7999 52.7407 91.0574 53.0416 92.2293C53.3927 92.0909 53.7939 92.0058 54.0826 91.7712C54.208 90.3539 54.1702 88.9262 54.0325 87.509C53.5556 87.8179 52.9663 88.0843 52.7782 88.6065L52.7655 88.6172ZM94.6539 87.5197C94.4535 88.8408 94.7167 90.194 94.3028 91.494C94.5285 91.686 94.7545 91.8778 94.9801 92.0695C95.1556 92.0802 95.5194 92.1016 95.6948 92.1016C95.9334 91.0252 96.3598 89.8958 95.9961 88.7982C95.808 88.2017 95.2183 87.8287 94.6416 87.509L94.6539 87.5197ZM73.2207 88.5318C72.4305 89.5975 72.0041 90.8123 71.8034 92.0591C72.2424 92.0695 72.6814 92.0909 73.1204 92.1123C73.7349 90.8016 74.2114 89.4483 74.7006 88.1058C74.1988 88.2123 73.6722 88.2868 73.2207 88.5318ZM70.1732 89.5975C69.3455 90.5564 68.6179 91.6328 68.4049 92.8369C68.8439 92.8473 69.2829 92.8688 69.7342 92.8795C70.4741 91.6435 71.1888 90.3861 72.042 89.1926C71.4022 89.2459 70.6874 89.2031 70.1732 89.5975ZM88.5215 89.5442C88.0824 90.6418 87.4805 91.6754 86.8782 92.7089C89.0607 92.6023 89.6374 90.5992 90.2898 89.1819C89.7001 89.2885 89.1108 89.4162 88.5215 89.5442ZM50.1819 91.5155C50.5457 92.5383 51.0975 93.5082 51.7748 94.4137C52.0757 94.2967 52.377 94.1795 52.678 94.0622C52.5775 92.4639 51.198 91.2064 50.8719 89.6508C50.483 90.2155 49.969 90.8228 50.1946 91.5155H50.1819ZM85.6996 89.7467C84.9596 91.0148 84.2445 92.2934 83.1914 93.4016C83.6927 93.3909 84.1944 93.3909 84.6961 93.3802C85.85 92.3999 86.7153 91.1746 87.0037 89.7999C86.5647 89.7785 86.1383 89.7574 85.6996 89.7467ZM97.8272 89.6508C97.4884 90.6096 97.1247 91.5688 96.46 92.4106C96.0084 92.8795 96.0964 93.5082 96.0463 94.0729C96.3472 94.1902 96.6482 94.2967 96.9365 94.4137C97.5136 93.4656 98.078 92.5172 98.5291 91.5155C98.7806 90.8228 98.1912 90.2155 97.8272 89.6508ZM60.3783 90.0875C59.1619 90.5992 58.1584 91.3771 57.0547 92.0483C57.5816 92.2827 58.1083 92.5384 58.6854 92.6771C59.8639 91.7819 61.1684 91.0467 62.5355 90.3967C61.8456 90.2155 61.093 89.8318 60.3657 90.0875H60.3783ZM63.6265 90.5244C62.5229 91.2279 61.532 92.1016 60.8047 93.1034C61.3313 93.1566 61.9963 93.6466 62.4476 93.2203C63.5263 92.3466 64.5547 91.4515 65.583 90.5352C64.9432 90.3328 64.2159 90.0771 63.6265 90.5244ZM64.4166 93.3695C65.0186 93.3909 65.6331 93.3909 66.2476 93.4016C66.7746 92.4958 67.4515 91.6539 68.0033 90.7591C67.7776 90.5564 67.5521 90.3647 67.3138 90.173C66.0469 91.0252 65.1941 92.1868 64.4292 93.3802L64.4166 93.3695ZM75.9798 92.6771C76.4565 92.8262 76.9457 92.986 77.4471 93.1034C78.8769 92.6981 79.9806 91.7926 81.2096 91.0892C81.0843 90.94 80.8082 90.6525 80.6705 90.5138C78.9772 91.0147 77.397 91.7394 75.9798 92.6878V92.6771ZM82.4136 90.5138C82.3635 90.8335 82.3007 91.1532 82.2131 91.473C81.3726 92.3467 80.3442 93.0712 79.4413 93.9023C80.0808 93.9023 80.708 93.9023 81.3477 93.9023C82.3508 92.9328 83.2915 91.8459 83.6553 90.5564C83.2414 90.5352 82.8276 90.5138 82.4136 90.4926V90.5138ZM54.283 93.05C53.907 93.7317 53.7063 94.4884 53.0542 95.0317C53.3174 95.7884 53.029 96.5237 52.7529 97.2376C52.9664 97.7704 53.2298 98.2926 53.4806 98.8257C55.2738 98.3883 57.08 97.9089 58.9484 97.7597C59.7511 97.6532 60.5163 97.2164 61.3439 97.4189C62.2094 97.5892 63.0621 97.2694 63.9275 97.3228C64.9432 97.2591 65.8339 97.8131 66.8496 97.7704C67.7528 97.7597 68.5552 98.0902 69.3078 98.4844C71.4524 98.6546 72.9323 100.104 74.6757 101.01C75.3403 100.487 76.0551 99.9871 76.9331 99.7735C78.2372 99.5183 79.4162 98.8895 80.7832 98.8682C81.8242 98.8469 82.7145 98.1646 83.7932 98.3994C85.2732 98.7082 86.8782 98.4206 88.2829 99.0069C90.3146 99.0171 92.1708 99.891 94.2152 99.9335C95.5698 99.5497 95.532 98.2072 95.8956 97.2376C95.6948 96.5131 95.4944 95.7884 95.4065 95.0425C95.1181 94.3712 94.7544 93.7106 94.4034 93.05C93.9265 92.6663 93.4626 92.2615 93.0864 91.8034C92.0956 92.3359 91.0045 92.6449 89.8381 92.7089C89.0481 93.3483 88.0071 93.6467 86.9161 93.6574C86.1509 93.6255 85.5864 94.0836 84.9471 94.3393C84.0564 94.5524 83.0782 94.2967 82.2254 94.6269C80.984 95.1491 79.4288 95.1172 78.2249 94.5311C77.0708 94.1473 75.8421 93.8916 74.8134 93.2525C73.8478 93.2418 72.8695 93.1777 71.9039 93.1352C70.863 93.0286 70.2107 94.1155 69.1574 93.9238C68.5302 93.9771 67.7903 93.4442 67.2637 93.8812C66.3481 94.7228 64.6174 94.6909 63.6518 93.9238C62.9994 94.2006 62.3096 94.5736 61.5447 94.4459C60.8548 94.286 60.3282 93.8384 59.8138 93.4335C58.8357 93.7425 57.6945 93.6999 56.8039 93.2096C56.2898 92.8048 56.0516 92.2293 55.7128 91.7286C55.2991 92.2082 54.8099 92.6449 54.283 93.05ZM48.5892 92.5279C48.6018 93.1245 48.489 93.7425 48.7023 94.3179C49.4925 95.1812 50.1697 96.2573 51.4489 96.6515C51.6493 96.332 51.85 96.0123 52.0508 95.6926C50.7842 94.7228 49.9437 93.4335 48.5892 92.5279ZM96.623 95.6712C96.8111 95.9591 96.9866 96.2466 97.1748 96.5344C97.3503 96.5237 97.6891 96.5131 97.8521 96.5023C98.642 95.8311 99.3443 95.0851 99.9963 94.3179C100.185 93.7317 100.085 93.1137 100.097 92.5172C98.8053 93.4549 97.8394 94.6591 96.623 95.6605V95.6712ZM47.9872 95.7034C47.9747 96.2147 47.9747 96.7369 47.9747 97.2483C48.928 98.0369 50.0817 98.612 51.2607 99.1345C51.499 98.9209 51.7372 98.7082 51.9881 98.4946C51.712 98.1753 51.5116 97.7597 51.06 97.5892C49.9563 97.067 48.9655 96.3957 47.9872 95.7034ZM97.4509 97.6853C96.7985 98.0369 96.5101 98.772 97.1748 99.2409C98.4418 98.6971 99.6831 98.0902 100.712 97.2591C100.712 96.7476 100.712 96.2255 100.699 95.7137C99.6708 96.4383 98.6173 97.1524 97.4383 97.6853H97.4509ZM62.8238 98.4095C61.6701 99.1558 60.8674 100.2 60.1526 101.255C60.6418 101.372 61.1431 101.457 61.6449 101.532C62.573 100.349 63.7895 99.3685 64.9558 98.3459C64.2411 98.3352 63.5263 98.2926 62.8238 98.4095ZM59.7136 98.6444C58.8608 99.5923 58.0831 100.584 57.4938 101.67C57.8326 101.798 58.171 101.915 58.5095 102.054C59.8766 101.191 60.4158 99.6995 61.532 98.612C60.9302 98.6231 60.3156 98.6333 59.7136 98.6333V98.6444ZM56.3148 99.4758C55.8257 100.572 55.4245 101.691 54.9729 102.8C55.4746 102.81 55.9889 102.81 56.4903 102.81C57.0421 101.468 57.5565 100.115 58.1836 98.7933C57.5439 98.9958 56.9293 99.2409 56.3022 99.4758H56.3148ZM66.1849 98.9634C64.8682 99.4647 63.8273 100.349 62.8613 101.244C63.5638 101.425 64.4793 101.713 65.0687 101.18C66.0847 100.456 67.251 99.8373 68.1165 98.9745C67.4767 98.9533 66.8246 98.8469 66.1849 98.9745V98.9634ZM48.1628 99.3259C48.4011 99.8271 48.6898 100.317 48.9781 100.807C49.3291 100.477 49.6679 100.146 49.9815 99.7948C49.3796 99.6135 48.7774 99.4434 48.1628 99.337V99.3259ZM82.5014 99.657C83.5424 100.509 84.3952 101.5 85.2354 102.49C85.8373 102.587 86.4518 102.513 87.0541 102.502C86.2763 101.436 85.411 100.349 84.207 99.5821C83.6927 99.2307 83.0281 99.5497 82.4888 99.657H82.5014ZM96.7484 99.9548C96.2344 99.9122 95.883 100.242 95.507 100.477C95.507 100.669 95.5194 101.064 95.5319 101.265C96.9492 101.297 98.4162 101.191 99.6954 100.647C100.16 100.339 100.272 99.7948 100.524 99.3685C99.2693 99.571 98.0402 99.9233 96.7484 99.9659V99.9548ZM53.5809 99.9446C53.029 101.149 52.59 102.374 52.3392 103.653C52.9663 103.588 53.7564 103.535 54.0072 102.949C54.3208 101.82 54.6593 100.701 55.0857 99.6034C54.5717 99.6995 54.07 99.8271 53.5809 99.9548V99.9446ZM68.7433 99.8271C67.715 100.327 66.7746 100.946 65.8465 101.564C65.8212 101.649 65.7585 101.83 65.7336 101.915C66.323 102.086 67.113 102.587 67.6397 102.075C68.6683 101.244 69.8974 100.626 71.0761 99.9659C70.3238 99.8161 69.4584 99.411 68.731 99.8271H68.7433ZM85.5114 99.7421C86.5647 100.744 87.3674 101.905 88.2079 103.045C88.7471 103.045 89.2737 103.034 89.8006 103.013C89.1734 101.766 88.2829 100.615 87.1417 99.6773C86.6025 99.6884 86.0507 99.7097 85.5114 99.7523V99.7421ZM50.5334 101.064C50.32 102.15 50.4455 103.258 50.4706 104.356C50.6711 104.345 51.0852 104.334 51.2856 104.324C51.4737 104.153 51.6619 103.972 51.85 103.802C51.411 102.49 51.9755 101.18 52.0256 99.8586C51.411 100.136 50.6837 100.402 50.5334 101.052V101.064ZM78.8643 100.242C80.018 100.904 81.147 101.617 82.1 102.48C82.6017 103.045 83.5424 102.758 84.0315 102.342C83.0407 101.446 82.0624 100.477 80.7455 99.9446C80.106 99.976 79.4914 100.146 78.8643 100.242ZM89.0607 100.115C89.6125 101.159 90.0389 102.246 90.3774 103.354C90.7789 103.067 91.2302 102.832 91.5938 102.502C91.5563 101.884 91.1552 101.34 90.8038 100.807C90.4401 100.306 89.6626 100.285 89.0732 100.115H89.0607ZM67.9157 102.342C67.7528 103.119 69.0067 103.194 69.5838 102.96C70.7624 102.331 72.0167 101.841 73.2584 101.309C72.7066 101.095 72.1296 100.914 71.5777 100.711C70.3739 101.286 69.0695 101.691 67.9157 102.342ZM76.2933 101.18C77.0708 101.691 77.8861 102.267 78.9144 102.31C79.7672 102.353 80.4069 102.874 81.0089 103.343C81.1094 103.226 81.2972 103.003 81.3852 102.895C80.3442 101.979 79.0903 101.286 77.7607 100.722C77.2716 100.882 76.7824 101.031 76.2807 101.191L76.2933 101.18ZM92.0581 100.626C92.1835 101.201 92.3464 101.766 92.497 102.342C92.9109 101.99 93.3247 101.649 93.7384 101.297C93.1866 101.064 92.6225 100.829 92.0581 100.637V100.626ZM47.9624 103.343C48.0752 104.409 48.326 105.475 48.6397 106.519C49.0534 106.38 49.4672 106.242 49.881 106.114C49.6806 104.718 49.6052 103.3 49.1663 101.948C48.7524 102.395 47.8996 102.704 47.9624 103.354V103.343ZM94.6038 102.193C93.889 102.182 93.6382 102.779 93.5001 103.279C95.1556 103.3 96.8864 103.546 98.4788 103.055C98.6297 102.715 98.7929 102.374 98.9429 102.033C97.5385 102.416 96.0463 102.299 94.6038 102.193ZM60.002 102.587C59.2872 102.758 58.6226 103.067 57.9202 103.29C59.1745 103.706 60.7045 103.418 61.7076 104.345C62.059 103.748 62.7485 103.162 63.6013 103.322C64.4793 103.46 65.3574 103.631 66.1975 103.258C65.5329 102.843 64.8055 102.64 63.9902 102.735C62.736 102.182 61.3566 102.555 60.0147 102.587H60.002ZM74.5625 102.256C74.9766 103.418 75.5786 104.537 76.3059 105.581C76.8203 105.954 77.5224 105.911 78.1621 105.954C77.3844 104.931 76.7698 103.833 76.3687 102.65C76.1178 102.022 75.1522 102.374 74.5751 102.256H74.5625ZM72.255 102.874C71.7158 103.898 71.2894 104.963 70.5368 105.89C70.9632 105.901 71.3896 105.922 71.816 105.932C72.6941 105.208 73.1831 104.249 73.7349 103.343C73.6095 103.109 73.4841 102.864 73.3587 102.619C72.995 102.715 72.6187 102.8 72.255 102.885V102.874ZM77.9113 103.364C78.2999 104.643 78.9022 105.901 79.8803 106.945C80.3818 106.956 80.8834 106.956 81.3978 106.966C80.3818 105.88 80.0433 104.494 79.228 103.312C78.789 103.322 78.3503 103.343 77.9113 103.364ZM86.6778 103.642C86.339 103.962 86.9662 104.537 87.3425 104.207C87.731 103.887 87.0541 103.354 86.6778 103.642ZM91.0297 104.548C92.3215 105.048 93.7009 105.453 95.1181 105.549C95.7327 105.347 96.3094 105.059 96.8738 104.771C95.4191 104.504 93.9644 104.217 92.5972 103.695C91.8324 103.3 91.4183 104.142 91.0297 104.548ZM46.0434 105.283C46.1563 106.348 46.4323 107.404 46.8836 108.405C47.3727 108.224 48.2255 108.095 48.0125 107.478C47.7364 106.221 47.2599 104.995 46.959 103.748C46.5577 104.196 45.8427 104.643 46.0434 105.272V105.283ZM52.1135 104.952C52.59 105.155 53.0542 105.378 53.5682 105.517C54.9981 105.475 56.3775 105.048 57.6692 104.558C57.4811 104.324 57.293 104.099 57.1049 103.865C55.3867 103.983 53.7189 104.409 52.1261 104.952H52.1135ZM68.6304 104.718C68.2167 105.486 67.8155 106.263 67.2637 106.977C67.7777 106.966 68.292 106.966 68.7938 106.966C69.684 106.028 70.2359 104.899 70.6623 103.759C70.0102 104.111 69.1949 104.281 68.6304 104.728V104.718ZM66.4859 104.122C65.4201 105.187 64.5795 106.391 63.5764 107.499C64.191 107.499 64.7929 107.489 65.4075 107.489C66.3356 106.508 67.113 105.442 67.9284 104.388C67.4515 104.281 66.9876 104.132 66.4859 104.122ZM80.7832 104.431C81.5859 105.463 82.3634 106.508 83.279 107.478C83.8935 107.478 84.508 107.489 85.1352 107.489C84.3952 106.615 83.6177 105.773 82.9278 104.878C82.677 104.494 82.1879 104.313 81.7741 104.068C81.4479 104.185 81.1217 104.313 80.7832 104.431ZM97.2501 107.158C97.6765 107.361 98.0903 107.574 98.5291 107.765C98.8176 106.508 99.1194 105.251 99.2067 103.972C97.664 104.441 97.4383 105.965 97.2627 107.158H97.2501ZM63.15 104.409C61.9837 105.293 60.9049 106.274 59.8391 107.244C60.5413 107.244 61.2437 107.286 61.9458 107.169C62.9868 106.476 64.0154 105.773 64.6927 104.782C64.2537 104.504 63.7267 104.174 63.15 104.409ZM84.0063 104.771C84.6835 105.752 85.6369 106.54 86.7528 107.147C87.4427 107.275 88.1452 107.232 88.8473 107.244C87.7815 106.274 86.7028 105.293 85.5363 104.409C84.9596 104.174 84.4453 104.504 84.0063 104.771ZM55.6375 106.061C55.5747 106.626 56.3526 106.753 56.8666 106.721C58.3843 106.636 59.7011 105.901 60.9427 105.218C60.4537 104.984 60.0273 104.419 59.4001 104.633C58.1209 105.07 56.9672 105.72 55.6501 106.071L55.6375 106.061ZM87.7188 105.272C88.8974 105.901 90.1517 106.508 91.5437 106.711C92.1082 106.785 93.1238 106.732 93.0489 106.061C91.7319 105.72 90.5781 105.048 89.2989 104.633C88.6343 104.409 88.2079 105.017 87.7188 105.272ZM100.234 104.782C99.9469 106.114 99.4069 107.414 99.1317 108.746C99.3443 109.15 99.8084 109.407 100.16 109.737C100.749 108.544 101.113 107.275 101.225 105.986C100.975 105.538 100.599 105.166 100.234 104.782ZM43.2843 106.956C44.3 107.894 45.3787 108.778 46.4446 109.673C46.6706 109.492 46.9088 109.3 47.1344 109.119C46.7207 108.916 46.3192 108.714 45.9054 108.501C45.8178 107.723 45.6044 106.956 45.4916 106.177C44.9022 106.711 44.0744 106.827 43.2717 106.956H43.2843ZM101.677 107.414C101.501 108.095 101.364 108.778 101.213 109.47C100.95 109.833 100.486 110.035 100.085 110.269C100.361 110.472 100.637 110.664 100.9 110.867C101.866 109.982 102.894 109.161 103.884 108.299C103.759 108.16 103.509 107.872 103.383 107.723C103.145 107.894 102.906 108.064 102.68 108.234C102.355 107.957 102.016 107.68 101.69 107.414H101.677ZM39.3462 110.302C40.4498 110.547 41.5913 110.653 42.7325 110.632C43.1841 111.676 43.4977 112.752 43.8361 113.829C44.5887 112.55 45.0904 111.164 45.8051 109.875C45.0025 109.236 44.2373 108.564 43.4472 107.915C42.03 108.639 40.6759 109.459 39.3462 110.302ZM103.872 109.055C103.17 109.715 102.355 110.28 101.69 110.983C101.414 111.271 101.703 111.666 101.828 111.975C102.405 113.008 102.894 114.074 103.37 115.15C103.684 114.138 103.872 113.093 104.274 112.113C105.39 111.388 106.869 111.708 108.162 111.655C106.707 110.823 105.315 109.908 103.846 109.076L103.872 109.055ZM57.7821 32.2909C58.3217 33.2713 58.6727 34.3155 59.0991 35.3384C60.4537 35.3705 61.8081 35.3598 63.1626 35.3916C62.134 36.1163 60.9175 36.6812 59.9393 37.4483C60.2154 38.5137 60.654 39.5473 60.9553 40.6131C59.9645 39.8992 58.8483 39.3449 57.8073 38.6844C56.6785 39.3982 55.4998 40.0695 54.4589 40.8795C54.948 39.7394 55.4119 38.5885 55.7882 37.4163C54.6971 36.7345 53.5809 36.0525 52.4646 35.4024C53.8192 35.3279 55.1736 35.4449 56.5155 35.3066C57.2555 34.4328 57.3434 33.2819 57.7821 32.3016V32.2909ZM91.0297 32.5254C91.1173 32.5147 91.3055 32.504 91.4056 32.4934C91.7571 33.4525 92.1082 34.4114 92.522 35.3598C93.8764 35.3812 95.231 35.3598 96.5855 35.4024C95.4566 36.0629 94.3529 36.7345 93.2493 37.4163C93.5881 38.4819 94.0772 39.5155 94.3529 40.6024C93.2745 40.0058 92.2462 39.3344 91.2178 38.6844C90.1892 39.3344 89.1609 40.0058 88.0951 40.6024C88.3708 39.5155 88.8599 38.4927 89.211 37.4269C88.1073 36.7345 87.0037 36.0629 85.8751 35.4024C87.2671 35.3598 88.6468 35.3705 90.0389 35.3705C90.3774 34.4221 90.6661 33.4737 91.042 32.536L91.0297 32.5254ZM44.9272 46.7933C45.5543 45.8237 46.0935 44.8113 46.7333 43.8417C47.2725 44.8968 46.7708 46.186 47.6109 47.1452C48.765 47.4968 50.0316 47.5393 51.2355 47.6992C50.0817 48.2957 48.8653 48.786 47.6488 49.2867C47.9246 50.395 48.0125 51.5245 48.3009 52.6327C47.3479 51.8441 46.3945 51.0555 45.4664 50.2352C44.2499 50.6933 43.0208 51.1196 41.8043 51.5885C42.4441 50.6507 43.1088 49.713 43.6732 48.7434C42.9206 47.8483 42.0177 47.0597 41.1397 46.2608C42.394 46.4203 43.6606 46.559 44.9022 46.804L44.9272 46.7933ZM102.329 43.8525C102.944 44.8435 103.509 45.8663 104.261 46.7933C105.428 46.5269 106.631 46.4203 107.823 46.25C107.145 47.1877 106.28 48.0081 105.327 48.7328C106.054 49.6278 106.669 50.5867 107.183 51.5885C106.004 51.1517 104.851 50.6614 103.721 50.1393C102.743 50.949 101.74 51.7483 100.837 52.6219C101.051 51.514 101.225 50.395 101.401 49.2867C100.185 48.7968 98.9561 48.3172 97.8146 47.7099C99.0938 47.6033 100.348 47.358 101.628 47.2836C101.965 46.1541 101.979 44.9819 102.329 43.8632V43.8525ZM44.0494 63.2032C45.0904 62.6171 45.8178 61.7008 46.8083 61.0507C46.7333 62.1056 46.4323 63.1392 46.4197 64.205C47.5734 64.7482 48.7774 65.2278 49.9563 65.7285C48.6018 65.9524 47.2473 66.1122 45.9054 66.3679C45.8928 67.5295 45.5417 68.6589 45.4415 69.8097C44.8645 68.7655 44.1998 67.7427 43.6606 66.6876C42.3313 66.89 40.989 67.018 39.685 67.3163C40.5504 66.4637 41.3779 65.59 42.2686 64.7482C41.8422 63.7468 40.9642 62.926 40.5378 61.9032C41.7041 62.3402 42.8204 62.8942 44.0494 63.2139V63.2032ZM102.229 61.0402C103.22 61.7327 103.997 62.6171 105.038 63.2672C106.243 62.905 107.321 62.3188 108.487 61.8925C108.073 62.8942 107.258 63.7572 106.82 64.7378C107.521 65.6752 108.701 66.3147 109.377 67.2949C108.086 67.0607 106.782 66.8156 105.452 66.8475C104.75 67.8066 104.123 68.808 103.571 69.8312C103.559 68.6696 103.208 67.5295 103.12 66.3787C101.778 66.1229 100.436 65.8565 99.0681 65.718C100.298 65.2278 101.501 64.6738 102.743 64.205C102.542 63.1499 102.405 62.095 102.217 61.0402H102.229ZM53.9571 76.8C54.5966 75.8941 55.2489 74.9779 55.901 74.072C55.9763 75.2121 56.3274 76.3097 56.3274 77.4606C57.6066 77.6523 58.8608 77.9509 60.1149 78.2277C58.961 78.6754 57.7698 79.0589 56.5782 79.4426C56.5656 80.5613 56.5281 81.6802 56.5909 82.7993C55.8634 81.9893 55.0106 81.2647 54.3082 80.4442C52.9537 80.4761 51.7247 81.2539 50.3954 81.5204C51.1728 80.6041 51.7999 79.6132 52.5525 78.6861C51.5491 77.8547 50.8218 76.8211 49.7555 76.0433C51.1353 76.3312 52.5024 76.7041 53.9319 76.8211L53.9571 76.8ZM93.1365 74.072C93.7888 74.9779 94.5537 75.8197 95.068 76.8C96.5101 76.6934 97.9022 76.3097 99.295 76.0114C98.2036 76.7893 97.4758 77.8442 96.4727 78.6754C97.2876 79.5598 97.9022 80.5613 98.6173 81.499C97.3503 81.1474 96.1465 80.6786 94.8925 80.3055C94.1648 81.1899 93.2244 81.9467 92.5093 82.8418C92.4845 81.7017 92.497 80.5719 92.4845 79.4318C91.2806 79.0589 90.089 78.6647 88.9352 78.2065C90.2018 77.9509 91.4435 77.6312 92.7227 77.4606C92.7728 76.3204 93.1617 75.2121 93.1365 74.0613V74.072Z" fill="#FEFEFE"/>
</svg>
