<svg width="429" height="492" viewBox="0 0 429 492" fill="none" xmlns="http://www.w3.org/2000/svg">
<path d="M12.6746 12.6669H416.808V479.617H12.6746V12.6669Z" stroke="white" stroke-width="5"/>
<path d="M203.838 54.274C206.861 52.9512 210.112 54.0094 213.249 54.1606C216.65 53.6315 220.279 53.0268 223.567 54.463C225.381 55.4835 227.082 53.7449 228.934 53.7449C231.088 54.1984 233.167 54.8787 235.245 55.5969C237.286 56.4661 239.554 54.8787 241.633 55.7102C244.279 56.6551 246.471 59.1118 249.494 58.3181C253.916 57.8646 257.016 61.9087 261.324 61.9843C264.423 62.2488 266.88 64.3654 269.299 66.1417C272.965 66.2929 275.989 68.2205 278.672 70.5638C281.847 71.7354 285.362 72.6803 287.479 75.5906C288.348 77.0646 289.973 77.5559 291.523 78.0094C294.433 78.7654 296.058 81.5244 298.023 83.5654C299.611 84.8126 301.576 85.4551 303.201 86.6268C305.167 88.3276 305.923 91.3134 308.417 92.4472C311.516 93.9969 313.671 96.9449 314.464 100.271C320.02 101.367 320.209 107.943 324.027 111.08C326.521 113.197 327.201 116.523 328.751 119.244C330.565 121.285 332.342 123.439 332.908 126.198C333.438 129.487 336.612 131.452 337.293 134.702C337.822 136.403 338.011 138.18 338.502 139.918C340.883 142.791 342.282 146.683 341.337 150.35C344.512 153.109 344.738 157.455 344.323 161.348C346.666 164.447 346.666 168.265 345.872 171.893C346.931 174.765 347.913 177.751 347.119 180.85C346.061 184.781 348.442 188.787 346.931 192.68C344.89 196.573 348.064 201.26 345.343 204.964C343.718 207.08 346.099 209.688 344.965 211.918C344.512 214.488 342.055 216.491 342.584 219.213C343.113 221.934 341.526 224.315 340.127 226.507C338.275 228.85 339.787 232.214 338.124 234.633C337.179 236.145 335.781 237.279 334.723 238.715C334.231 240.945 334.647 243.439 333.135 245.329C331.623 247.257 329.431 248.844 329.053 251.414C328.638 255.534 323.762 257.046 322.893 261.014C321.645 265.285 316.543 266.721 315.258 270.917C314.275 273.789 311.365 275.036 309.135 276.737C307.661 279.723 305.28 282.217 302.37 283.918C299.838 285.317 298.515 288.076 296.209 289.739C294.735 290.532 293.072 290.872 291.56 291.477C290.464 292.573 289.444 293.783 288.386 294.917C290.086 297.789 290.653 301.266 293.072 303.685C295.151 305.802 296.436 308.863 296.134 311.849C295.529 315.591 299.611 318.879 297.797 322.658C296.512 325.757 296.436 329.159 296.436 332.485C296.625 335.509 293.375 337.134 292.845 339.931C292.392 341.48 291.787 342.954 291.145 344.428C292.203 346.091 293.601 347.528 295.227 348.661C297.645 350.891 299.422 353.991 299.497 357.317C300.216 357.014 300.934 356.75 301.652 356.485C304.184 359.093 307.057 361.474 308.417 364.951C314.086 369.222 320.512 372.472 325.765 377.272C319.794 378.482 313.595 378.18 307.699 379.616C305.998 385.852 304.6 392.164 302.597 398.287C299.082 391.446 296.776 384.076 293.45 377.197C291.22 374.287 288.423 371.83 285.286 369.94C285.778 369.751 286.836 369.373 287.327 369.184C286.156 367.143 285.362 364.687 283.245 363.364C280.902 362.041 280.071 359.395 278.748 357.241C274.439 356.561 272.247 360.869 268.279 361.55C266.124 362.494 263.932 361.058 261.816 360.529C259.283 362.57 255.957 363.78 252.669 363.288C248.474 362.57 244.052 365.405 240.045 363.099C237.135 361.247 233.545 362.419 230.332 361.776C228.669 361.02 227.346 359.698 225.834 358.639C223.831 358.148 221.639 358.488 219.787 357.43C217.293 356.145 216.121 353.461 214.798 351.156C214.534 351.118 214.042 351.043 213.816 351.005C212.455 353.575 211.132 356.674 208.146 357.694C205.425 358.602 202.439 358.904 200.058 360.68C196.732 363.288 192.008 360.718 188.568 363.061C185.129 365.027 181.16 363.099 177.532 363.175C173.79 364.082 169.784 362.797 166.836 360.491C164.757 361.02 162.527 362.419 160.373 361.474C157.841 360.907 155.838 359.282 153.797 357.77C150.282 357.468 147.182 355.956 144.839 353.31C144.121 356.598 141.475 358.715 138.981 360.718C138.036 362.457 137.431 364.384 137.091 366.312C135.617 368.995 132.669 370.394 130.628 372.548C127.529 379.616 125.072 386.986 121.444 393.827C119.365 387.666 117.853 381.317 116.153 375.043C114.187 374.929 112.222 374.891 110.294 374.551C106.364 373.72 102.244 374.438 98.4644 372.85C103.68 368.391 109.916 365.329 115.094 360.831C116.493 357.128 119.63 354.671 122.275 351.874C123.031 352.517 123.749 353.197 124.505 353.877C124.543 350.854 125.072 347.565 127.68 345.638C130.401 343.672 132.631 341.216 134.672 338.57C133.576 336.34 131.989 334.148 132.14 331.54C132.102 328.781 132.178 325.946 130.855 323.452C128.776 319.521 132.82 315.893 132.291 311.924C132.064 308.069 134.257 304.743 136.789 302.098C138.338 299.112 139.472 295.899 141.589 293.178C139.321 292.724 136.751 292.46 135.05 290.683C133.198 289.134 132.102 286.602 129.608 285.921C125.337 284.561 124.241 279.534 120.386 277.569C116.682 275.603 116.039 270.917 112.486 268.838C110.37 267.439 109.387 265.058 108.291 262.866C107.271 260.636 105.192 259.2 103.718 257.272C102.508 255.08 102.244 252.321 100.09 250.772C96.7258 247.748 97.1415 242.532 94.0045 239.32C91.7368 236.939 92.3793 233.424 91.3589 230.665C88.5998 228.019 87.2014 223.937 88.4864 220.233C85.8408 217.965 84.4423 214.375 85.2738 210.973C85.9163 208.932 84.1022 207.269 83.6486 205.38C82.0612 202.583 84.8581 199.446 83.0817 196.762C80.814 192.869 83.762 188.561 82.4014 184.479C81.6833 181.417 82.5526 178.431 83.573 175.559C82.8549 171.704 82.8171 167.735 84.7447 164.183C83.951 160.29 84.9715 156.397 86.899 152.995C86.5211 149.254 87.9951 145.701 90.036 142.639C90.2628 138.482 91.9258 134.702 94.6471 131.565C95.3274 127.672 96.499 123.288 100.392 121.398C100.619 119.471 100.619 117.392 101.828 115.767C103.642 113.537 106.175 111.761 106.968 108.85C107.762 105.94 110.521 104.391 112.713 102.576C113.96 100.951 114.036 98.6079 115.623 97.2095C117.778 95.3575 120.764 94.2992 121.897 91.4646C123.598 87.5339 128.738 87.3071 130.553 83.4898C132.631 80.0126 137.62 80.3906 139.661 76.9134C142.08 73.663 146.653 73.7386 149.337 70.9039C151.907 68.0315 156.216 68.2961 159.05 65.8394C161.658 63.5339 165.211 63.1559 168.461 62.4C171.145 60.737 174.055 59.263 177.268 59.1118C179.535 59.1118 181.463 57.9024 183.428 56.9953C186.452 55.3701 190.194 57.8268 192.953 55.4835C196.241 53.0646 200.36 56.1638 203.724 54.274H203.838ZM32.436 404.598H62.6723V415.106H44.7195V423.647H60.0644V433.512H44.7195V453.506H32.436V404.598ZM88.4108 445.455H74.4644L72.5368 453.543H60.0266L74.9179 404.636H88.2597L103.151 453.543H90.3384L88.4108 445.455ZM85.8408 434.872L81.4565 417.298L77.1101 434.872H85.8408ZM100.468 404.598H137.658V416.693H125.186V453.543H112.94V416.693H100.468V404.598ZM163.775 445.455H149.828L147.901 453.543H135.39L150.282 404.636H163.623L178.515 453.543H165.702L163.775 445.455ZM161.205 434.872L156.82 417.298L152.474 434.872H161.205ZM173.715 404.598H187.283L195.258 421.115L203.233 404.598H216.726L201.343 433.02V453.506H189.097V433.02L173.677 404.598H173.715ZM239.857 445.455H225.91L223.982 453.543H211.472L226.364 404.636H239.705L254.597 453.543H241.784L239.857 445.455ZM237.286 434.872L232.902 417.298L228.556 434.872H237.286ZM251.913 404.598H289.104V416.693H276.631V453.543H264.386V416.693H251.913V404.598ZM313.142 404.598H324.556L339.447 431.66V404.598H350.975V453.506H339.447L324.631 426.633V453.506H313.142V404.598ZM384.877 404.598H397.085V433.776C397.085 436.687 396.707 439.408 395.989 441.978C395.271 444.548 394.137 446.778 392.549 448.706C391 450.633 389.375 451.956 387.636 452.75C385.255 453.846 382.42 454.375 379.057 454.375C377.129 454.375 375.012 454.224 372.745 453.883C370.477 453.543 368.587 452.901 367.038 451.918C365.526 450.935 364.09 449.499 362.842 447.685C361.557 445.871 360.688 443.981 360.234 442.054C359.479 438.954 359.101 436.195 359.101 433.776V404.598H371.308V434.457C371.308 437.14 371.913 439.219 373.085 440.693C374.294 442.205 375.957 442.961 378.074 442.961C380.19 442.961 381.816 442.205 383.025 440.731C384.197 439.257 384.801 437.14 384.801 434.457V404.598H384.877ZM214.685 104.088C219.258 117.732 223.264 131.565 227.989 145.134C229.538 149.631 231.05 154.205 231.995 158.891C251.157 158.967 270.319 158.74 289.482 159.043C274.364 170.419 258.716 181.077 243.636 192.491C245.223 199.672 247.869 206.513 250.137 213.506C253.16 222.765 256.297 231.95 259.359 241.209C260.001 243.024 260.342 244.913 260.568 246.841C250.401 238.98 239.705 231.798 229.538 223.937C224.398 220.649 219.863 216.491 214.571 213.43C199.189 224.428 183.995 235.691 168.726 246.841C170.994 237.883 174.697 229.38 176.965 220.46C179.989 211.124 183.088 201.827 186.301 192.567C170.805 181.455 155.271 170.381 139.888 159.08C159.05 158.816 178.175 159.043 197.337 158.929C198.811 153.109 201.192 147.591 202.628 141.77C206.559 129.222 211.17 116.863 214.609 104.126L214.685 104.088ZM214.723 197.631H214.76C222.849 197.783 230.975 195.969 235.283 191.471C240.764 184.932 240.197 175.635 244.77 168.567C239.214 168.567 232.902 167.698 228.329 171.553C222.395 177.033 223.945 186.52 218.2 192.076C218.049 187.502 216.953 182.513 219.712 178.469C221.299 174.69 216.953 171.817 218.124 168.151C219.598 166.148 222.055 164.825 222.773 162.331C224.776 157.569 220.619 146.306 214.949 145.436C214.874 145.436 214.798 145.436 214.723 145.436C214.647 145.436 214.571 145.436 214.534 145.436C208.864 146.268 204.707 157.531 206.71 162.331C207.428 164.787 209.885 166.148 211.359 168.151C212.531 171.817 208.184 174.69 209.771 178.469C212.531 182.513 211.434 187.502 211.283 192.076C205.538 186.52 207.126 177.033 201.154 171.553C196.581 167.698 190.231 168.567 184.713 168.567C189.249 175.635 188.719 184.932 194.2 191.471C198.508 195.969 206.634 197.82 214.723 197.631ZM204.291 58.3937C201.268 61.115 198.962 64.5543 197.223 68.2205C198.811 68.2961 200.398 68.3339 201.986 68.3339C204.669 64.4409 207.693 60.7748 210.83 57.2598C208.675 57.5622 205.916 56.5795 204.291 58.3937ZM215.554 57.4866C212.228 60.2457 209.394 63.5717 207.315 67.3512C209.129 67.3134 211.019 67.8425 212.757 67.2C215.479 63.6095 218.918 60.6236 221.942 57.3354C219.825 57.3354 217.633 57.1465 215.516 57.5244L215.554 57.4866ZM192.839 59.9055C190.42 63.1559 188.304 66.6331 186.452 70.2236C188.153 70.2236 189.891 70.1858 191.63 70.2236C194.124 66.0661 196.43 61.7197 199.718 58.0913C197.375 58.2803 194.578 57.978 192.839 59.8677V59.9055ZM226.666 58.5071C223.038 60.5858 220.165 63.7228 217.406 66.7843C218.767 67.4268 220.09 68.1449 221.526 68.5984C223.264 67.5402 224.549 65.8772 226.023 64.4787C228.064 62.3622 230.861 61.0772 232.335 58.4315C230.445 58.3559 228.518 58.0913 226.628 58.4693L226.666 58.5071ZM237.438 60.1323C233.847 61.8331 231.239 65.0079 227.838 67.0488C229.085 67.9181 230.068 69.5433 231.768 69.4677C233.318 69.6567 234.225 68.1449 235.283 67.2756C237.627 64.5921 241.293 63.4205 243.447 60.5102C241.482 60.1323 239.403 59.1496 237.475 60.1701L237.438 60.1323ZM181.312 63.1937C179.611 66.2929 177.948 69.4299 176.927 72.8315C178.439 72.9449 179.989 72.9827 181.538 73.0205C183.542 68.4472 185.923 64.063 188.568 59.8677C186.036 60.5858 182.672 60.5102 181.312 63.2315V63.1937ZM248.096 62.5134C244.505 64.2142 241.066 66.4063 238.647 69.6567C240.008 70.2614 241.368 70.8661 242.729 71.4331C246.433 68.485 250.59 66.1039 254.559 63.5717C252.442 63.1559 250.175 61.2661 248.058 62.5134H248.096ZM171.523 65.4236C169.217 68.7874 168.348 72.8315 166.987 76.611C168.272 76.6488 169.557 76.6488 170.842 76.6866C173.79 72.4913 174.508 67.1244 177.721 63.0425C175.642 63.7228 172.883 63.3827 171.523 65.4236ZM248.89 70.9417C249.608 72.7181 250.553 74.7213 252.858 73.8898C256.94 71.622 260.984 69.1654 265.482 67.7669C263.857 66.9732 262.307 65.8016 260.455 65.5748C256.297 66.5953 252.669 69.0142 248.89 70.9417ZM161.809 68.6362C159.731 72.7181 158.521 77.1402 157.727 81.6C159.239 81.222 160.751 80.8063 162.263 80.3528C163.661 75.6661 164.946 70.8661 167.214 66.5197C165.438 67.2756 163.623 67.9559 161.809 68.6362ZM215.781 69.7701C214.458 70.8283 212.946 71.5843 211.321 72.0756C209.318 72.4157 207.617 71.0173 205.916 70.2614C203.724 71.8488 200.965 73.4362 198.168 72.4913C194.767 71.2819 192.045 74.9858 188.682 74.3811C187.132 74.1921 185.205 73.5874 184.071 75.0992C181.992 77.5559 178.553 76.6488 175.756 76.8756C174.66 78.0472 173.526 79.1811 172.43 80.3528C170.464 80.3906 168.537 80.4661 166.571 80.5417C164.606 85.1528 158.672 84.0189 155.838 87.5717C154.175 89.5748 151.491 89.9528 149.261 91.0488C147.371 93.6567 144.915 95.7354 141.74 96.5669C139.245 98.8724 137.62 102.917 133.652 102.841C133.349 106.507 130.25 109.417 126.849 110.4C126.773 114.369 123.145 116.674 120.272 118.791C120.839 122.608 117.74 124.724 115.359 127.03C114.83 128.542 114.641 130.167 114.187 131.717C112.902 133.72 110.219 135.043 110.408 137.726C110.37 140.598 108.442 142.715 106.704 144.756C106.326 146.872 106.628 149.065 105.986 151.143C105.079 152.353 104.02 153.373 102.962 154.469C103.718 157.833 104.171 161.877 100.808 163.956C101.866 167.357 102.584 171.742 99.1447 174.009C101.753 177.033 100.468 181.153 99.4093 184.517C100.997 187.767 101.186 191.471 99.1447 194.57C101.753 197.216 102.131 200.92 100.657 204.246C102.962 206.854 104.398 210.331 102.622 213.657C104.701 216.643 107.346 220.233 105.381 223.937C108.707 225.524 110.105 229.833 109.16 233.235C112.562 234.709 113.885 238.337 113.809 241.852C117.097 243.628 119.554 247.03 119.29 250.885C123.674 251.15 124.09 256.101 126.395 258.784C129.041 260.485 131.082 262.828 132.518 265.625C135.693 267.288 138.641 269.594 139.737 273.222C143.365 272.92 145.217 276.246 147.409 278.551C151.113 279.269 154.288 281.461 156.027 284.901C158.634 283.691 161.28 282.369 164.228 282.52C167.857 282.822 170.653 279.194 174.395 280.101C177.532 281.121 180.631 280.252 183.768 279.987C186.943 279.496 189.286 283.049 192.461 282.18C196.014 281.461 198.962 285.128 202.477 283.88C206.521 282.746 209.885 285.732 212.871 287.962C215.025 288.945 217.482 288.227 219.258 286.791C221.375 285.09 224.209 285.77 226.666 285.09C228.064 284.296 229.387 283.389 230.823 282.709C233.696 281.083 237.324 282.557 240.234 281.008C243.787 278.929 248.247 280.819 251.838 278.74C255.617 276.926 259.699 279.496 263.554 278.476C267.409 277.417 271.227 279.572 274.212 281.802C276.216 281.235 278.294 280.819 280.373 280.63C281.431 276.813 284.682 274.205 288.65 274.091C289.293 270.425 292.732 268.346 296.096 267.553C296.663 264 299.157 261.354 302.559 260.22C303.126 257.235 304.94 254.702 307.51 253.115C310.118 251.83 309.135 248.315 310.949 246.425C312.045 245.329 313.406 244.573 314.653 243.704C314.578 240.151 315.901 236.447 319.416 235.049C319.453 233.159 319.529 231.269 319.605 229.38C320.776 228.283 321.91 227.15 323.044 226.054C322.855 222.652 323.384 219.326 325.538 216.605C326.143 212.976 325.652 208.97 328.6 206.211C327.201 202.885 327.655 199.03 330.225 196.384C327.655 193.512 328.6 189.506 330.565 186.595C328.26 183.383 328.071 179.187 330.301 175.899C327.579 173.329 327.315 169.587 328.789 166.261C326.597 163.691 325.576 160.252 326.521 156.964C325.16 153.789 322.099 150.765 323.686 147.061C321.079 144.68 319.831 141.279 319.68 137.802C317.412 135.156 315.182 132.283 315.598 128.58C312.953 127.181 310.534 125.065 310.231 121.89C310.042 119.131 306.527 118.753 305.62 116.372C304.789 114.784 304.6 112.668 302.823 111.761C300.14 110.098 298.326 107.49 296.814 104.806C294.773 103.521 292.505 102.387 291.182 100.271C289.822 97.8142 286.912 97.2472 285.022 95.3575C283.321 93.8835 282.338 91.4646 279.882 91.2378C277.047 90.6709 275.119 88.4409 273.645 86.0976C269.904 86.3244 267.031 84.0189 264.499 81.5244C260.946 81.411 256.978 80.7307 255.315 77.1402C253.463 77.3669 251.497 77.8205 249.683 77.2535C248.171 76.3465 246.735 75.326 245.337 74.2677C241.86 75.326 238.231 74.6457 235.586 72.1134C232.222 73.7008 228.405 72.9827 225.759 70.4882C222.584 72.6425 218.464 72.3402 215.668 69.6945L215.781 69.7701ZM258.263 75.1748C259.321 76.0441 260.228 77.2157 261.551 77.7449C263.554 77.8583 265.217 76.5732 266.918 75.7795C269.639 74.2677 272.663 73.3606 275.611 72.4157C273.759 71.5087 271.982 69.8457 269.753 70.1858C265.595 70.9039 261.891 73.1339 258.225 75.137L258.263 75.1748ZM151.718 74.2677C149.601 77.8205 149.753 82.0535 148.732 85.9465C149.979 85.9465 151.189 85.9087 152.398 85.9087C154.968 81.3732 154.477 75.7795 156.971 71.1685C155.157 72.0378 152.814 72.378 151.718 74.2677ZM267.636 79.0677C268.883 80.6173 270.735 83.1118 272.965 81.9402C276.669 80.2394 280.638 79.2189 284.606 78.3118C283.85 77.4803 283.057 76.6488 282.338 75.8173C277.123 74.9102 272.398 77.3291 267.636 79.0299V79.0677ZM141.929 81.0709C140.757 84.6992 140.379 88.5165 140.342 92.3339C141.022 92.3717 142.42 92.4472 143.138 92.485C143.894 91.2756 145.028 90.2173 144.953 88.7055C145.293 84.5858 146.238 80.6173 147.069 76.5732C145.104 77.7071 142.647 78.7276 141.967 81.1087L141.929 81.0709ZM276.782 84.1323C277.727 85.6441 278.748 87.3827 280.675 87.685C285.022 86.2488 289.482 85.2661 294.017 84.7748C292.279 83.3764 290.805 80.7307 288.197 81.2976C284.304 81.8268 280.524 83.074 276.782 84.1323ZM133.349 86.3244C132.594 90.5575 131.006 95.1307 133.047 99.2882C134.294 98.9858 135.655 98.6835 136.6 97.7386C136.902 92.8252 136.638 87.874 137.809 82.9984C136.297 84.0189 134.257 84.6236 133.349 86.3244ZM285.929 90.0283C286.534 91.5402 286.949 94.1102 289.179 93.4299C293.639 92.7496 298.137 92.2961 302.634 92.1449C301.463 90.5197 300.178 88.7433 298.137 88.1764C294.055 88.6677 289.897 88.7433 285.967 90.0283H285.929ZM124.883 93.6945C124.43 97.2095 124.543 100.8 124.808 104.315C124.77 106.658 128.285 107.036 129.23 105.109C129.721 102.614 129.305 100.044 128.814 97.5496C128.134 95.0551 129.192 92.5606 129.419 90.0661C127.718 90.9732 126.055 92.1071 124.883 93.6945ZM293.488 96.378C293.979 97.5496 294.433 98.7591 294.924 99.9685C295.945 100.082 296.965 100.422 297.986 100.271C302.219 99.6661 306.49 100.006 310.723 99.8173C309.06 98.1165 307.548 95.8488 304.902 96C301.123 94.9039 297.305 96.4158 293.488 96.4158V96.378ZM117.551 101.14C116.757 105.676 117.286 110.627 119.365 114.784C121.671 114.557 123.145 111.723 122.351 109.606C121.444 105.676 120.801 101.669 120.801 97.6252C119.668 98.7591 118.496 99.8551 117.513 101.14H117.551ZM300.858 103.672C301.312 104.844 301.803 106.016 302.257 107.225C307.321 109.115 312.801 107.49 317.979 108.737C316.43 106.658 314.88 103.975 312.045 103.672C308.342 103.294 304.6 103.559 300.858 103.672ZM110.483 111.005C110.559 115.276 111.277 119.584 113.242 123.402C114.679 122.117 117.286 120.869 116.228 118.488C114.83 114.709 114.527 110.665 113.431 106.772C112.297 108.057 110.823 109.191 110.445 110.967L110.483 111.005ZM308.531 111.912C308.531 112.63 308.568 114.028 308.568 114.709C313.293 116.976 318.622 116.447 323.649 117.468C323.044 116.069 322.515 114.633 321.683 113.386C317.564 111.534 312.953 111.874 308.531 111.874V111.912ZM104.247 120.227C104.474 124.573 106.023 128.806 108.329 132.472C109.501 131.112 111.428 129.827 110.71 127.748C109.538 123.817 108.216 119.962 107.044 116.031C106.023 117.317 104.096 118.337 104.209 120.227H104.247ZM313.633 120.113C314.427 121.55 314.767 123.477 316.165 124.46C320.549 125.254 324.934 125.896 329.167 127.408C328.713 125.972 328.335 124.535 327.579 123.25C323.422 120.68 318.433 119.887 313.633 120.113ZM101.11 125.216C100.316 126.992 98.3132 128.731 99.1069 130.847C99.8628 134.589 101.45 138.18 103.642 141.317C106.401 141.808 106.855 138.104 105.872 136.252C104.02 132.661 103 128.731 101.072 125.178L101.11 125.216ZM319.227 128.693C319.529 130.507 319.642 132.964 321.797 133.644C325.765 134.702 329.734 135.836 333.438 137.65C333.438 136.479 333.438 135.307 333.438 134.173C329.469 130.696 324.291 129.487 319.227 128.731V128.693ZM94.4959 140.976C96.1967 144.491 97.7463 148.157 99.9384 151.408C101.866 152.239 101.942 149.745 102.471 148.535C103.075 146.797 101.639 145.323 100.845 143.887C98.9935 141.279 97.9352 138.217 96.6502 135.307C95.7431 137.008 93.3998 138.822 94.4959 140.939V140.976ZM324.102 137.802C324.064 139.276 324.064 140.787 324.102 142.261C328.524 144.113 333.097 145.663 337.331 147.893C337.104 146.079 336.953 144.189 335.932 142.639C332.228 140.447 328.146 139.124 324.102 137.802ZM92.3793 145.55C91.9636 146.646 91.6234 147.78 91.3967 148.913C90.3762 154.356 95.4786 158.135 98.1242 162.255C98.8045 160.63 99.8628 159.043 99.7872 157.228C97.4061 153.298 94.4959 149.669 92.3793 145.55ZM327.882 147.553C327.768 149.178 327.731 150.803 327.768 152.428C332.493 153.902 336.537 156.737 340.883 159.08C340.43 157.304 339.976 155.528 339.674 153.751C335.97 151.332 331.964 149.329 327.919 147.591L327.882 147.553ZM89.6959 156.586C88.9022 158.627 87.9951 161.008 88.9022 163.124C90.7919 166.186 93.2486 168.794 95.4408 171.628C97.1793 172.876 97.3305 169.965 97.8597 168.907C98.6912 167.093 96.877 165.883 95.8187 164.674C93.362 162.293 91.8124 159.231 89.6959 156.548V156.586ZM331.094 157.757C330.679 158.74 330.263 159.685 329.809 160.668C330.716 161.915 331.586 163.276 333.097 163.88C336.575 165.657 339.447 168.378 342.849 170.306C343.302 163.389 336.234 160.365 331.094 157.795V157.757ZM87.0124 167.622C86.9746 169.512 86.5211 171.477 87.088 173.329C89.1667 176.957 92.3038 179.792 95.3274 182.589C96.3478 181.228 97.8219 179.641 96.8014 177.865C95.6675 176.466 94.3069 175.219 93.0597 173.934C90.9431 171.931 89.6959 169.058 86.9746 167.622H87.0124ZM331.321 171.175C335.176 174.879 339.56 177.978 343.718 181.342C343.567 179.187 343.794 176.806 342.395 174.954C340.052 171.742 336.461 169.928 333.211 167.849C332.606 168.945 331.964 170.079 331.321 171.175ZM333.853 177.902C333.286 179.452 332.719 181.002 332.228 182.551C336.537 185.046 339.371 189.279 343.642 191.811C343.529 189.543 343.869 187.011 342.395 185.121C340.09 182.135 336.764 180.208 333.853 177.902ZM85.8408 178.734C85.9919 180.775 85.614 183.005 86.7856 184.819C88.9022 188.183 92.3793 190.337 95.5541 192.605C96.2723 191.395 97.4817 190.224 97.066 188.674C97.1038 187.313 95.403 187.011 94.6093 186.18C91.4345 183.95 89.3179 180.472 85.803 178.696L85.8408 178.734ZM333.551 188.296C333.135 190.11 331.586 192.378 333.627 193.739C336.839 196.573 338.729 200.693 342.471 202.885C342.508 200.995 343.038 199.03 342.357 197.216C340.241 193.55 337.217 190.375 333.513 188.296H333.551ZM85.9541 189.846C84.9715 196.271 91.3967 199.861 96.1589 202.469C98.1242 201.827 98.6156 199.106 96.8392 197.972C93.362 195.061 89.6959 192.416 85.9541 189.846ZM332.228 204.283C335.403 207.231 337.028 211.729 340.845 213.959C342.017 207.723 337.708 202.658 333.211 199.03C331.964 200.391 330.414 202.734 332.228 204.283ZM86.7856 200.957C87.1636 202.809 87.5793 204.624 87.9195 206.476C91.0187 208.894 94.3447 211.049 98.0108 212.523C101.375 211.578 98.9179 207.987 96.8392 207.118C93.362 205.266 90.414 202.583 86.8234 200.957H86.7856ZM331.737 208.668C330.868 210.066 329.053 211.351 329.658 213.203C331.964 217.172 334.874 220.762 336.99 224.882C337.557 223.294 338.313 221.745 338.502 220.082C337.331 215.735 334.231 212.296 331.737 208.668ZM89.7337 212.145C89.6203 213.694 89.5069 215.282 89.4313 216.831C93.3998 219.175 97.4439 222.841 102.395 222.123C102.055 220.838 101.715 219.591 101.375 218.306C97.3683 216.454 93.4376 214.488 89.7337 212.145ZM327.164 224.088C329.469 227.792 331.661 231.572 332.871 235.843C333.589 233.953 335.252 232.214 335.214 230.135C333.551 226.167 331.434 222.387 329.431 218.608C328.071 220.044 325.916 221.858 327.164 224.088ZM92.1526 222.539C92.3793 224.353 92.4549 226.318 93.5888 227.83C97.2927 229.984 101.223 231.836 105.457 232.706C105.041 231.043 105.986 228.397 103.982 227.603C99.8628 226.318 95.9321 224.542 92.1148 222.539H92.1526ZM323.119 232.819C324.669 237.014 326.559 241.134 328.486 245.178C329.28 243.364 331.132 241.587 330.565 239.471C329.582 235.843 327.995 232.328 325.803 229.266C323.724 228.435 323.573 231.458 323.119 232.819ZM95.7809 233.424C96.1211 235.011 96.5368 236.598 96.9904 238.148C101.261 239.811 105.57 241.436 110.105 242.079C109.992 240.907 109.841 239.773 109.69 238.639C108.631 237.279 106.855 236.976 105.305 236.523C102.017 235.767 99.0313 234.217 95.7809 233.424ZM318.773 242.759C320.096 246.992 321.381 251.225 322.742 255.458C327.504 250.356 324.064 243.175 321.154 238.035C320.02 239.395 317.979 240.718 318.773 242.759ZM100.316 243.099C100.845 244.724 101.186 246.501 102.282 247.899C106.515 250.091 111.277 250.469 115.926 250.961C115.17 249.298 114.792 247.257 113.318 246.047C108.858 245.707 104.512 244.573 100.316 243.137V243.099ZM312.953 249.865C314.275 254.74 315.334 259.654 316.241 264.605C317.412 263.055 319.038 261.581 319.453 259.616C318.886 255.345 318.244 250.998 316.203 247.143C315.107 248.05 314.011 248.957 312.953 249.865ZM105.797 253.077C106.553 254.589 107.044 256.365 108.329 257.575C112.373 258.935 116.644 259.162 120.801 259.88C120.877 258.52 120.99 257.121 121.104 255.761C116.039 254.702 110.899 254.06 105.797 253.115V253.077ZM307.359 257.197C306.981 262.488 308.946 267.591 308.682 272.882C309.929 271.294 312.272 270.123 312.234 267.855C312.688 263.735 311.516 259.729 311.025 255.685C309.816 256.176 308.568 256.706 307.359 257.159V257.197ZM112.184 262.564C113.167 264.151 114.301 265.663 115.812 266.797C120.045 267.364 124.354 267.024 128.587 266.872C128.134 265.701 127.68 264.567 127.264 263.395C122.162 263.811 117.249 261.921 112.184 262.564ZM300.14 268.8C300.934 272.617 301.652 276.548 300.518 280.365C302.105 279.458 304.071 278.816 304.6 276.85C305.129 273.638 304.902 270.312 304.789 267.061C304.827 265.701 303.919 264.605 303.088 263.622C301.727 265.058 299.497 266.457 300.14 268.8ZM118.798 270.728C120.234 272.239 121.595 273.827 123.22 275.15C127.491 275.981 131.8 275.036 135.995 274.129C135.504 272.995 135.05 271.861 134.597 270.69C129.305 270.614 124.052 270.576 118.798 270.728ZM294.924 271.71C294.244 272.428 293.564 273.109 292.883 273.789C292.808 278.476 292.732 283.2 291.938 287.849C293.564 286.942 295.227 285.883 296.209 284.22C297.57 280.139 297.645 275.83 297.494 271.597C296.852 271.635 295.567 271.71 294.962 271.71H294.924ZM127.189 279.269C128.776 280.517 129.872 282.898 132.178 282.746C136.033 282.671 139.812 281.726 143.554 280.932C143.176 279.307 142.723 276.397 140.417 277.153C135.995 277.795 131.573 278.4 127.227 279.269H127.189ZM284.568 279.912C285.06 284.296 282.754 288.68 284.266 292.913C285.249 292.46 286.269 292.044 287.252 291.628C288.499 287.131 289.557 282.444 289.028 277.757C287.516 278.438 286.042 279.156 284.568 279.912ZM253.387 281.802C250.137 284.787 247.378 288.302 245.375 292.309C246.508 292.876 247.642 293.443 248.776 294.009C252.291 290.343 255.088 286.072 258.149 281.991C256.524 281.877 254.937 281.839 253.349 281.802H253.387ZM264.726 282.369C260.417 283.994 257.696 287.924 254.521 291.024C256.6 291.591 259.51 292.989 261.097 290.797C263.781 287.887 266.842 285.392 270.017 282.973C268.279 282.746 266.427 281.386 264.688 282.369H264.726ZM135.504 285.694C136.638 287.433 138.225 289.209 140.455 289.209C144.612 289.361 148.543 287.773 152.323 286.224C151.907 285.279 151.529 284.372 151.113 283.427C145.822 283.654 140.795 285.506 135.504 285.694ZM163.057 295.408C164.719 295.521 166.345 295.559 168.008 295.559C170.086 291.137 173.526 287.66 176.02 283.502C168.99 282.671 165.551 290.117 163.057 295.408ZM172.165 292.12C173.677 293.556 176.512 294.69 178.023 292.649C180.782 289.663 183.995 287.206 187.094 284.598C185.507 284.069 183.919 283.351 182.181 283.54C178.175 285.543 175.151 288.907 172.165 292.157V292.12ZM241.519 284.863C238.912 288.151 237.4 292.12 235.472 295.786C237.249 296.617 239.101 296.239 240.839 295.559C242.2 291.213 244.845 287.509 247.038 283.578C245.148 283.691 243.031 283.465 241.519 284.901V284.863ZM275.762 285.354C277.16 286.375 278.597 287.357 279.957 288.416C280.373 287.055 280.751 285.657 281.091 284.258C279.277 284.485 277.501 284.863 275.724 285.354H275.762ZM192.008 286.224C188.039 287.811 184.638 290.419 181.425 293.178C183.088 293.783 184.675 294.728 186.49 294.728C190.382 292.309 194.011 289.474 198.093 287.357C196.165 286.753 194.086 285.317 192.008 286.224ZM229.425 288.529C227.724 291.628 226.099 294.765 225.003 298.167C226.326 298.243 227.686 298.28 229.009 298.318C231.995 294.198 233.847 289.398 236.682 285.203C233.998 285.392 230.861 285.921 229.425 288.529ZM159.201 287.546C157.009 291.553 155.497 295.975 154.931 300.51C156.518 300.132 158.068 299.717 159.579 299.225C160.675 294.69 162.263 290.23 164.493 286.148C162.679 286.375 160.751 286.488 159.164 287.584L159.201 287.546ZM202.931 287.849C199.151 289.701 195.107 291.591 192.537 295.068C194.427 295.672 196.808 297.676 198.319 295.37C200.776 292.46 204.669 291.893 207.617 289.739C207.693 289.436 207.844 288.831 207.957 288.529C206.37 287.962 204.594 286.715 202.968 287.887L202.931 287.849ZM220.203 290.381C217.671 293.707 216.121 297.638 214.156 301.266C215.932 302.098 217.897 302.173 219.485 300.85C221.601 296.882 223.491 292.8 225.834 288.983C223.907 289.172 221.79 289.058 220.203 290.419V290.381ZM267.107 290.268C266.238 295.106 264.234 299.565 262.912 304.252C265.368 303.383 268.241 302.324 269.11 299.603C270.168 296.277 271.907 292.762 270.962 289.209C269.677 289.55 268.392 289.928 267.069 290.23L267.107 290.268ZM149.261 293.405C147.712 297.6 149.186 302.06 150.093 306.217C151.151 305.726 152.36 305.424 153.23 304.592C153.608 299.565 153.494 294.501 153.079 289.474C151.642 290.57 149.866 291.515 149.299 293.367L149.261 293.405ZM275.497 289.512C274.893 294.198 275.686 298.998 274.439 303.609C275.119 304.29 275.8 304.97 276.48 305.65C277.009 305.688 278.105 305.764 278.634 305.764C279.353 301.946 280.638 297.94 279.542 294.047C278.975 291.931 277.198 290.608 275.46 289.474L275.497 289.512ZM210.905 293.102C208.524 296.882 207.239 301.191 206.634 305.613C207.957 305.65 209.28 305.726 210.603 305.802C212.455 301.153 213.891 296.353 215.365 291.591C213.853 291.969 212.266 292.233 210.905 293.102ZM201.721 296.882C199.227 300.283 197.034 304.101 196.392 308.372C197.715 308.409 199.038 308.485 200.398 308.523C202.628 304.139 204.782 299.679 207.353 295.446C205.425 295.635 203.271 295.483 201.721 296.882ZM257.016 296.693C255.693 300.586 253.879 304.252 252.064 307.918C258.641 307.54 260.379 300.435 262.345 295.408C260.568 295.786 258.792 296.239 257.016 296.693ZM141.475 303.685C142.571 307.313 144.234 310.753 146.275 313.965C147.182 313.55 148.09 313.134 148.997 312.718C148.694 307.049 144.537 302.589 143.554 297.071C142.382 299.074 140.833 301.228 141.513 303.685H141.475ZM248.512 297.411C246.282 301.909 244.127 306.444 240.953 310.375C242.464 310.337 243.976 310.337 245.488 310.299C248.965 306.822 251.573 302.476 252.442 297.6C251.119 297.524 249.834 297.449 248.512 297.411ZM285.06 297.071C284.039 300.472 282.943 303.874 280.94 306.86C279.579 308.523 279.844 310.753 279.693 312.756C280.6 313.172 281.507 313.55 282.376 313.965C284.115 310.602 285.816 307.238 287.176 303.685C287.932 301.228 286.156 299.074 285.06 297.071ZM172.203 298.62C168.537 300.435 165.513 303.194 162.187 305.575C163.775 306.406 165.362 307.313 167.101 307.805C170.653 304.63 174.584 302.022 178.704 299.717C176.625 299.074 174.357 297.713 172.165 298.62H172.203ZM181.992 300.17C178.666 302.665 175.68 305.764 173.488 309.317C175.075 309.506 177.079 311.244 178.439 309.732C181.69 306.633 184.789 303.458 187.888 300.208C185.96 299.49 183.768 298.583 181.992 300.17ZM184.373 310.261C186.187 310.337 188.039 310.337 189.891 310.375C191.479 307.162 193.519 304.176 195.182 301.002C194.502 300.283 193.822 299.603 193.104 298.923C189.286 301.946 186.716 306.066 184.411 310.299L184.373 310.261ZM219.22 307.805C220.657 308.334 222.131 308.901 223.642 309.317C227.951 307.88 231.277 304.668 234.981 302.173C234.603 301.644 233.771 300.624 233.356 300.132C228.253 301.909 223.491 304.479 219.22 307.843V307.805ZM238.609 300.132C238.458 301.266 238.269 302.4 238.005 303.534C235.472 306.633 232.373 309.203 229.652 312.151C231.579 312.151 233.469 312.151 235.397 312.151C238.42 308.712 241.255 304.857 242.351 300.283C241.104 300.208 239.857 300.132 238.609 300.057V300.132ZM153.834 309.128C152.701 311.546 152.096 314.23 150.131 316.157C150.924 318.841 150.055 321.449 149.223 323.981C149.866 325.871 150.66 327.723 151.416 329.613C156.82 328.063 162.263 326.362 167.894 325.833C170.313 325.455 172.619 323.906 175.113 324.624C177.721 325.228 180.291 324.094 182.899 324.283C185.96 324.057 188.644 326.022 191.705 325.871C194.427 325.833 196.845 327.005 199.113 328.403C205.576 329.008 210.036 334.148 215.29 337.361C217.293 335.509 219.447 333.732 222.093 332.976C226.023 332.069 229.576 329.839 233.696 329.764C236.833 329.688 239.516 327.269 242.767 328.101C247.227 329.197 252.064 328.176 256.297 330.255C262.42 330.293 268.014 333.392 274.175 333.543C278.257 332.183 278.143 327.42 279.239 323.981C278.634 321.411 278.03 318.841 277.765 316.195C276.896 313.814 275.8 311.471 274.742 309.128C273.305 307.767 271.907 306.331 270.773 304.706C267.787 306.595 264.499 307.691 260.984 307.918C258.603 310.186 255.466 311.244 252.178 311.282C249.872 311.169 248.171 312.794 246.244 313.701C243.56 314.457 240.612 313.55 238.042 314.721C234.301 316.573 229.614 316.46 225.986 314.381C222.508 313.02 218.805 312.113 215.705 309.846C212.795 309.808 209.847 309.581 206.937 309.43C203.8 309.052 201.834 312.907 198.66 312.227C196.77 312.416 194.54 310.526 192.953 312.076C190.194 315.061 184.978 314.948 182.068 312.227C180.102 313.209 178.023 314.532 175.718 314.079C173.639 313.512 172.052 311.924 170.502 310.488C167.554 311.584 164.115 311.433 161.431 309.694C159.882 308.258 159.164 306.217 158.143 304.441C156.896 306.142 155.422 307.691 153.834 309.128ZM136.675 307.276C136.713 309.392 136.373 311.584 137.016 313.625C139.397 316.687 141.438 320.504 145.293 321.902C145.897 320.769 146.502 319.635 147.107 318.501C143.29 315.061 140.757 310.488 136.675 307.276ZM281.431 318.425C281.998 319.446 282.527 320.466 283.094 321.487C283.623 321.449 284.644 321.411 285.135 321.373C287.516 318.992 289.633 316.346 291.598 313.625C292.165 311.546 291.863 309.354 291.901 307.238C288.008 310.564 285.097 314.835 281.431 318.387V318.425ZM134.861 318.539C134.823 320.353 134.823 322.205 134.823 324.019C137.696 326.816 141.173 328.857 144.726 330.709C145.444 329.953 146.162 329.197 146.918 328.441C146.086 327.307 145.482 325.833 144.121 325.228C140.795 323.376 137.809 320.995 134.861 318.539ZM283.926 325.569C281.96 326.816 281.091 329.424 283.094 331.087C286.912 329.159 290.653 327.005 293.753 324.057C293.753 322.243 293.753 320.391 293.715 318.576C290.616 321.146 287.441 323.679 283.888 325.569H283.926ZM179.573 328.139C176.096 330.784 173.677 334.488 171.523 338.23C172.997 338.646 174.508 338.948 176.02 339.213C178.817 335.017 182.483 331.54 185.998 327.912C183.844 327.874 181.69 327.723 179.573 328.139ZM170.2 328.97C167.63 332.334 165.286 335.849 163.51 339.704C164.531 340.157 165.551 340.573 166.571 341.065C170.691 338.003 172.316 332.712 175.68 328.857C173.866 328.894 172.014 328.932 170.2 328.932V328.97ZM159.957 331.918C158.483 335.811 157.274 339.78 155.913 343.71C157.425 343.748 158.975 343.748 160.486 343.748C162.149 338.986 163.699 334.186 165.589 329.499C163.661 330.217 161.809 331.087 159.919 331.918H159.957ZM189.702 330.104C185.734 331.88 182.597 335.017 179.686 338.192C181.803 338.835 184.562 339.855 186.338 337.965C189.4 335.395 192.915 333.203 195.523 330.142C193.595 330.066 191.63 329.688 189.702 330.142V330.104ZM135.39 331.389C136.108 333.165 136.978 334.904 137.847 336.643C138.905 335.471 139.926 334.299 140.871 333.052C139.057 332.409 137.242 331.805 135.39 331.427V331.389ZM238.874 332.561C242.011 335.584 244.581 339.099 247.113 342.614C248.927 342.954 250.779 342.69 252.594 342.652C250.25 338.872 247.642 335.017 244.014 332.296C242.464 331.049 240.461 332.183 238.836 332.561H238.874ZM281.809 333.619C280.26 333.468 279.201 334.639 278.068 335.471C278.068 336.151 278.105 337.55 278.143 338.268C282.414 338.381 286.836 338.003 290.691 336.076C292.09 334.98 292.43 333.052 293.186 331.54C289.406 332.258 285.702 333.506 281.809 333.657V333.619ZM151.718 333.581C150.055 337.852 148.732 342.198 147.976 346.734C149.866 346.507 152.247 346.318 153.003 344.239C153.948 340.233 154.968 336.265 156.253 332.372C154.704 332.712 153.192 333.165 151.718 333.619V333.581ZM197.412 333.165C194.313 334.942 191.479 337.134 188.682 339.326C188.606 339.628 188.417 340.271 188.342 340.573C190.118 341.178 192.499 342.954 194.086 341.14C197.186 338.192 200.89 336 204.442 333.657C202.175 333.128 199.567 331.691 197.375 333.165H197.412ZM247.945 332.863C251.119 336.416 253.538 340.535 256.071 344.58C257.696 344.58 259.283 344.542 260.871 344.466C258.981 340.044 256.297 335.962 252.858 332.636C251.233 332.674 249.57 332.75 247.945 332.901V332.863ZM142.534 337.55C141.891 341.405 142.269 345.335 142.345 349.228C142.949 349.191 144.197 349.153 144.801 349.115C145.368 348.51 145.935 347.868 146.502 347.263C145.179 342.614 146.88 337.965 147.031 333.279C145.179 334.261 142.987 335.206 142.534 337.512V337.55ZM227.913 334.639C231.39 336.983 234.792 339.515 237.664 342.576C239.176 344.58 242.011 343.559 243.485 342.085C240.499 338.91 237.551 335.471 233.582 333.581C231.655 333.694 229.803 334.299 227.913 334.639ZM258.641 334.186C260.304 337.89 261.589 341.745 262.609 345.676C263.819 344.655 265.179 343.824 266.275 342.652C266.162 340.46 264.953 338.532 263.894 336.643C262.798 334.866 260.455 334.791 258.679 334.186H258.641ZM194.918 342.085C194.427 344.844 198.206 345.109 199.945 344.277C203.497 342.047 207.277 340.309 211.019 338.419C209.356 337.663 207.617 337.02 205.954 336.302C202.326 338.343 198.395 339.78 194.918 342.085ZM220.165 337.965C222.508 339.78 224.965 341.82 228.064 341.972C230.634 342.123 232.562 343.975 234.376 345.638C234.679 345.222 235.245 344.428 235.51 344.05C232.373 340.8 228.594 338.343 224.587 336.34C223.113 336.907 221.639 337.436 220.127 338.003L220.165 337.965ZM267.674 336C268.052 338.041 268.543 340.044 268.997 342.085C270.244 340.838 271.491 339.628 272.738 338.381C271.075 337.55 269.375 336.718 267.674 336.038V336ZM134.786 345.638C135.126 349.417 135.882 353.197 136.827 356.901C138.074 356.409 139.321 355.918 140.568 355.465C139.964 350.513 139.737 345.487 138.414 340.687C137.167 342.274 134.597 343.37 134.786 345.676V345.638ZM275.346 341.556C273.192 341.518 272.436 343.635 272.02 345.411C277.009 345.487 282.225 346.356 287.025 344.617C287.479 343.408 287.97 342.198 288.423 340.989C284.19 342.35 279.693 341.934 275.346 341.556ZM171.069 342.954C168.915 343.559 166.912 344.655 164.795 345.449C168.575 346.923 173.186 345.902 176.209 349.191C177.268 347.074 179.346 344.995 181.916 345.562C184.562 346.054 187.208 346.658 189.74 345.335C187.737 343.861 185.545 343.143 183.088 343.483C179.308 341.518 175.151 342.841 171.107 342.954H171.069ZM214.949 341.783C216.197 345.902 218.011 349.871 220.203 353.575C221.753 354.898 223.869 354.746 225.797 354.898C223.453 351.269 221.601 347.376 220.392 343.181C219.636 340.951 216.726 342.198 214.987 341.783H214.949ZM207.995 343.975C206.37 347.603 205.085 351.383 202.817 354.671C204.102 354.709 205.387 354.784 206.672 354.822C209.318 352.252 210.792 348.85 212.455 345.638C212.077 344.806 211.699 343.937 211.321 343.068C210.225 343.408 209.091 343.71 207.995 344.013V343.975ZM225.041 345.713C226.212 350.249 228.027 354.709 230.975 358.413C232.486 358.45 233.998 358.45 235.548 358.488C232.486 354.633 231.466 349.72 229.009 345.524C227.686 345.562 226.364 345.638 225.041 345.713ZM251.46 346.696C250.439 347.83 252.329 349.871 253.463 348.699C254.634 347.565 252.594 345.676 251.46 346.696ZM264.575 349.909C268.468 351.685 272.625 353.121 276.896 353.461C278.748 352.743 280.486 351.723 282.187 350.702C277.803 349.757 273.419 348.737 269.299 346.885C266.994 345.487 265.746 348.472 264.575 349.909ZM129.003 352.517C129.343 356.296 130.175 360.038 131.535 363.591C133.009 362.948 135.579 362.494 134.937 360.302C134.105 355.843 132.669 351.496 131.762 347.074C130.553 348.661 128.398 350.249 129.003 352.479V352.517ZM147.296 351.345C148.732 352.063 150.131 352.857 151.68 353.348C155.989 353.197 160.146 351.685 164.039 349.946C163.472 349.115 162.905 348.321 162.338 347.49C157.16 347.906 152.134 349.417 147.334 351.345H147.296ZM197.072 350.513C195.825 353.235 194.616 355.994 192.953 358.526C194.502 358.488 196.052 358.488 197.564 358.488C200.247 355.162 201.91 351.156 203.195 347.112C201.23 348.359 198.773 348.964 197.072 350.551V350.513ZM190.609 348.397C187.397 352.176 184.864 356.447 181.841 360.378C183.693 360.378 185.507 360.34 187.359 360.34C190.156 356.863 192.499 353.083 194.956 349.342C193.519 348.964 192.121 348.435 190.609 348.397ZM233.696 349.493C236.115 353.159 238.458 356.863 241.217 360.302C243.069 360.302 244.921 360.34 246.811 360.34C244.581 357.241 242.238 354.255 240.159 351.08C239.403 349.72 237.929 349.077 236.682 348.208C235.699 348.624 234.716 349.077 233.696 349.493ZM283.321 359.169C284.606 359.887 285.853 360.643 287.176 361.323C288.045 356.863 288.953 352.403 289.217 347.868C284.568 349.531 283.888 354.935 283.359 359.169H283.321ZM180.556 349.417C177.041 352.554 173.79 356.031 170.578 359.471C172.694 359.471 174.811 359.622 176.927 359.206C180.064 356.75 183.164 354.255 185.205 350.74C183.882 349.757 182.294 348.586 180.556 349.417ZM243.409 350.702C245.45 354.18 248.323 356.976 251.686 359.131C253.765 359.584 255.882 359.433 257.998 359.471C254.786 356.031 251.535 352.554 248.02 349.417C246.282 348.586 244.732 349.757 243.409 350.702ZM157.916 355.276C157.727 357.279 160.071 357.732 161.62 357.619C166.194 357.317 170.162 354.709 173.904 352.29C172.43 351.458 171.145 349.455 169.255 350.211C165.4 351.761 161.923 354.066 157.954 355.313L157.916 355.276ZM254.597 352.479C258.149 354.709 261.929 356.863 266.124 357.581C267.825 357.846 270.886 357.657 270.66 355.276C266.691 354.066 263.214 351.685 259.359 350.211C257.356 349.417 256.071 351.572 254.597 352.479ZM292.316 350.74C291.447 355.465 289.822 360.076 288.99 364.8C289.633 366.236 291.031 367.143 292.09 368.315C293.866 364.082 294.962 359.584 295.302 355.011C294.546 353.424 293.412 352.101 292.316 350.74ZM120.688 358.45C123.749 361.776 127 364.913 130.212 368.088C130.893 367.446 131.611 366.765 132.291 366.123C131.044 365.405 129.834 364.687 128.587 363.931C128.323 361.172 127.68 358.45 127.34 355.691C125.564 357.581 123.069 357.997 120.65 358.45H120.688ZM296.663 360.076C296.134 362.494 295.718 364.913 295.264 367.37C294.471 368.655 293.072 369.373 291.863 370.205C292.694 370.923 293.526 371.603 294.319 372.321C297.23 369.184 300.329 366.274 303.315 363.213C302.937 362.721 302.181 361.701 301.803 361.172C301.085 361.776 300.367 362.381 299.686 362.986C298.704 362.003 297.683 361.02 296.701 360.076H296.663ZM108.82 370.318C112.146 371.187 115.586 371.565 119.025 371.49C120.386 375.194 121.331 379.011 122.351 382.828C124.619 378.293 126.131 373.38 128.285 368.806C125.866 366.539 123.56 364.157 121.179 361.852C116.908 364.422 112.827 367.332 108.82 370.318ZM303.277 365.896C301.16 368.239 298.704 370.243 296.701 372.737C295.869 373.757 296.738 375.156 297.116 376.252C298.855 379.918 300.329 383.698 301.765 387.515C302.71 383.924 303.277 380.22 304.486 376.743C307.85 374.173 312.31 375.307 316.203 375.118C311.819 372.17 307.623 368.92 303.201 365.972L303.277 365.896ZM164.379 93.6189C166.005 97.0961 167.063 100.8 168.348 104.428C172.43 104.542 176.512 104.504 180.594 104.617C177.494 107.187 173.828 109.191 170.88 111.912C171.712 115.691 173.034 119.357 173.942 123.137C170.956 120.605 167.592 118.639 164.455 116.296C161.053 118.828 157.501 121.209 154.364 124.082C155.838 120.038 157.236 115.956 158.37 111.798C155.082 109.38 151.718 106.961 148.354 104.655C152.436 104.391 156.518 104.806 160.562 104.315C162.792 101.216 163.057 97.1339 164.379 93.6567V93.6189ZM264.575 94.4504C264.839 94.4126 265.406 94.3748 265.708 94.337C266.767 97.7386 267.825 101.14 269.072 104.504C273.154 104.58 277.236 104.504 281.318 104.655C277.916 106.998 274.59 109.38 271.264 111.798C272.285 115.578 273.759 119.244 274.59 123.099C271.34 120.983 268.241 118.602 265.142 116.296C262.042 118.602 258.943 120.983 255.731 123.099C256.562 119.244 258.036 115.616 259.094 111.836C255.768 109.38 252.442 106.998 249.041 104.655C253.236 104.504 257.394 104.542 261.589 104.542C262.609 101.178 263.479 97.8142 264.612 94.4882L264.575 94.4504ZM125.639 145.058C127.529 141.619 129.154 138.028 131.082 134.589C132.707 138.331 131.195 142.904 133.727 146.306C137.205 147.553 141.022 147.704 144.65 148.271C141.173 150.387 137.507 152.126 133.841 153.902C134.672 157.833 134.937 161.839 135.806 165.77C132.934 162.973 130.061 160.176 127.264 157.266C123.598 158.891 119.894 160.403 116.228 162.066C118.156 158.74 120.159 155.414 121.86 151.975C119.592 148.8 116.871 146.003 114.225 143.169C118.005 143.735 121.822 144.227 125.564 145.096L125.639 145.058ZM298.628 134.627C300.48 138.142 302.181 141.77 304.449 145.058C307.964 144.113 311.592 143.735 315.182 143.131C313.142 146.457 310.534 149.367 307.661 151.937C309.853 155.112 311.705 158.513 313.255 162.066C309.702 160.517 306.225 158.778 302.823 156.926C299.875 159.798 296.852 162.633 294.131 165.732C294.773 161.802 295.302 157.833 295.831 153.902C292.165 152.164 288.461 150.463 285.022 148.309C288.877 147.931 292.657 147.061 296.512 146.797C297.532 142.791 297.57 138.633 298.628 134.665V134.627ZM122.994 203.263C126.131 201.184 128.323 197.934 131.308 195.628C131.082 199.37 130.175 203.036 130.137 206.816C133.614 208.743 137.242 210.444 140.795 212.22C136.713 213.014 132.631 213.581 128.587 214.488C128.549 218.608 127.491 222.614 127.189 226.696C125.45 222.992 123.447 219.364 121.822 215.622C117.816 216.34 113.771 216.794 109.841 217.852C112.449 214.828 114.943 211.729 117.627 208.743C116.342 205.191 113.696 202.28 112.411 198.652C115.926 200.202 119.29 202.167 122.994 203.301V203.263ZM298.326 195.591C301.312 198.047 303.655 201.184 306.792 203.49C310.42 202.205 313.671 200.126 317.186 198.614C315.938 202.167 313.482 205.228 312.159 208.706C314.275 212.031 317.828 214.299 319.869 217.776C315.976 216.945 312.045 216.076 308.039 216.189C305.923 219.591 304.033 223.143 302.37 226.772C302.332 222.652 301.274 218.608 301.009 214.526C296.965 213.619 292.921 212.674 288.801 212.183C292.505 210.444 296.134 208.479 299.875 206.816C299.271 203.074 298.855 199.332 298.288 195.591H298.326ZM152.852 251.49C154.779 248.277 156.745 245.027 158.71 241.814C158.937 245.858 159.995 249.751 159.995 253.833C163.85 254.513 167.63 255.572 171.409 256.554C167.932 258.142 164.342 259.502 160.751 260.863C160.713 264.831 160.6 268.8 160.789 272.769C158.597 269.896 156.027 267.326 153.91 264.416C149.828 264.529 146.124 267.288 142.118 268.233C144.461 264.983 146.351 261.468 148.619 258.18C145.595 255.231 143.403 251.565 140.19 248.806C144.348 249.827 148.468 251.15 152.776 251.565L152.852 251.49ZM270.924 241.814C272.89 245.027 275.195 248.013 276.745 251.49C281.091 251.112 285.286 249.751 289.482 248.693C286.194 251.452 284.001 255.194 280.978 258.142C283.434 261.279 285.286 264.831 287.441 268.157C283.623 266.91 279.995 265.247 276.216 263.924C274.023 267.061 271.189 269.745 269.034 272.92C268.959 268.876 268.997 264.869 268.959 260.825C265.331 259.502 261.74 258.104 258.263 256.479C262.08 255.572 265.822 254.438 269.677 253.833C269.828 249.789 271 245.858 270.924 241.776V241.814Z" fill="#FEFEFE"/>
</svg>
