<?xml version="1.0" encoding="UTF-8"?>
<!DOCTYPE svg PUBLIC "-//W3C//DTD SVG 1.1//EN" "http://www.w3.org/Graphics/SVG/1.1/DTD/svg11.dtd">
<!-- Creator: CorelDRAW X5 -->
<svg xmlns="http://www.w3.org/2000/svg" xml:space="preserve" width="128.778mm" height="83.82mm" style="shape-rendering:geometricPrecision; text-rendering:geometricPrecision; image-rendering:optimizeQuality; fill-rule:evenodd; clip-rule:evenodd"
viewBox="0 0 12878 8382"
 xmlns:xlink="http://www.w3.org/1999/xlink"
 xmlns:svg="http://www.w3.org/2000/svg">
 <defs>
  <style type="text/css">
   <![CDATA[
    .fil0 {fill:#047640}
    .fil1 {fill:#047640;fill-rule:nonzero}
   ]]>
  </style>
 </defs>
 <g id="Layer_x0020_1">
  <metadata id="CorelCorpID_0Corel-Layer"/>
 </g>
 <g id="Layer_x0020_1_0">
  <metadata id="CorelCorpID_1Corel-Layer"/>
  <path class="fil0" d="M5851 5929c7,21 10,48 8,78 -7,79 -5,93 28,127 -87,23 -137,-35 -129,-135 1,-18 3,-32 3,-44 20,-2 38,-10 55,-24l0 0c3,-3 6,-6 10,-9 8,4 17,7 26,8z"/>
  <path class="fil0" d="M5731 5953c0,2 -1,5 -1,7 -13,78 -12,93 18,129 -71,13 -114,-24 -120,-91 15,1 29,-1 42,-5 21,-7 40,-21 54,-41l1 -1c2,1 5,1 7,1z"/>
  <path class="fil0" d="M5498 5751c19,-2 36,-1 50,4 -11,10 -21,22 -30,37l0 1c-2,-14 -9,-26 -20,-42z"/>
  <path class="fil0" d="M5383 5682c80,-5 118,47 107,127 -5,1 -10,2 -15,4 -21,7 -40,21 -54,41 -9,13 -16,29 -21,48l-2 9c-5,1 -9,2 -14,4 -10,-27 -9,-61 2,-101 22,-76 23,-91 -3,-130z"/>
  <path class="fil0" d="M5279 5602c90,1 122,71 87,165 -28,74 -30,89 -7,130 -90,-1 -122,-71 -87,-165 28,-74 30,-89 7,-130z"/>
  <path class="fil0" d="M5180 5516c89,8 117,80 74,171 -33,72 -36,86 -17,129 -89,-8 -117,-80 -74,-171 33,-72 36,-86 17,-129z"/>
  <path class="fil0" d="M5087 5424c89,15 110,89 61,177 -39,69 -43,83 -27,127 -89,-15 -110,-89 -61,-177 39,-69 43,-83 27,-127z"/>
  <path class="fil0" d="M4995 5325c88,18 107,93 54,179 -41,67 -46,81 -32,126 -88,-18 -107,-93 -54,-179 41,-67 46,-81 32,-126z"/>
  <path class="fil0" d="M4915 5221c86,25 99,101 40,182 -46,64 -52,78 -42,123 -86,-25 -99,-101 -40,-182 46,-64 52,-78 42,-123z"/>
  <path class="fil0" d="M4843 5111c84,31 91,108 26,185 -51,60 -58,73 -51,120 -84,-31 -91,-108 -26,-185 51,-60 58,-73 51,-120z"/>
  <path class="fil0" d="M4779 4997c82,38 83,114 12,186 -55,56 -63,69 -60,116 -81,-38 -83,-114 -12,-186 55,-56 63,-69 60,-116z"/>
  <path class="fil0" d="M4716 4877c80,41 78,117 5,187 -58,54 -66,66 -64,113 -80,-41 -79,-117 -5,-187 57,-54 66,-66 64,-113z"/>
  <path class="fil0" d="M4668 4755c77,47 69,123 -9,186 -61,50 -71,61 -73,108 -77,-47 -69,-123 9,-186 61,-50 71,-61 73,-108z"/>
  <path class="fil0" d="M4629 4630c73,52 60,128 -24,185 -65,45 -75,56 -81,102 -73,-52 -60,-128 24,-185 65,-45 75,-56 81,-102z"/>
  <path class="fil0" d="M4597 4503c69,58 49,132 -38,183 -68,39 -79,50 -88,95 -69,-58 -49,-132 38,-183 68,-39 79,-50 88,-95z"/>
  <path class="fil0" d="M4570 4371c66,60 44,134 -45,181 -70,37 -81,46 -92,92 -66,-60 -44,-134 45,-181 70,-37 81,-46 92,-92z"/>
  <path class="fil0" d="M4557 4240c61,65 34,137 -59,177 -73,31 -85,40 -99,85 -61,-65 -34,-137 59,-177 73,-31 85,-40 99,-85z"/>
  <path class="fil0" d="M4553 4109c56,70 23,139 -73,172 -75,25 -87,33 -105,76 -56,-70 -23,-139 73,-172 75,-25 87,-33 105,-76z"/>
  <path class="fil0" d="M4552 3975c53,72 17,140 -79,169 -76,22 -89,30 -108,72 -53,-72 -17,-140 79,-169 76,-22 89,-30 108,-72z"/>
  <path class="fil0" d="M4568 3846c46,77 4,141 -95,161 -77,15 -91,21 -115,62 -46,-77 -4,-141 95,-161 77,-15 91,-21 114,-62z"/>
  <path class="fil0" d="M4588 3714c42,79 -3,141 -103,156 -78,11 -92,17 -117,56 -42,-79 3,-141 103,-156 78,-11 92,-17 117,-56z"/>
  <path class="fil0" d="M4620 3589c34,83 -17,140 -118,145 -79,4 -93,7 -122,44 -34,-83 17,-140 118,-145 79,-4 93,-7 122,-44z"/>
  <path class="fil0" d="M4658 3460c30,85 -24,139 -125,139 -79,0 -93,3 -124,38 -30,-85 24,-139 125,-139 79,0 93,-3 124,-38z"/>
  <path class="fil0" d="M4704 3334c26,86 -31,138 -131,133 -79,-4 -93,-2 -126,32 -26,-86 31,-138 131,-133 79,4 93,2 126,-32z"/>
  <path class="fil0" d="M4762 3218c18,88 -44,134 -144,119 -78,-12 -93,-11 -129,19 -18,-88 44,-134 144,-119 78,12 93,11 129,-19z"/>
  <path class="fil0" d="M4824 3100c13,89 -50,132 -149,112 -77,-16 -92,-15 -129,13 -13,-89 50,-132 149,-112 77,16 92,15 129,-13z"/>
  <path class="fil0" d="M4897 2993c5,90 -63,127 -159,97 -76,-23 -90,-24 -130,1 -5,-90 63,-127 159,-97 76,23 90,24 130,-1z"/>
  <path class="fil0" d="M4976 2884c1,90 -69,124 -164,90 -74,-26 -89,-28 -130,-5 -1,-90 69,-124 164,-90 74,26 89,28 130,5z"/>
  <path class="fil0" d="M5061 2781c-4,90 -74,120 -168,82 -73,-30 -88,-32 -130,-11 4,-90 74,-120 168,-82 73,30 88,32 130,11z"/>
  <path class="fil0" d="M5155 2691c-12,89 -85,113 -175,66 -70,-37 -84,-40 -128,-23 12,-89 85,-113 175,-66 70,37 84,40 128,23z"/>
  <path class="fil0" d="M5253 2600c-16,88 -90,108 -178,58 -68,-40 -82,-44 -127,-29 16,-88 90,-109 178,-58 68,40 82,44 127,29z"/>
  <path class="fil0" d="M5358 2523c-25,86 -100,100 -182,41 -64,-46 -78,-52 -123,-41 25,-86 100,-99 182,-41 64,46 78,52 123,41z"/>
  <path class="fil0" d="M5468 2447c-29,85 -105,95 -184,32 -62,-49 -75,-55 -121,-47 29,-85 105,-95 184,-32 62,49 75,55 121,47z"/>
  <path class="fil0" d="M5583 2378c-32,84 -109,90 -185,23 -60,-52 -73,-59 -119,-53 32,-84 109,-90 185,-23 59,52 73,59 119,53z"/>
  <path class="fil0" d="M5701 2325c-40,80 -117,79 -187,6 -54,-57 -67,-66 -113,-64 40,-80 117,-79 187,-6 54,57 67,66 113,64z"/>
  <path class="fil0" d="M5825 2272c-44,78 -121,73 -187,-3 -51,-60 -63,-69 -110,-69 44,-78 121,-73 187,3 51,60 63,69 110,69z"/>
  <path class="fil0" d="M5949 2235c-52,73 -127,61 -185,-21 -45,-65 -56,-75 -103,-79 52,-73 127,-61 185,21 45,65 56,75 103,79z"/>
  <path class="fil0" d="M6078 2201c-55,71 -130,55 -184,-30 -42,-67 -53,-77 -99,-84 55,-71 130,-55 184,30 42,67 53,77 99,84z"/>
  <path class="fil0" d="M6210 2174c-58,68 -133,48 -182,-39 -39,-69 -49,-80 -95,-89 58,-68 133,-48 182,39 39,69 49,80 95,89z"/>
  <path class="fil0" d="M6339 2165c-65,62 -137,35 -178,-57 -32,-72 -41,-84 -85,-98 65,-62 137,-35 178,57 32,72 41,84 85,98z"/>
  <path class="fil0" d="M6473 2157c-68,59 -138,28 -175,-66 -28,-74 -36,-86 -80,-102 68,-59 138,-28 175,66 28,74 36,86 80,102z"/>
  <path class="fil0" d="M6607 2158c-71,55 -140,21 -171,-75 -25,-75 -32,-88 -75,-106 71,-55 140,-21 171,75 25,75 32,88 75,106z"/>
  <path class="fil0" d="M6735 2175c-76,48 -141,7 -163,-91 -17,-77 -23,-91 -64,-113 76,-48 141,-7 163,91 17,77 23,91 64,113z"/>
  <path class="fil0" d="M6868 2195c-78,44 -141,0 -158,-99 -13,-78 -19,-92 -59,-116 78,-44 141,0 158,99 13,78 19,92 59,116z"/>
  <path class="fil0" d="M6993 2228c-82,36 -141,-14 -147,-114 -5,-79 -10,-93 -47,-121 82,-36 141,14 147,114 5,79 10,93 47,121z"/>
  <path class="fil0" d="M7121 2265c-84,32 -140,-21 -142,-122 -2,-79 -5,-93 -41,-123 84,-32 140,21 142,122 1,79 5,93 41,123z"/>
  <path class="fil0" d="M7247 2311c-85,28 -139,-27 -136,-128 2,-79 0,-93 -35,-125 85,-28 139,27 136,128 -2,79 0,93 35,125z"/>
  <path class="fil0" d="M7363 2370c-88,20 -135,-41 -122,-141 10,-78 9,-93 -22,-128 88,-20 135,41 122,141 -10,78 -9,93 22,128z"/>
  <path class="fil0" d="M7482 2433c-88,15 -133,-47 -116,-147 14,-78 13,-93 -16,-129 88,-15 133,47 116,147 -14,78 -13,93 16,129z"/>
  <path class="fil0" d="M7589 2506c-89,7 -128,-60 -101,-157 21,-76 22,-91 -4,-130 89,-7 128,60 101,157 -21,76 -22,91 4,130z"/>
  <path class="fil0" d="M7698 2584c-90,3 -125,-66 -94,-162 25,-75 26,-90 2,-130 90,-3 125,66 94,162 -25,75 -26,90 -2,130z"/>
  <path class="fil0" d="M7801 2670c-90,-2 -122,-71 -86,-166 28,-74 30,-88 8,-130 90,2 122,71 86,166 -28,74 -30,88 -8,130z"/>
  <path class="fil0" d="M7891 2764c-89,-10 -115,-83 -70,-173 35,-71 38,-85 21,-128 89,10 115,83 70,173 -35,71 -38,85 -21,128z"/>
  <path class="fil0" d="M7982 2863c-89,-14 -111,-88 -62,-176 38,-69 42,-83 27,-127 89,14 111,88 62,176 -38,69 -42,83 -27,127z"/>
  <path class="fil0" d="M8059 2968c-87,-23 -102,-98 -45,-181 45,-65 50,-79 38,-124 87,23 102,98 45,181 -45,65 -50,79 -38,124z"/>
  <path class="fil0" d="M8135 3078c-86,-27 -97,-103 -36,-183 48,-63 54,-76 44,-122 86,27 97,103 36,183 -48,63 -54,76 -44,122z"/>
  <path class="fil0" d="M8204 3193c-84,-31 -92,-107 -28,-185 51,-61 57,-74 50,-120 84,31 92,107 28,185 -51,61 -57,74 -50,120z"/>
  <path class="fil0" d="M8257 3312c-81,-38 -81,-115 -10,-186 56,-56 64,-68 61,-115 81,39 81,115 10,186 -56,56 -64,68 -61,115z"/>
  <path class="fil0" d="M8310 3436c-79,-42 -76,-119 -1,-187 59,-53 67,-65 67,-112 79,42 76,119 1,187 -59,53 -67,65 -67,112z"/>
  <path class="fil0" d="M8346 3561c-75,-50 -64,-126 17,-186 64,-47 73,-58 77,-105 75,50 64,126 -17,186 -64,47 -73,58 -77,105z"/>
  <path class="fil0" d="M8381 3690c-72,-53 -58,-129 26,-185 66,-44 76,-54 82,-101 72,53 58,129 -26,185 -66,44 -76,54 -82,101z"/>
  <path class="fil0" d="M8407 3822c-69,-57 -51,-132 35,-183 68,-40 79,-51 87,-97 69,57 51,132 -35,183 -68,40 -79,51 -87,97z"/>
  <path class="fil0" d="M8416 3951c-63,-63 -38,-136 53,-179 71,-34 83,-43 96,-88 63,63 38,136 -53,179 -71,34 -83,43 -96,88z"/>
  <path class="fil0" d="M8424 4085c-60,-67 -31,-138 62,-176 73,-30 85,-38 100,-83 60,67 31,138 -62,176 -73,30 -85,38 -100,83z"/>
  <path class="fil0" d="M8417 4215c-54,-72 -18,-140 78,-169 76,-23 88,-30 108,-73 54,72 18,140 -78,169 -76,23 -88,30 -108,73z"/>
  <path class="fil0" d="M8407 4350c-51,-74 -13,-141 85,-166 76,-20 90,-27 110,-69 51,74 13,141 -85,166 -76,20 -90,27 -110,69z"/>
  <path class="fil0" d="M8385 4480c-45,-77 -2,-141 97,-160 78,-14 91,-20 115,-60 45,77 2,141 -97,160 -78,14 -91,20 -115,60z"/>
  <path class="fil0" d="M8353 4608c-39,-81 8,-141 109,-152 78,-8 93,-13 119,-52 39,81 -8,141 -109,152 -78,8 -93,13 -119,52z"/>
  <path class="fil0" d="M8313 4734c-33,-83 19,-140 120,-143 79,-3 93,-6 123,-43 33,83 -19,140 -120,143 -79,3 -93,6 -123,43z"/>
  <path class="fil0" d="M8265 4856c-27,-86 29,-138 130,-134 79,3 94,1 126,-33 27,86 -29,138 -130,134 -79,-3 -94,-1 -126,33z"/>
  <path class="fil0" d="M8211 4980c-24,-86 34,-137 135,-129 79,6 93,4 127,-29 24,86 -34,137 -135,129 -79,-6 -93,-4 -127,29z"/>
  <path class="fil0" d="M8146 5095c-17,-88 44,-134 144,-119 78,12 93,11 129,-19 17,88 -44,134 -144,119 -78,-12 -93,-11 -129,19z"/>
  <path class="fil0" d="M8073 5206c-11,-89 54,-131 152,-108 77,18 92,18 130,-10 11,89 -54,131 -152,108 -77,-18 -92,-18 -130,10z"/>
  <path class="fil0" d="M7994 5311c-4,-90 63,-126 160,-97 76,23 90,24 130,0 4,90 -63,126 -160,97 -75,-23 -90,-24 -130,0z"/>
  <path class="fil0" d="M7907 5410c2,-90 72,-121 166,-85 74,29 88,31 130,9 -2,90 -72,121 -166,85 -74,-29 -88,-31 -130,-9z"/>
  <path class="fil0" d="M7814 5504c9,-89 81,-116 172,-73 71,34 86,37 129,19 -9,89 -81,116 -172,73 -71,-34 -86,-37 -129,-19z"/>
  <path class="fil0" d="M7715 5596c12,-89 85,-113 175,-66 70,36 84,40 128,23 -12,89 -85,113 -175,66 -70,-36 -84,-40 -128,-23z"/>
  <path class="fil0" d="M7609 5676c18,-88 93,-106 179,-53 67,42 81,46 126,33 -18,88 -93,106 -179,53 -67,-42 -81,-46 -126,-33z"/>
  <path class="fil0" d="M7498 5748c25,-86 101,-99 182,-40 64,46 78,52 123,42 -25,86 -101,99 -182,40 -64,-46 -78,-52 -123,-42z"/>
  <path class="fil0" d="M5923 5915c45,12 69,59 63,128 -6,73 -4,87 26,118 -80,22 -127,-32 -119,-126 5,-62 5,-81 -14,-105 14,-1 29,-6 43,-14l2 -1z"/>
  <path class="fil0" d="M5967 5939c76,-34 131,12 137,106 5,73 9,86 44,113 -76,34 -131,-12 -138,-106 -5,-73 -9,-86 -44,-113z"/>
  <path class="fil0" d="M6734 5725c65,-54 131,-24 163,65 25,70 33,82 74,97 -65,54 -131,24 -163,-65 -25,-70 -33,-82 -74,-97z"/>
  <path class="fil0" d="M6860 5689c70,-47 133,-11 156,81 18,72 25,85 64,104 -70,47 -133,11 -156,-81 -18,-72 -25,-85 -64,-104z"/>
  <path class="fil0" d="M6991 5665c76,-38 133,6 145,100 7,56 11,77 29,95 -4,3 -9,7 -13,10 -6,6 -12,12 -17,20 -50,0 -85,-42 -94,-114 -9,-74 -14,-87 -50,-112z"/>
  <path class="fil0" d="M7130 5656c81,-25 131,28 126,123 -1,31 -2,52 1,67 -14,-4 -29,-6 -43,-4 -14,1 -28,6 -40,13 -10,-21 -14,-48 -13,-80 3,-75 1,-88 -31,-119z"/>
  <path class="fil0" d="M7273 5672c75,-6 112,42 103,117 -14,-3 -28,-4 -41,-2 -22,3 -43,13 -60,31l-2 2c1,-8 3,-16 5,-24 19,-72 20,-86 -5,-123z"/>
  <path class="fil0" d="M7414 5720c9,2 17,4 24,7 -7,2 -13,5 -20,9 -1,-5 -3,-10 -5,-15z"/>
  <path class="fil0" d="M7588 5927c-8,19 -22,38 -42,57 -54,52 -62,64 -60,108 -31,-15 -50,-37 -56,-61 9,-9 17,-20 25,-33 14,3 27,4 40,2 22,-3 43,-13 60,-31 11,-11 21,-25 29,-42l4 0z"/>
  <path class="fil0" d="M7635 5921c64,56 45,127 -39,173 -66,36 -76,46 -86,89 -64,-56 -45,-127 39,-173 66,-36 76,-46 86,-89z"/>
  <path class="fil0" d="M7690 6045c55,65 26,132 -64,166 -71,26 -82,34 -98,76 -55,-65 -26,-132 65,-166 71,-26 82,-34 98,-76z"/>
  <path class="fil0" d="M7730 6184c40,76 -4,135 -99,148 -75,10 -88,15 -113,53 -40,-76 4,-135 99,-148 75,-10 88,-15 113,-53z"/>
  <path class="fil0" d="M7451 6813c-51,70 -124,57 -178,-23 -43,-63 -53,-73 -98,-78 51,-70 124,-57 178,23 43,63 53,73 98,78z"/>
  <path class="fil0" d="M7324 6884c-65,57 -133,29 -169,-62 -28,-71 -36,-83 -79,-98 65,-57 133,-29 169,62 28,71 36,83 79,98z"/>
  <path class="fil0" d="M7193 6919c-73,47 -136,9 -159,-86 -17,-74 -24,-87 -64,-109 73,-47 136,-9 159,86 17,74 24,87 64,109z"/>
  <path class="fil0" d="M7062 6933c-78,39 -137,-6 -148,-104 -9,-76 -14,-90 -51,-115 78,-39 137,7 148,104 9,76 14,90 51,115z"/>
  <path class="fil0" d="M6931 6931c-82,30 -135,-22 -136,-120 0,-77 -4,-91 -38,-120 82,-30 135,22 136,120 0,77 4,91 38,120z"/>
  <path class="fil0" d="M6799 6914c-85,20 -132,-38 -121,-136 4,-38 6,-60 3,-78 7,2 15,2 22,3 19,0 38,-5 56,-16 16,24 22,59 17,102 -9,76 -7,91 23,124zm-132 -262c23,-4 43,-1 59,7 -7,3 -15,4 -22,4 -12,0 -24,-4 -37,-11z"/>
  <path class="fil0" d="M6673 6881c-84,11 -125,-47 -109,-137 10,2 20,3 30,2 22,-2 43,-10 62,-27 4,-4 8,-7 12,-12 0,15 -2,30 -5,47 -17,75 -16,90 11,126zm-100 -177c5,-24 6,-40 4,-53 11,11 20,18 29,24 9,5 17,9 27,11 -1,1 -2,2 -3,3 -11,10 -24,16 -37,17 -6,0 -13,0 -19,-1zm19 -97c28,4 50,18 62,40 -11,-1 -19,-3 -26,-8 -10,-6 -21,-16 -36,-33z"/>
  <path class="fil0" d="M6553 6834c-39,2 -67,-10 -85,-33 5,0 9,0 14,0 19,-2 38,-9 54,-22 -1,20 4,34 17,55z"/>
  <path class="fil0" d="M6362 6580c7,-36 2,-51 -17,-79 38,-4 66,6 85,27 -15,4 -30,12 -43,24 -9,8 -17,18 -24,29z"/>
  <path class="fil0" d="M6318 6731c-33,-3 -58,-20 -71,-48l10 0c6,0 11,0 15,0 13,10 26,23 39,40l6 9zm-82 -107c0,-12 1,-25 4,-38 14,-76 13,-91 -16,-127 80,-14 124,38 116,123 -3,0 -6,0 -9,0 -22,2 -43,11 -61,28 -5,5 -10,11 -15,17 -6,-2 -12,-3 -19,-4zm98 0c-2,14 -4,26 -5,36 -3,-2 -5,-4 -8,-5 -9,-5 -17,-9 -27,-10 1,-1 2,-2 3,-3 11,-10 23,-16 36,-17z"/>
  <path class="fil0" d="M6249 6686c-17,4 -32,5 -46,3 -7,-4 -13,-8 -21,-10 1,-1 2,-2 4,-3 12,-9 25,-13 39,-13 2,0 4,0 7,0 4,7 10,14 18,22zm-102 -30c-18,-25 -25,-61 -20,-107 9,-77 7,-92 -24,-125 86,-21 134,38 123,136 -3,27 -5,47 -4,62 -21,1 -41,8 -59,21 -5,4 -10,8 -15,13z"/>
  <path class="fil0" d="M6148 6650c-83,31 -137,-21 -139,-121 -1,-78 -4,-92 -39,-122 83,-31 137,21 139,121 1,78 4,92 39,122z"/>
  <path class="fil0" d="M6047 6622c-77,44 -139,0 -156,-98 -13,-77 -19,-90 -58,-115 77,-44 139,0 156,98 13,77 19,90 58,115z"/>
  <path class="fil0" d="M5940 6612c-71,53 -139,18 -167,-78 -23,-75 -30,-88 -72,-107 71,-53 139,-18 167,78 23,75 30,88 72,107z"/>
  <path class="fil0" d="M5481 6803c-6,89 -78,118 -170,77 -72,-32 -87,-35 -129,-15 6,-89 78,-118 170,-77 72,32 87,35 129,15z"/>
  <path class="fil0" d="M5412 6886c3,78 -36,98 -86,101 -35,2 -77,0 -114,-6 -45,-8 -85,-31 -100,-26 6,-68 73,-98 169,-68 75,24 90,25 130,0z"/>
  <path class="fil0" d="M7014 5955c50,-75 126,-64 186,17 47,63 58,73 105,77 -50,75 -126,64 -186,-17 -47,-63 -58,-73 -105,-77z"/>
  <path class="fil0" d="M6896 5970c58,-69 132,-50 183,38 40,68 50,79 96,88 -58,69 -132,50 -183,-38 -40,-68 -50,-79 -96,-88z"/>
  <path class="fil0" d="M6778 5969c2,-1 3,-3 5,-4 18,2 36,-1 54,-9 9,-4 19,-10 28,-18 36,7 68,39 90,91 31,73 39,85 84,100 -66,61 -138,32 -177,-61 -31,-73 -39,-85 -84,-100z"/>
  <path class="fil0" d="M6795 5965c15,18 26,42 34,71 20,76 27,89 69,110 -74,51 -141,14 -167,-84 -7,-28 -13,-47 -19,-61 7,-2 14,-5 21,-9 13,-7 25,-17 37,-30l2 1c7,2 15,3 22,2z"/>
  <path class="fil0" d="M6700 6004c2,7 3,14 4,21 11,78 16,92 55,118 -76,40 -136,0 -153,-91 7,-2 14,-5 21,-9 13,-7 26,-18 38,-32l6 -7c10,1 19,1 29,0z"/>
  <path class="fil0" d="M6581 6057c2,31 10,45 33,67 -46,14 -83,4 -106,-25 13,-6 26,-15 39,-27l17 -16 1 0c5,1 11,1 16,1z"/>
  <path class="fil0" d="M6360 5795c39,-5 69,5 88,26 -12,2 -24,6 -35,12 -11,6 -21,14 -31,24 1,-25 -5,-40 -22,-63z"/>
  <path class="fil0" d="M6231 5741c82,-21 130,30 127,119 -15,-1 -30,2 -44,9l0 0c-13,6 -26,14 -39,26 -6,-2 -13,-4 -19,-5 0,-7 0,-15 1,-22 8,-79 6,-93 -26,-127z"/>
  <path class="fil0" d="M6090 5711c82,-36 140,15 147,115 2,29 3,49 7,64 -11,0 -22,2 -33,5 -13,4 -26,11 -39,20 -3,-1 -5,-3 -8,-4 3,-1 5,-3 8,-4 -10,-6 -17,-11 -24,-16 -6,-17 -10,-37 -12,-59 -5,-79 -9,-93 -46,-122z"/>
  <path class="fil0" d="M5951 5696c77,-45 141,-3 160,97 14,78 20,91 60,115 -3,1 -5,3 -8,4 -17,-6 -35,-8 -54,-4 -10,2 -21,5 -32,11 -32,-15 -56,-53 -66,-107 -14,-78 -20,-91 -60,-115z"/>
  <path class="fil0" d="M5811 5703c71,-55 140,-21 171,75 24,75 32,88 75,106 -71,55 -140,21 -171,-75 -24,-75 -32,-88 -75,-106z"/>
  <path class="fil0" d="M5269 6162c-16,-88 46,-133 145,-117 78,13 93,12 129,-18 16,88 -46,133 -145,117 -78,-13 -93,-12 -129,18z"/>
  <path class="fil0" d="M5247 6316c-40,-80 7,-141 107,-153 78,-9 92,-14 119,-53 40,80 -7,141 -107,153 -78,9 -92,14 -119,53z"/>
  <path class="fil0" d="M5291 6478c-67,-59 -46,-133 42,-181 69,-38 80,-47 91,-93 67,59 46,133 -43,181 -69,38 -80,47 -91,93z"/>
  <path class="fil0" d="M5347 6600c-59,-42 -51,-111 15,-174 57,-54 66,-66 64,-113 80,40 78,117 5,186 -40,38 -56,55 -62,79 -7,5 -14,12 -20,19 -1,1 -2,2 -2,3z"/>
  <path class="fil0" d="M5412 6560c3,-6 7,-12 11,-17 44,-65 50,-79 38,-124 42,11 67,34 76,64 -5,0 -10,0 -15,0 -22,2 -43,11 -62,27 -12,11 -22,24 -31,41l-4 8c-4,0 -8,1 -12,1z"/>
  <path class="fil0" d="M5595 6808c-18,0 -34,-3 -47,-8 5,-5 9,-11 13,-17 4,-7 8,-14 11,-22 3,0 6,-1 8,-1 0,17 5,30 15,49z"/>
  <path class="fil0" d="M5733 6865c-80,17 -126,-32 -123,-117 11,-6 22,-15 31,-26 5,-6 9,-12 13,-18 5,0 9,0 14,0 16,-1 32,-6 46,-15 1,15 1,31 -2,49 -11,78 -9,93 21,128z"/>
  <path class="fil0" d="M5881 6889c-81,37 -140,-12 -149,-112 -4,-48 -7,-72 -18,-90 5,-3 9,-7 14,-11 3,-3 6,-6 9,-9 4,1 8,2 12,3 14,2 29,1 43,-3 22,21 36,56 40,101 7,78 11,93 49,120zm-197 -231l-1 -1c3,-1 5,-2 8,-3 -2,1 -5,3 -7,4z"/>
  <path class="fil0" d="M6026 6888c-74,50 -140,12 -165,-85 -20,-76 -26,-89 -68,-110 74,-50 140,-12 165,85 20,76 26,89 68,110z"/>
  <path class="fil0" d="M6166 6870c-66,60 -137,31 -176,-62 -30,-73 -38,-85 -82,-100 66,-60 137,-31 175,62 30,73 38,85 82,100z"/>
  <path class="fil0" d="M6302 6837c-59,68 -133,47 -182,-40 -38,-69 -48,-80 -94,-89 59,-68 133,-47 182,40 38,69 48,80 94,89z"/>
  <path class="fil0" d="M6904 6602c-53,72 -129,57 -184,-27 -43,-66 -54,-76 -100,-82 54,-72 129,-57 184,27 43,66 54,76 100,82z"/>
  <path class="fil0" d="M7022 6588c-61,65 -134,43 -180,-46 -36,-70 -46,-81 -91,-92 61,-65 134,-43 180,46 36,70 45,81 91,92z"/>
  <path class="fil0" d="M7142 6582c-66,60 -137,32 -176,-61 -30,-73 -39,-85 -83,-100 66,-60 137,-32 176,61 30,73 39,85 83,100z"/>
  <path class="fil0" d="M7257 6598c-74,50 -140,12 -165,-86 -19,-76 -26,-89 -67,-111 74,-50 140,-12 165,86 19,76 26,89 67,111z"/>
  <path class="fil0" d="M7275 6627c-29,-18 -49,-55 -56,-107 -11,-78 -16,-92 -55,-117 79,-41 141,4 154,104 7,47 11,71 22,88 -2,0 -5,0 -7,1 -22,3 -41,14 -58,31l-1 1z"/>
  <path class="fil0" d="M7343 6580c-1,-12 -2,-25 -1,-38 4,-78 2,-93 -32,-126 58,-18 101,3 120,50 -9,10 -16,21 -21,35 -3,8 -5,17 -7,26 -1,0 -2,1 -4,1 -21,8 -38,22 -50,42 -2,3 -4,6 -5,10z"/>
  <path class="fil0" d="M7660 6811c-52,1 -85,-22 -97,-60 5,-8 10,-16 14,-26l12 -27c2,-1 4,-1 6,-2 21,-8 38,-22 50,-42 8,-13 14,-29 18,-47l6 -29 2 -1c9,27 7,63 -7,103 -26,74 -28,89 -5,129z"/>
  <path class="fil0" d="M7734 6901c-88,-12 -112,-84 -66,-174 36,-70 40,-84 23,-127 88,12 112,84 66,174 -36,70 -40,84 -23,127z"/>
  <path class="fil0" d="M7796 7001c-86,-24 -100,-99 -42,-181 45,-64 51,-78 40,-123 86,24 100,99 42,181 -45,64 -51,78 -40,123z"/>
  <path class="fil0" d="M7833 6994c-18,7 -33,-11 -10,-54 38,-55 66,-89 60,-136 53,22 105,96 99,131 -6,30 -98,46 -149,58z"/>
  <path class="fil1" d="M7883 7495l27 65c-123,-132 -166,-253 -128,-361 96,20 210,0 344,-61 82,96 102,204 61,324l-38 -90 0 92 -36 -94 -12 122 -61 -99 26 120 -53 -57 0 61 -26 -20 0 42 -80 -85 13 74 -38 -33z"/>
  <path class="fil1" d="M5337 7237c-11,-6 -15,-15 -13,-25 -1,-20 -10,-31 -27,-32 -15,-2 -34,-4 -57,-3 -70,-5 -139,-19 -206,-40 -22,-8 -33,-23 -33,-47 -14,22 -33,43 -58,62 -19,15 -35,36 -47,64 -26,72 -27,145 -5,220l41 -79 0 78 48 -84 9 111 55 -101c-7,40 -14,80 -21,120l55 -56 0 63 33 -32 -11 42 91 -73 -12 65 44 -33 -27 59c38,-36 69,-77 96,-124 49,-86 64,-138 45,-155z"/>
  <path class="fil1" d="M8093 7057c13,30 10,50 -10,61 -115,46 -215,59 -300,42 -17,-4 -26,-12 -27,-23 -12,-31 -15,-61 -8,-90 4,-17 22,-25 53,-27 55,-7 104,-19 148,-35 44,-17 76,-17 95,1 19,17 36,41 49,71z"/>
  <path class="fil0" d="M5370 7051c3,17 1,37 -6,61 -16,27 -47,40 -93,40 -70,-5 -139,-19 -206,-40 -22,-8 -33,-23 -33,-47 8,-26 21,-49 38,-68 19,-22 41,-27 66,-15 54,21 107,29 161,24 42,-4 67,11 74,44z"/>
  <path class="fil0" d="M7737 6336c17,84 -42,129 -137,114 -75,-11 -89,-10 -123,19 -17,-84 42,-129 137,-114 75,11 89,10 123,-19z"/>
  <path class="fil0" d="M7704 6476c-1,86 -68,117 -159,83 -71,-27 -85,-29 -124,-8 1,-86 68,-117 159,-83 71,27 85,29 124,7z"/>
  <path class="fil0" d="M7558 6717c-35,79 -109,82 -179,15 -55,-52 -67,-60 -112,-55 35,-79 109,-82 179,-15 55,52 67,60 112,55z"/>
  <path class="fil0" d="M7643 6604c-18,84 -90,102 -172,50 -64,-40 -78,-45 -121,-32 18,-84 90,-102 172,-50 64,40 78,45 121,32z"/>
  <path class="fil0" d="M6433 6786c-49,75 -125,64 -185,-17 -47,-63 -58,-73 -105,-77 49,-75 125,-64 185,17 47,63 58,73 105,77z"/>
  <path class="fil0" d="M6556 6722c-41,80 -117,78 -186,4 -54,-58 -66,-66 -112,-64 41,-80 117,-78 186,-4 54,58 66,66 113,64z"/>
  <path class="fil0" d="M6670 6669c-42,79 -119,75 -186,0 -52,-59 -64,-67 -111,-67 42,-79 119,-75 186,0 52,59 64,67 111,67z"/>
  <path class="fil0" d="M6785 6632c-49,75 -125,65 -185,-15 -47,-63 -59,-72 -105,-76 49,-75 125,-65 185,15 47,63 59,72 105,76z"/>
  <path class="fil0" d="M5367 6612c-80,-40 -78,-117 -5,-186 57,-54 66,-66 64,-113 80,40 78,117 5,186 -57,54 -66,66 -64,113z"/>
  <path class="fil0" d="M5840 6611c-59,67 -132,46 -180,-41 -38,-68 -48,-79 -93,-89 59,-67 132,-46 180,41 38,68 48,79 93,89z"/>
  <path class="fil0" d="M5742 6626c-42,78 -118,75 -185,1 -52,-58 -64,-67 -111,-66 42,-78 118,-75 185,-1 52,58 64,67 111,66z"/>
  <path class="fil0" d="M5646 6670c-30,84 -106,92 -183,29 -61,-50 -74,-56 -120,-49 30,-84 106,-92 183,-29 61,50 74,56 120,49z"/>
  <path class="fil0" d="M5559 6730c-18,88 -92,107 -178,55 -67,-41 -81,-46 -126,-31 18,-88 92,-107 178,-55 67,41 81,45 126,31z"/>
  <path class="fil0" d="M5668 5741c58,-68 132,-49 182,39 39,69 49,79 95,89 -58,68 -132,49 -182,-39 -39,-69 -49,-79 -95,-89z"/>
  <path class="fil0" d="M5536 5803c45,-77 122,-71 186,6 50,61 62,70 109,71 -45,77 -122,71 -186,-6 -50,-61 -62,-70 -109,-71z"/>
  <path class="fil0" d="M5419 5906c23,-87 98,-101 181,-44 65,45 79,50 124,39 -23,87 -98,101 -181,44 -65,-45 -79,-50 -124,-39z"/>
  <path class="fil0" d="M5330 6026c3,-90 73,-121 167,-83 73,29 88,32 129,10 -3,90 -73,120 -167,83 -73,-29 -88,-32 -129,-10z"/>
  <path class="fil0" d="M6074 5943c72,-43 131,-3 149,89 14,72 19,85 57,107 -72,43 -131,3 -149,-89 -14,-72 -19,-85 -57,-107z"/>
  <path class="fil0" d="M6614 5770c60,-59 128,-35 168,51 31,67 39,78 82,91 -60,59 -128,35 -168,-51 -31,-67 -39,-78 -82,-91z"/>
  <path class="fil0" d="M6180 5935c66,-51 130,-20 159,70 23,70 30,82 70,99 -66,51 -130,20 -159,-70 -23,-70 -30,-82 -70,-99z"/>
  <path class="fil0" d="M6287 5912c61,-58 128,-32 166,54 30,67 38,79 80,92 -61,58 -128,32 -166,-54 -30,-68 -38,-79 -80,-92z"/>
  <path class="fil0" d="M6390 5878c55,-64 124,-45 171,37 36,64 46,75 88,84 -55,64 -124,45 -171,-37 -36,-64 -46,-75 -88,-84z"/>
  <path class="fil0" d="M6498 5824c56,-63 125,-44 171,39 36,65 45,75 88,85 -56,63 -125,44 -171,-39 -36,-65 -45,-75 -88,-85z"/>
  <path class="fil0" d="M7383 5812c31,-84 108,-91 185,-26 60,51 73,58 120,51 -31,84 -108,91 -185,26 -60,-51 -73,-58 -120,-51z"/>
  <path class="fil0" d="M7264 5869c38,-82 114,-83 186,-12 56,55 69,63 116,60 -38,82 -114,83 -186,12 -56,-55 -69,-63 -116,-60z"/>
  <path class="fil0" d="M7140 5922c41,-80 117,-79 187,-5 54,57 66,66 113,64 -41,80 -117,79 -187,5 -54,-57 -66,-66 -113,-64z"/>
  <path class="fil1" d="M1291 3187c54,514 66,1010 38,1487 44,224 157,314 338,271 -98,-39 -175,-97 -231,-172 -16,-121 8,-252 71,-393 52,-115 142,-182 271,-200l236 -27c203,-21 332,-104 389,-252 19,127 2,240 -50,338 -59,88 -164,139 -316,152l-322 26c-93,6 -157,41 -192,104 37,146 173,229 408,250 235,21 413,-68 534,-265 20,145 -15,267 -106,368 -109,121 -233,203 -373,244 43,127 149,171 319,130 172,-59 263,-148 275,-268l-42 -1344 125 -219c573,217 756,664 549,1343 8,-663 -178,-1021 -558,-1073l21 1338c0,203 -86,355 -259,456 -82,42 -168,59 -256,51 -159,-31 -240,-164 -245,-399 -248,74 -450,43 -605,-92 -10,49 4,98 42,148 57,60 126,99 208,117 43,11 89,28 139,51 119,53 139,160 61,322 -154,-122 -303,-159 -448,-110 -48,19 -96,44 -141,77 -111,74 -218,99 -321,74 -96,-31 -169,-147 -220,-346 -28,-208 -34,-455 -17,-741 32,-710 -18,-1166 -147,-1369l168 -211c100,357 151,707 151,1051l-12 742c-29,383 32,585 181,607 88,10 164,-14 228,-71 64,-57 130,-75 198,-53 -56,-32 -107,-94 -152,-187 -38,-126 -50,-290 -38,-495 23,-405 -1,-818 -71,-1240l174 -221z"/>
  <path class="fil1" d="M21 5419c92,-146 168,-225 226,-236 4,-1 8,-2 11,-2 79,-19 170,-3 271,47 -24,41 -71,89 -140,146 -99,-57 -189,-59 -271,-6 -8,80 26,128 103,146 130,15 260,-4 389,-58l-52 193c-186,2 -358,72 -516,208 -9,-34 -14,-64 -14,-89 35,-37 74,-67 116,-93 -73,-42 -120,-99 -140,-170 -5,-32 1,-61 17,-87z"/>
  <path class="fil0" d="M12121 4658c217,143 292,310 224,503 -139,226 -308,307 -505,246 -39,187 31,284 211,292 185,-11 364,-80 539,-209 2,-181 -25,-355 -82,-523 -25,-15 -50,-30 -76,-45 59,-105 125,-197 199,-277 83,182 147,371 194,569 -36,-34 -73,-68 -112,-100 30,147 19,282 -34,403 -107,189 -252,323 -433,403 -235,111 -400,82 -496,-85 -72,-123 -63,-274 24,-452 -148,-64 -308,-114 -481,-148 -383,200 -660,258 -828,177 -109,-87 -126,-230 -52,-427 -182,79 -374,119 -575,119 -269,0 -458,-46 -569,-140l-261 198 19 -119 166 -144c-84,-94 -128,-204 -131,-329 -1016,256 -1984,378 -2904,365 -773,-11 -1414,-148 -1925,-412 -238,-143 -391,-174 -460,-92 -69,82 -138,262 -206,541 -65,187 -172,286 -322,296 -223,-27 -335,-338 -336,-933 105,464 223,687 352,667 97,-28 162,-141 196,-340 14,-103 36,-200 65,-293 119,-286 288,-347 507,-183 116,96 249,177 400,244 519,191 1166,293 1938,307 920,17 1888,-136 2904,-457 -30,156 16,299 139,430l432 -376c410,-297 730,-332 962,-107 114,121 93,291 -63,510 -63,80 -141,147 -231,200 -76,291 82,360 474,208 -197,-85 -227,-230 -88,-435 152,-225 339,-375 559,-450l-21 -77c-9,-2 -19,-3 -29,-4 53,-118 110,-223 171,-316l432 508c-106,-53 -212,-95 -317,-128 104,145 247,284 429,417zm-2424 176c-57,-17 -116,-37 -180,-59 244,-221 498,-359 763,-415 178,-39 294,-1 347,114 36,127 -6,224 -126,292 -274,111 -525,139 -751,83 -18,-4 -36,-9 -53,-15zm1470 -290c-90,68 -140,162 -148,282 35,63 128,115 280,156 250,-151 348,-324 296,-520 -157,-29 -299,-2 -427,82zm955 508c-58,-116 -173,-256 -347,-420 -28,158 -107,301 -236,427 165,77 318,127 459,151 114,-2 155,-54 124,-158z"/>
  <polygon class="fil1" points="10036,3712 10231,3907 10036,4101 9841,3907 "/>
  <polygon class="fil1" points="12409,4143 12604,4338 12409,4532 12215,4338 "/>
  <polygon class="fil1" points="3975,3934 3800,3759 3624,3934 3430,3739 3624,3545 3800,3720 3975,3545 4169,3739 "/>
  <path class="fil1" d="M820 3133c67,86 95,201 86,345 84,-160 86,-311 6,-454 -39,30 -69,67 -92,109z"/>
  <path class="fil1" d="M11343 3939l233 -153c83,-128 151,-259 206,-395 -179,-23 -356,8 -530,94l-89 265c86,-95 193,-139 321,-133 68,21 86,54 54,97 -101,77 -233,152 -399,225l204 0z"/>
  <path class="fil1" d="M10729 3446l-80 105c-116,151 -152,265 -108,340 48,82 112,111 191,89 82,-28 123,-86 124,-172 -99,52 -170,53 -215,4 -46,-50 -12,-155 100,-316l-13 -51z"/>
  <path class="fil1" d="M9586 3943l0 -53c-51,90 -86,166 -108,228 -21,61 -23,108 -4,141 19,32 55,37 110,17 56,-24 82,-63 77,-117 -20,21 -45,33 -74,36 -34,0 -55,-11 -64,-34 -14,-53 6,-126 62,-218z"/>
  <path class="fil1" d="M10458 3500l157 -134 -1055 270c-147,39 -301,93 -462,164 -53,50 -97,100 -132,151 264,-124 532,-218 805,-283l686 -168z"/>
  <path class="fil1" d="M12876 3208c-163,-35 -261,41 -294,229 -25,172 -64,266 -115,281 -55,-244 -152,-376 -291,-393 -59,-4 -95,13 -108,52 -40,92 -52,167 -36,225 37,41 97,54 179,39 96,-4 148,8 156,38 33,48 -24,142 -170,281 172,8 303,-71 393,-237 27,-50 50,-99 71,-149 47,-110 107,-136 181,-76 20,-94 31,-191 32,-291z"/>
  <path class="fil1" d="M12794 2872c-550,106 -1104,236 -1663,390l-198 194c572,-182 1151,-335 1734,-457l127 -127z"/>
  <path class="fil1" d="M129 3419c-21,52 -24,94 -8,126 19,40 52,53 99,36 50,-20 88,-69 113,-146 -45,22 -83,29 -113,21 -38,-17 -46,-54 -24,-113l48 -105 0 -66 -114 247z"/>
  <path class="fil1" d="M100 4297c258,-117 530,-210 815,-279l618 -170 103 -104 -738 212c-237,59 -467,136 -688,229l-110 112z"/>
  <path class="fil1" d="M375 4556c-37,22 -67,50 -88,83 -32,50 -44,95 -35,132 13,61 47,93 100,96 36,1 55,-11 57,-36 -29,-42 -76,-66 -143,-74 2,-26 10,-50 23,-72 73,-2 128,24 167,80 8,39 -11,77 -58,114 -48,33 -94,45 -139,37 -45,-8 -71,-35 -79,-78 -3,-15 0,-41 7,-80 7,-38 26,-79 55,-120 29,-42 73,-72 132,-93l1 11z"/>
  <path class="fil1" d="M100 4027c258,-122 530,-218 815,-287l618 -170 103 -104 -738 212c-237,59 -467,136 -688,229l-110 121z"/>
  <path class="fil0" d="M2060 3407c-47,51 -89,111 -124,179 -23,51 -23,103 0,156l23 55c-327,275 -655,436 -985,482 229,88 563,-59 1002,-441 30,48 31,103 1,166l71 -69c10,-11 17,-27 22,-49 9,-47 5,-92 -13,-134 53,-44 98,-103 135,-176 35,-86 35,-149 0,-189 -38,-36 -82,-30 -131,18zm19 69c-25,1 -48,21 -67,61 -23,41 -29,74 -18,100l42 79 65 -70c37,-40 50,-79 40,-118 -8,-38 -29,-56 -62,-53z"/>
  <polygon class="fil0" points="6570,-2 6784,661 7481,660 6917,1068 7133,1730 6570,1320 6008,1730 6224,1068 5660,660 6356,661 "/>
  <polygon class="fil0" points="4914,1135 5026,1481 5389,1480 5095,1693 5207,2038 4914,1824 4621,2038 4734,1693 4439,1480 4803,1481 "/>
  <polygon class="fil0" points="8140,1135 8252,1481 8615,1480 8321,1693 8434,2038 8140,1824 7847,2038 7960,1693 7666,1480 8029,1481 "/>
  <polygon class="fil0" points="9032,2129 9143,2475 9507,2474 9212,2687 9325,3032 9032,2818 8739,3032 8851,2687 8557,2474 8920,2475 "/>
  <polygon class="fil0" points="3982,2129 4094,2475 4457,2474 4163,2687 4276,3032 3982,2818 3689,3032 3802,2687 3508,2474 3871,2475 "/>
  <polygon class="fil0" points="4209,5282 4321,5628 4684,5627 4390,5840 4502,6185 4209,5971 3916,6185 4029,5840 3734,5627 4098,5628 "/>
  <polygon class="fil0" points="8752,5261 8864,5607 9227,5606 8933,5819 9046,6164 8752,5950 8459,6164 8572,5819 8278,5606 8641,5607 "/>
  <polygon class="fil0" points="5581,7437 5813,7716 6150,7579 5957,7887 6191,8164 5839,8076 5647,8384 5622,8022 5270,7935 5607,7799 "/>
  <polygon class="fil0" points="7468,7437 7235,7716 6898,7579 7091,7887 6857,8164 7210,8076 7401,8384 7426,8022 7778,7935 7442,7799 "/>
  <path class="fil0" d="M2900 6531l0 76c70,0 123,34 123,68l0 723c0,32 -41,66 -122,68l0 76c73,-3 139,-4 165,-4 26,0 96,1 209,4l0 -76c-38,0 -81,-4 -94,-13 -13,-8 -19,-39 -19,-56l0 -701 505 846 133 1 -1 -869c0,-32 41,-66 122,-68l0 -76c-72,3 -138,4 -165,4 -27,0 -97,-1 -210,-4l0 76c38,0 81,4 94,13 13,8 19,39 19,56l1 541 -436 -685 -325 0z"/>
  <path class="fil0" d="M9658 7556c-152,0 -271,-47 -346,-106 -75,-59 -131,-129 -131,-420l0 -354c0,-17 -6,-47 -19,-56 -13,-8 -56,-13 -94,-13l0 -76c113,3 191,4 232,4 42,0 116,-1 187,-4l0 76c-45,1 -75,6 -90,14 -15,8 -22,38 -22,54l0 489c0,193 113,278 293,278 68,0 118,-35 152,-82 33,-47 50,-102 50,-188l0 -497c0,-17 -6,-47 -19,-56 -13,-8 -56,-13 -94,-13l0 -76c113,3 183,4 211,4 27,0 94,-1 165,-4l0 76c-45,1 -75,6 -90,14 -15,8 -22,38 -22,54l0 496c0,256 -214,384 -365,384z"/>
  <path class="fil1" d="M6783 2533l-5 -1 -8 -1c-4,-1 -7,-1 -11,-2l-7 -1 -11 -2 -10 -1 -9 -1c-4,-1 -8,-1 -11,-2l-6 -1c-5,-1 -10,-1 -15,-2l-3 0 -7 -1c9,39 18,78 26,117 62,-22 122,-49 179,-80 -27,-7 -53,-13 -81,-18l-5 -1 -11 -2 -6 -1zm270 74c44,66 84,134 122,204 40,-28 78,-58 115,-90 -75,-44 -154,-82 -237,-113zm160 277c56,112 103,228 142,348 46,140 80,286 102,436 166,-51 327,-116 480,-193 -78,-195 -195,-371 -341,-517 -71,-71 -150,-136 -234,-192 -47,43 -97,82 -149,118zm65 373c-37,-113 -82,-222 -134,-328 -72,44 -148,82 -228,114 -42,17 -84,31 -128,44 10,69 19,137 28,206 19,164 33,330 41,498 138,-15 272,-38 404,-70 39,-9 78,-19 116,-30 -21,-149 -54,-294 -100,-434zm-171 -401c-46,-85 -96,-168 -151,-247 -73,42 -151,78 -232,107 20,96 37,193 53,290 37,-11 74,-24 110,-38 77,-31 151,-68 220,-111zm361 893c11,95 16,191 16,289 0,122 -8,241 -25,359 204,-63 399,-146 583,-247 0,-4 1,-8 1,-12 2,-32 3,-64 3,-96 0,-7 0,-13 0,-20l0 0c0,-6 0,-13 0,-19l0 -1c0,-13 -1,-26 -1,-38l0 -1c0,-6 -1,-12 -1,-18l0 -2c0,-6 -1,-12 -1,-17l0 -3c0,-6 -1,-11 -1,-17l0 -3c0,-5 -1,-11 -1,-16l0 -4c-1,-5 -1,-10 -2,-15l0 -4c-1,-5 -1,-10 -2,-15l-1 -5c-1,-4 -1,-9 -2,-13l-1 -6c-1,-4 -1,-9 -2,-13l-1 -7c-1,-4 -1,-8 -2,-12l-1 -7c-1,-4 -1,-7 -2,-11l-1 -4 -1 -4 -2 -10 -2 -12 -1 -4c-1,-5 -2,-10 -3,-15l-1 -6c-1,-6 -2,-11 -4,-16l0 0c-12,-52 -26,-102 -43,-151 -159,79 -325,145 -498,198zm-66 289c0,-90 -5,-178 -14,-265 -35,10 -71,19 -107,28 -137,33 -277,57 -419,73 3,88 5,176 5,265 0,128 -3,256 -10,383 156,-17 308,-45 455,-83 20,-5 41,-11 61,-16 19,-125 29,-254 29,-384zm43 448c-22,125 -52,246 -91,364 -17,52 -36,103 -56,153 187,-47 367,-111 540,-190 99,-170 167,-361 194,-565 -186,97 -382,178 -587,238zm-169 338c34,-102 61,-206 81,-314 -8,2 -17,4 -25,7 -156,40 -317,70 -481,87 -6,93 -14,185 -23,277 -7,69 -15,138 -24,206 134,-12 265,-33 393,-61l4 -1c28,-66 54,-133 76,-202zm-18 272c-60,134 -131,261 -212,382 209,-77 396,-199 550,-353 35,-35 68,-71 99,-109l1 -1c4,-4 7,-9 11,-13l2 -2c3,-4 6,-8 10,-12l2 -3c3,-4 6,-7 9,-11l3 -4c3,-4 5,-7 8,-11l3 -4c2,-3 5,-7 7,-10l4 -6 2 -3c-160,66 -327,120 -499,160zm-340 423c92,-125 172,-260 240,-402 -120,24 -242,42 -366,52 -19,131 -42,261 -68,389 66,-9 131,-22 194,-40zm-210 -343c-66,4 -132,6 -199,6 -67,0 -134,-2 -200,-6 20,132 43,262 69,392 44,4 89,6 134,6 42,0 84,-2 126,-5 27,-130 50,-260 70,-392zm-199 -76c71,0 141,-2 211,-7 10,-73 19,-147 27,-221 9,-87 16,-174 22,-262 -86,7 -172,10 -260,10 -88,0 -174,-3 -260,-10 6,88 13,175 22,261 8,74 17,148 27,221 70,5 141,7 212,7zm-283 70c-112,-10 -223,-25 -332,-45 94,158 211,301 344,425 18,3 36,6 55,9 -26,-128 -48,-257 -67,-388zm-384 -140c122,26 246,45 373,56 -9,-69 -17,-137 -25,-206 -10,-92 -17,-184 -23,-277 -162,-17 -321,-46 -475,-85 -11,-3 -22,-6 -33,-9 28,140 70,275 126,403 18,40 37,80 57,118zm-54 72c-177,-40 -349,-94 -515,-162 48,65 100,127 157,184 181,181 406,316 658,389 -117,-123 -217,-262 -300,-411zm-596 -285c174,79 357,143 547,189 -10,-20 -19,-41 -28,-62 -64,-145 -111,-300 -139,-461 -201,-60 -393,-138 -575,-233 28,204 96,395 197,566zm365 -422c-11,-84 -16,-171 -16,-258 0,-130 12,-257 36,-381 -179,-53 -352,-121 -517,-202 -51,153 -79,317 -79,487 0,32 1,63 3,95 0,6 1,12 1,18 181,98 373,180 572,242zm66 -258c0,96 7,191 21,283 23,6 45,12 68,18 146,38 297,65 450,82 -7,-127 -10,-255 -10,-383 0,-89 2,-177 5,-265 -141,-15 -280,-39 -415,-72 -29,-7 -57,-14 -86,-22 -22,116 -33,236 -33,358zm-29 -461c43,-182 110,-354 199,-513 21,-37 42,-73 65,-109 -121,-45 -235,-106 -340,-179 -31,26 -60,53 -88,82 -147,147 -264,323 -342,520 161,80 331,147 506,199zm270 -473c-85,153 -150,320 -191,495 29,8 58,15 88,22 130,31 264,54 400,69 8,-167 22,-333 41,-497 6,-52 13,-103 20,-154 -98,-10 -193,-29 -284,-57 -26,40 -51,80 -74,122zm41 -219c51,-72 106,-141 166,-206 -22,-3 -44,-7 -66,-11 -81,-16 -159,-38 -234,-67 -65,36 -127,77 -186,122 98,67 206,122 321,163zm237 -280c60,-59 123,-114 190,-164l5 -22c-165,19 -322,64 -467,131 49,16 98,28 149,38 40,8 81,14 123,18zm380 -197c-40,25 -79,52 -117,80 -9,39 -17,78 -25,118 86,-7 170,-23 250,-46 -11,-50 -22,-100 -34,-149 -25,-1 -49,-2 -74,-2zm-218 160c-17,14 -33,28 -49,43 4,0 8,0 12,0 9,0 19,0 28,0 3,-14 6,-28 9,-42zm-131 122c-68,69 -130,143 -187,221 80,23 162,39 247,47 14,-89 29,-177 46,-265 -4,0 -8,0 -12,0 -32,0 -63,-1 -94,-3zm184 -356l0 0 14 -1c47,-4 94,-6 142,-6 21,0 42,0 62,1l0 -1 37 3c128,8 252,30 370,66l0 0 3 1c149,46 289,112 416,196l23 15 0 0c83,57 160,121 231,192 152,152 274,335 356,537l1 0 11 29c46,119 77,246 93,377l1 7c0,4 1,8 1,13l1 8 1 11 1 12 1 7c0,5 1,10 1,15l0 3c0,6 1,12 1,17l0 3c0,6 1,12 1,18l0 1c0,6 1,13 1,19l0 2c0,7 0,13 1,20l0 0c0,14 1,28 1,42 0,5 0,11 0,16 0,47 -3,93 -7,139l0 3 0 0c-37,383 -208,726 -465,984 -249,249 -580,417 -948,461l0 0 -8 1c-55,6 -111,10 -168,10 -6,0 -12,0 -18,0 -6,0 -12,0 -18,0 -3,0 -6,0 -10,0l-1 0c-56,-1 -111,-5 -166,-11l-7 -1 0 0c-365,-46 -692,-213 -940,-460 -256,-256 -427,-598 -465,-979l0 0 0 -2c-5,-48 -7,-96 -8,-145 0,-6 0,-11 0,-16 0,-7 0,-14 0,-21l0 0c0,-7 0,-14 0,-20l0 -1c0,-7 0,-13 1,-20l0 -1c0,-6 1,-12 1,-19l0 -3c0,-6 1,-11 1,-17l0 -5c0,-5 1,-10 1,-15l0 -6c0,-5 1,-9 1,-14l1 -10 1 -8c0,-4 1,-8 1,-13l1 -8c15,-138 48,-270 95,-395l10 -27 1 0c82,-204 204,-388 357,-541 25,-25 52,-50 78,-73l-1 0 21 -17c244,-207 550,-342 886,-374zm6 356c-18,91 -33,182 -47,274 19,1 37,1 56,1 112,0 222,-13 326,-38 -15,-96 -32,-192 -52,-286 -91,26 -186,43 -284,50zm-59 355c-7,52 -14,105 -20,158 -19,163 -33,329 -41,495 88,7 178,11 268,11 90,0 179,-4 267,-11 -8,-167 -22,-332 -41,-496 -8,-65 -16,-130 -26,-195 -109,26 -222,39 -339,39 -23,0 -46,-1 -68,-2zm-65 735c-3,85 -5,171 -5,257 0,131 4,262 11,391 87,7 176,11 265,11 89,0 177,-4 265,-11 7,-129 11,-260 11,-391 0,-86 -2,-172 -5,-257 -89,7 -180,11 -271,11 -91,0 -182,-4 -272,-11zm1787 -95l-2 -11 2 11zm103 272c0,17 -1,34 -2,53l2 -53z"/>
  <path class="fil0" d="M6512 2427c892,0 1615,723 1615,1615 0,892 -723,1615 -1615,1615 -892,0 -1615,-723 -1615,-1615 0,-892 723,-1615 1615,-1615zm-2 2013l-5 1 -6 4 -6 2 -2 0 -2 -1 0 2 -1 2 -1 2 0 2 0 3 1 3 2 2 1 2 4 -2 5 -1 8 2 10 -1 10 2 8 3 2 0 2 0 2 -1 2 0 6 1 4 -4 4 0 4 0 2 1 1 2 4 -1 4 0 11 -5 4 -1 6 0 4 0 2 0 4 -2 4 -1 6 -2 2 -1 1 -1 -2 -3 4 -3 1 -1 1 -1 2 -1 -1 -7 -3 -2 -3 -1 -2 1 -1 2 7 1 -3 3 -4 2 -6 2 -2 1 -2 2 -1 2 -1 2 -1 1 -5 1 -3 0 -8 -5 -2 -1 -2 -1 -2 1 -2 0 -5 1 -3 0 -3 1 -3 2 -2 0 -2 0 -3 -1 -4 -3 -7 -2 -5 -2 -5 -2 -6 0 -2 -1 -4 -3 -3 1 -3 0 -3 -1 -3 0zm1086 -1482c-138,-138 -302,-250 -484,-327l0 0 3 1 -8 4 -7 6 -3 4 -3 4 -2 4 -1 5 -2 -2 -7 -8 -4 -2 -7 -1 -2 0 -15 7 -2 5 -4 8 -2 3 -2 1 -1 1 -2 7 -5 4 -3 0 -5 -1 -2 1 3 -6 -4 -1 -4 0 0 -4 -3 -2 2 -3 0 -3 1 -1 0 -2 0 -2 -3 -1 -2 -1 0 -5 -2 0 -4 1 -8 4 -2 0 3 -3 7 -3 3 -2 7 -6 4 -3 2 -5 1 -3 2 -3 1 -4 2 -1 4 -3 2 0 3 4 3 3 3 0 4 -2 2 0 5 0 5 -2 2 -2 1 -3 -2 -5 2 0c-5,-2 -11,-4 -16,-6l-3 1 -3 2 -5 -1 -10 4 -5 0 -5 -2 -5 -3 -5 1 -3 5 -2 9 -2 4 -1 5 -2 -1 -14 -9 -1 0 -11 2 -3 1 -4 2 -4 1 -3 -1 -3 -2 -3 1 -3 1 -1 -13 1 -2 2 -2 2 -2 5 -1 5 1 4 -1 3 -3 4 -4 4 -3 5 -2 5 -3 3 -3c-35,-12 -71,-22 -107,-31l-3 6 -5 7 -6 3 -4 1 -8 0 -6 -1 -6 1 -2 1 -2 3 1 4 0 3 -2 0 -5 -2 -5 0 -2 -1 -2 -4 -3 0 -4 2 -7 1 -2 1 -1 2 1 2 3 3 -1 3 -4 1 -3 -4 -2 -3 -2 0 -3 1 -1 4 1 3 2 3 -3 3 -1 2 -2 2 -6 -4 1 -3 3 -3 0 -3 -1 -2 -9 7 -6 8 -3 -1 -1 -2 -2 -1 -6 5 -1 4 -2 0 -1 -2 0 -4 -1 -3 -6 -5 -3 -4 2 -2 5 1 4 0 -1 -2 -1 -1 3 -1 2 -2 -2 -1 -3 1 -2 -1 -1 -5 -3 -5 -2 -5 3 -3 1 -5 3 -7 1 -2 4 -2 1 -2 -2 -1 -3 -1 0 -2 2 -1 3 -2 5 -3 2 -5 -1 -1 -3 -1 1 -2c-79,-14 -160,-21 -243,-22l-1 1 -1 -1 -3 0 -2 1 -1 3 0 8 -2 2 -5 1 -5 3 -2 -1 -1 -1 1 -4 -1 -2 -2 0 -4 1 -3 2 -1 2 4 5 4 0 1 1 -3 2 -7 4 -1 3 -2 3 -3 2 -2 2 -2 1 -4 1 -5 6 -3 5 -4 3 -3 9 -6 5 -2 8 1 5 6 0 3 2 7 6 8 4 8 2 10 6 3 2 2 5 4 14 3 7 0 4 5 7 5 12 6 10 1 8 -2 4 0 5 6 4 13 5 2 1 2 2 0 8 2 2 2 1 8 3 3 3 3 4 1 4 0 5 -4 0 -3 -1 -14 -7 -4 0 -5 1 -7 -1 -8 -8 -6 -2 -6 -1 -14 6 -4 0 -1 1 -2 1 7 1 7 -2 6 -3 9 2 2 3 1 5 6 3 5 1 6 4 6 7 13 8 5 7 2 5 2 7 -5 2 -4 0 -6 1 -5 2 -5 4 -13 6 -3 4 -2 4 -3 2 -8 -2 -8 0 -9 5 -2 2 1 0 1 -1 4 1 6 -3 6 8 11 -1 11 -6 4 0 3 1 4 3 10 11 6 1 6 3 3 0 3 1 -7 4 -10 9 -4 2 -3 2 8 -1 6 -4 3 -1 2 1 1 5 -2 16 -3 0 -3 -4 -3 -1 -3 1 -5 0 -2 2 -2 3 3 1 6 5 1 3 -2 2 -4 -1 5 4 -1 4 -2 1 -3 1 -2 3 3 5 3 7 0 3 -4 -1 -7 4 -3 0 -2 -6 -3 1 -2 2 -3 6 -3 5 -3 2 -3 0 -3 0 1 1 3 2 0 2 -6 7 -1 3 0 2 -3 3 2 4 -1 3 -3 4 -3 3 -4 5 -4 3 -6 9 -2 5 0 5 -2 2 -3 2 -4 -1 0 -3 -2 0 -1 -2 0 -3 0 -2 -1 1 -1 3 -2 2 -2 -1 -3 -2 0 2 1 2 1 2 4 1 2 3 2 4 0 2 2 2 0 2 -4 2 -4 3 -5 5 -4 3 -4 0 -2 0 -3 -2 -4 -1 5 7 3 1 4 0 3 -2 5 0 1 4 -1 4 -3 6 -1 5 3 7 0 2 -1 1 -4 -2 -3 -2 -3 1 -3 -1 -3 1 -1 2 1 3 3 2 2 3 -2 1 -9 -1 -2 1 -3 4 2 5 -2 3 -4 1 -5 3 -3 1 0 1 2 1 1 2 -3 6 -4 2 -6 -1 -5 1 -4 -2 -4 0 -3 3 0 3 -3 0 -2 0 -2 0 0 2 1 2 6 1 1 2 0 4 -6 6 -3 4 -4 0 -3 3 -2 4 -2 -1 -5 1 -1 2 1 1 0 2 -2 5 -2 1 -1 -2 -1 -3 -2 0 -3 3 -3 2 -3 1 -2 -2 -5 -1 -2 9 -4 3 -2 1 -3 0 2 1 1 2 -1 2 -4 0 -2 2 -1 8 -2 3 -5 0 -4 -2 -1 1 -1 1 -2 1 -4 0 -9 3 -4 -1 -5 -1 -3 1 -1 3 -2 2 -5 0 -4 -2 -4 -2 -4 2 -3 3 -4 1 -1 2 -2 1 -4 0 -2 -5 -3 -1 -2 2 -1 2 -1 1 0 4 -2 0 -3 -2 -3 0 -3 2 1 2 0 2 2 1 0 2 -2 1 0 2 -1 1 -5 -2 -4 -1 -4 0 -1 -1 0 -1 5 -2 0 -1 -4 -1 -4 -3 -3 -6 -4 -3 -2 -3 -1 -5 -1 -2 0 -3 1 -2 -4 1 -3 2 1 3 -1 2 -5 1 0 1 0 1 4 3 1 3 1 2 3 4 0 8 2 2 -1 2 -1 3 -2 1 -3 1 -2 1 -2 1 -3 2 -5 1 -3 -6 -3 4 -1 8 -1 1 -2 1 -4 -3 -3 2 -3 2 -1 2 -2 2 -4 -2 -3 -3 1 -2 0 -1 -1 -1 -1 0 1 3 0 5 -1 1 -2 1 -5 -1 -3 -2 -4 -2 -3 0 -1 3 -2 3 -2 0 -2 0 -3 3 -1 2 -3 2 -9 1 -3 2 -4 0 -3 1 -2 0 -2 -1 -2 0 -1 4 -5 1 -5 0 -5 5 -4 3 -3 0 -2 -1 -1 -4 -1 0 -1 4 -1 3 -2 2 -6 4 -2 4 1 4 8 1 1 2 -1 2 -2 1 -1 2 8 7 0 3 -1 1 -2 3 -4 3 -9 1 -8 -1 -2 -3 0 -2 2 1 2 0 -1 -2 -1 -1 -4 -2 -3 -5 1 -4 -2 -3 -2 -2 -2 -2 -1 -2 2 -6 -1 -3 3 -4 1 -5 6 -2 0 -5 -4 0 -3 -3 -1 1 -2 0 -4 -6 -1 -1 -2 0 1 7 -5 3 -4 1 -5 0 -3 1 -3 -1 1 -2 1 -2 -1 -2 -3 -2 -5 0 -3 0 -3 0 -1 -1 -3 -3 -2 -2 -1 -2 1 -2 -1 -1 -5 0 0 3 0 4 1 3 -1 2 -2 1 -3 -3 -1 -1 -1 0 -1 3 -2 3 -4 0 -3 2 -4 1 -2 0 -5 0 -4 4 -3 2 -5 1 -5 2 -1 4 0 3 -1 3 -8 5 -2 -1 -2 -2 -2 0 -2 1 -2 0 -2 1 -3 0 -3 -1 -2 0 -2 0 0 2 3 7 1 3 -9 9 1 6 -2 4 -5 4 -10 9 -4 0 -3 2 -7 15 0 5 -1 4 0 4 -3 7 -3 3 -1 4 5 8 1 1 3 4 1 3 2 3 7 8 3 2 4 2 7 7 4 5 -2 3 1 7 -5 -2 1 1 6 4 9 13 8 6 8 7 2 7 7 4 8 6 0 1 2 2 5 3 3 4 1 3 2 1 2 -1 2 0 2 0 2 4 3 3 2 3 1 0 1 0 0 3 0 2 5 5 2 5 5 8 4 4 3 2 3 2 3 8 2 8 3 8 3 4 0 7 2 7 2 5 1 5 1 2 1 2 2 8 -1 4 -2 -4 0 11 2 6 -1 7 2 3 3 8 2 3 0 10 1 5 -3 -3 -2 -3 -3 2 -2 3 4 11 -4 -1 0 14 2 3 0 2 -1 2 -1 -2 0 -2 -1 1 0 1 -1 3 0 3 1 3 0 2 -1 3 -2 3 -4 0 -1 5 -1 6 -7 1 -5 5 -6 2 -6 5 -6 5 -4 1 -3 1 -4 7 -7 1 -12 6 -4 3 -4 1 -5 3 -1 -1 -2 -2 -4 -1 -2 -2 -1 -3 -1 -1 -1 2 -1 7 -1 2 -2 1 -4 -2 -4 -4 -5 3 2 0 2 0 2 1 2 3 0 2 -1 2 -5 0 -6 -1 -1 0 6 3 5 2 2 2 0 1 -3 2 -2 3 0 2 0 2 -3 2 -2 0 -5 -3 -13 -12 2 3 14 13 2 4 0 3 -1 2 -2 2 -4 0 -7 -5 -12 -12 -4 -2 12 14 2 3 2 4 -1 2 -1 2 -28 13 -4 5 -3 7 -6 4 -3 3 -9 2 -5 -1 5 -6 -3 -2 0 -16 1 -18 2 -9 4 -2 4 -1 0 -2 0 -2 -2 -3 -3 -1 -4 -1 -3 -4 -2 0 -4 1 -2 -2 -1 -3 -3 -3 -4 -3 -7 -5 -14 -2 -2 -2 -1 0 -1 3 -8 3 -3 -2 -2 -2 0 -3 2 -2 4 -2 2 -6 -3 -7 -3 -2 -3 -2 -3 3 -2 5 -2 2 -3 1 -5 0 -2 -7 -1 -6 1 -7 1 -4 -5 -5 0 -5 -2 -3 -1 1 0 1 -1 0 -1 -3 -4 -5 -1 -5 -5 -6 -3 -2 -1 2 -1 2 -4 -3 -4 -3 -4 -6 0 1 -1 1 -4 -5 -4 -4 -4 -1 -2 -1 -2 -2 -5 -2 -12 3 -15 -2 -6 2 -2 -1 -1 -3 1 -4 0 -9 2 -6 -1 -5 1 -2 1 -3 -2 -1 -11 -3 -2 -2 -3 2 -13 1 -5 2 -4 4 -1 5 3 3 2 5 -5 12 -1 3 2 14 -1 8 -2 5 -4 5 -2 8 -3 4 -4 8 -3 10 -2 5 -1 9 -9 14 -2 8 -3 3 1 2 0 4 -1 10 0 8 1 4 4 9 -1 3 0 4 3 2 2 0 14 -4 5 1 2 4 1 3 2 19 1 3 3 3 3 3 1 -1 0 -1 0 -1 3 4 2 7 7 35 2 4 2 5 -4 -2 -1 -8 -1 -3 -2 0 -3 0 0 -1 2 -3 0 -3 -3 -2 -4 2 0 5 2 4 7 9 2 4 3 1 4 -1 5 4 4 4 9 6 6 -1 6 -1 4 0 4 1 5 5 8 12 13 10 7 2 3 1 8 13 11 9 5 3 4 2 5 5 4 6 9 17 2 8 1 12 -2 17 -2 9 0 4 3 6 -1 6 1 5 0 14 2 4 2 3 12 8 1 3 6 10 11 22 3 10 0 3 -1 1 -3 1 -3 -2 -1 -1 0 -2 -1 -2 -3 -2 -1 -2 0 3 0 4 -3 0 -4 -1 -5 1 -6 5 -3 0 -2 -4 -1 -3 -2 -2 -19 -10 -7 -3 -8 -8 -17 -9 -11 -8 -5 -5 -11 -5 -5 -5 -2 -1 -2 -2 2 -5 -1 -5 -1 -5 -8 -9 -4 -6 -7 -6 -3 -4 -3 -4 2 -1 2 -1 -1 -3 -4 -5 -2 -6 0 -12 -6 -16 -5 -23 1 -8 -1 -9 -3 -8 -4 -6 -2 -5 -11 -13 -7 -5 1 -10 -2 -2 -3 0 -2 -3 2 -6 -3 1 -4 0 -3 -2 -2 -8 -2 -2 -3 -4 -4 0 -1 -2 0 -5 -3 -3 -4 -3 -4 -2 -4 -8 -3 -2 -2 -2 -3 1 -1 3 -2 3 -3 0 -2 -2 -3 -8 0 -5 1 -9 4 -8 2 -13 3 -8 2 -3 3 -12 6 -15 -2 0 -4 6 -2 -3 -1 -3 1 -7 -2 -14 2 -2 1 -1 3 -5 3 -5 0 -6 3 -5 -1 -4 0 -4 1 -4 0 -3 2 -3 4 -2 -2 -1 -1 -2 -5 3 -2 -1 0 -3 1 -3 0 -2 2 -2 0 -4 -1 -3 1 -4 -3 0 -1 -1 1 -2 3 -2 -2 -4 2 -4 0 -5 -1 -5 0 -3 -2 -6 -1 -7 -4 -6 -3 -8 -7 -11 0 -5 0 -4 -2 -2 -2 14 -2 -3 -1 -8 -1 -4 1 -7 -4 -7 -1 -5 -3 -8 1 -2 4 2 -3 -5 -3 1 -2 -5 0 -14 -2 -5 1 -5 -3 -19 -5 -6 1 -5 1 -5 0 -9 1 -3 3 -2 -2 1 -2 1 -5 1 -5 0 -2 -6 -3 -3 -2 -6 -1 -7 1 -1 -4 -3 -1 -2 -4 -5 -5 -4 1 3 1 2 -2 4 2 7 -2 5 -2 6 -2 3 -6 6 -5 2 -3 0 -3 -1 -3 -3 -1 -3 0 -5 -1 -1 -1 1 2 6 0 3 4 5 -1 1 -7 3 -2 0 -2 1 0 2 -1 1 -10 4 -2 4 -1 4 -5 6 -7 5 -2 0 -2 -1 0 -5 2 -4 -1 -5 -1 3 -5 7 -2 2 -4 -1 -6 1 -2 -7 0 -3 0 -2 1 -2 0 -2 -1 3 -1 3 -2 3 -6 3 0 -4 0 -3 1 -3 0 -5 2 -7 0 -2 -1 -3 -1 4 -1 4 -1 1 -2 1 -4 4 -2 4 -6 4 -3 0 0 -5 2 -17 2 -2 1 -3 2 -10 2 -4 1 -8 1 -1 3 -6 1 -11 -1 -6 -3 -5 -3 -16 -7 -13 -1 -4 -3 -5 3 0 -6 -5 -1 -2 -1 -11 0 -6 -1 1 -1 4 -2 2 1 6 0 2 -1 3 -5 -3 -4 -3 -5 -7 -4 -8 2 -1 2 0 6 6 4 1 3 -1 3 -3 2 -5 -2 -2 -3 -1 -2 -1 -3 -3 0 -2 -1 -2 -3 -2 -2 -2 2 -3 2 -3 -5 0 -6 -4 -1 -1 -2 -1 -5 -1 -4 1 2 6 0 2 -3 0 -5 -9 2 -2 2 -2 -1 0 -2 0 2 -8 -1 -1 -1 3 -1 3 -5 6 -2 -1 -2 -1 2 -3 1 -1 1 -2 -2 -3 -3 -2 -2 -4 -1 0 1 5 0 7 -5 -8 -10 -11 -2 -3 -1 0 -3 -4 -2 -4 -6 -8 -2 -15 0 -7 -4 -9 -3 -12 -1 -3 1 -4 0 -1 -1 0 -2 2 -3 -5 -2 -4 -7 -9 -2 -4 0 -4 -3 4 -4 3 -4 4 -3 1 -9 1 -1 -1 -3 5 1 1 0 4 -2 10 -2 3 -7 2 -3 0c-175,249 -277,552 -277,880 0,423 172,807 449,1084 227,227 524,383 856,432l0 0 1 -13 4 3 3 3 7 0 7 -5 4 -7 3 -8 -1 -9 -2 -16 1 -3 2 -1 1 -8 1 -24 -2 -9 -10 -18 -7 -16 -5 -7 -4 -11 -4 -16 -1 -8 -1 -15 1 -8 -1 -5 -4 -13 -10 -12 -2 -5 0 -5 -2 -6 -8 -11 -8 -10 -1 -5 -1 -19 -3 -9 -13 -22 -16 -19 -4 -8 -2 -3 1 0 2 1 2 2 1 0 1 -2 0 -4 1 -2 1 1 2 4 5 11 1 5 6 2 2 -1 2 -3 1 -8 -3 -3 -3 -1 -5 -6 -3 -9 -5 -8 0 -3 2 -2 4 1 3 5 4 4 -1 8 -1 2 0 2 1 2 2 1 2 -2 2 -5 1 1 3 10 2 3 4 3 4 -3 2 -2 -1 -7 1 -7 -1 -5 -9 -14 -8 -17 -5 -8 -4 -13 -3 -4 -4 -7 0 -8 0 -5 3 -12 3 -6 9 -14 0 -6 0 -4 1 -7 0 -5 -1 -4 -4 -8 5 -13 7 -17 3 -3 4 -2 1 4 -2 12 3 6 -1 7 3 -1 4 -1 3 -4 2 -4 8 -14 4 -5 6 -4 13 -5 12 -6 6 -6 7 -5 5 -5 5 -4 25 -14 4 -3 5 0 7 0 6 -1 6 3 5 0 12 -3 6 -3 11 -7 5 -2 11 -2 12 -3 15 -12 11 1 10 1 8 -3 18 -2 10 -3 19 -8 5 -3 8 -5 7 -7 7 -9 4 -8 2 -4 4 -7 3 -5 2 -3 7 -4 11 -10 4 -2 1 -3 -2 -2 -3 -1 -2 -11 -2 -7 0 -5 1 -5 4 -8 3 -3 4 -4 4 -1 3 -3 5 -3 2 -3 3 -7 3 -5 2 0 4 12 3 6 5 7 5 11 4 5 2 3 2 2 0 -2 0 -2 2 -8 -1 -6 0 -2 1 -1 2 1 4 3 2 1 1 0 0 -5 2 -3 -1 -2 -3 0 -1 -3 -3 -3 -3 -2 -4 -5 -1 -2 1 -1 2 0 2 -2 1 -3 -2 -5 2 -2 3 1 5 8 2 -1 2 -3 4 -1 4 1 2 2 5 2 6 0 3 1 7 0 3 1 -1 -1 -4 -1 -4 0 -5 0 -2 -2 -1 -4 1 -3 1 -1 3 1 3 0 0 -4 1 -4 2 -3 0 -3 -2 1 -4 6 -2 -5 -3 -4 1 -6 2 -6 3 -1 2 1 3 -3 2 -3 0 -2 1 -2 2 1 9 5 2 3 2 -1 1 -3 0 -3 -2 0 -5 0 -1 -2 0 -1 -2 -3 3 -2 3 0 2 -2 0 -2 1 -1 1 1 5 1 5 3 2 1 1 -1 0 -3 -6 -3 0 -3 -2 -3 0 -3 4 -3 1 -3 2 -1 4 0 3 -2 3 -1 1 -5 0 -4 1 -1 3 1 -1 4 0 4 -1 2 1 0 1 -1 1 -3 3 1 1 3 0 3 2 1 2 -4 3 -1 0 -5 1 -4 0 -3 2 -1 0 -3 -2 -2 -1 -4 3 -1 3 2 2 5 1 2 2 -1 1 -3 3 -2 3 3 4 3 5 -3 4 -6 -1 -3 0 -4 5 -2 4 1 4 4 8 3 7 4 3 3 6 4 4 4 5 8 12 10 1 2 -2 3 -1 4 -2 7 0 10 2 -1 2 -4 2 1 2 2 0 -2 -1 -1 -2 -5 0 -3 2 -2 3 -2 3 -2 2 -1 0 -2 3 -2 4 -1 3 0 18 4 4 4 0 5 2 2 1 -3 0 -7 1 -1 5 1 3 1 5 5 1 2 2 2 1 -2 -1 -3 -1 -4 1 -3 5 0 4 -1 -2 -1 -2 0 -4 -3 -2 -3 4 -3 0 -1 -4 0 -5 -3 -4 -4 3 -8 7 -7 4 -2 0 -3 2 -5 1 -4 0 -3 2 -3 4 -3 6 -1 3 -1 3 -3 3 -3 -5 -7 0 -4 1 -4 6 -3 3 -8 2 -1 5 0 2 -1 0 -7 1 -3 2 -1 3 1 2 3 4 3 1 -1 -1 -3 0 -4 3 -1 3 0 0 -3 0 -2 1 -1 7 0 2 -3 1 -2 1 1 1 5 4 3 12 0 7 -2 3 1 4 1 5 -2 3 -2 5 2 2 2 1 -5 3 -2 3 -1 4 1 2 0 -3 -4 0 -3 0 -5 1 -5 1 -3 -8 -7 -8 -1 -6 1 -3 -1 -5 -5 -5 -2 0 -1 6 -4 2 1 4 4 2 1 2 0 1 -3 2 -1 3 1 9 6 5 6 3 -2 5 -3 4 1 3 2 4 7 3 4 7 1 4 1 4 2 5 0 10 1 10 5 4 3 5 1 3 1 5 0 8 -3 4 3 2 2 7 4 8 1 6 -4 8 -3 6 -4 4 -2 4 -4 2 0 -3 3 0 2 3 1 0 1 -4 3 -4 4 0 2 2 1 2 -1 3 -2 3 -1 3 2 1 6 2 4 5 1 3 0 3 -5 -2 -5 -2 -1 1 -2 7 -8 4 0 3 7 5 4 5 0 3 1 2 5 -17 18 -1 2 2 3 1 4 -6 9 -2 0 -2 -3 -3 -2 -3 1 -3 1 -10 5 0 13 3 8 -1 5 -3 9 -3 3 -3 2 -9 13 -3 3 -3 4 1 4 1 3 3 3 13 7 6 5 10 6 2 4 1 3 7 4 5 2 2 -1 1 -1 1 0 1 0 0 3 -1 2 0 2 4 3 6 0 3 -1 4 3 3 2 5 4 10 4 7 3 9 10 7 6 7 4 11 3 5 0 8 4 8 2 4 5 1 4 0 3 4 7 8 2 10 7 9 3 2 2 4 2 7 0 13 -3 6 -3 8 -6 4 -10 2 -8 11 -16 3 -8 3 -10 2 -7 -1 -7 2 -13 5 -17 2 -6 -1 -9 -3 -16 2 -6 2 -8 -3 -6 -2 -4 0 -6 3 -10 2 -5 2 -7 -1 -13 5 -5 2 -2 4 0 2 1 0 -3 -2 -2 -1 -3 -1 -1 -2 -1 -2 -2 -3 -2 0 -6 5 -11 3 -4 2 2 2 1 0 -3 -1 -3 4 -11 4 -15 1 -14 7 -3 3 -3 2 -4 4 0 3 2 -2 3 -1 2 7 6 2 4 1 4 1 4 1 5 0 8 1 8 3 3 2 2 3 0 5 1 -1 5 -2 4 0 2 0 3 3 2 3 2 1 4 5 6 0 4 3 5 2 10 1 9 2 6 -2 13 2 5 2 4 3 9 2 8 3 2 6 3 6 -3 4 -4 5 -1 6 -2 5 5 3 6 11 8 6 5 5 3 5 4 0 4 -1 3 1 5 1 5 -1 6 3 10 1 8 3 8 0 8 -1 3 0 4 3 5 3 4 4 4 5 7 3 1 3 0 0 7 6 13 3 11 -2 15 -2 9 0 4 8 10 5 2 -1 5 -1 8 4 6 4 4 4 3 4 2 6 2 7 1 4 3 2 3 6 1 3 0 3 -1 2 2 2 2 3 6 7 6 5 1 3 3 4 1 3 0 5 2 7 6 7 1 3 2 7 6 3 3 3 5 -3 0 -3 -1 -2 5 4 7 5 5 6 5 4 5c203,-260 325,-588 325,-943 0,-423 -172,-807 -449,-1084zm-1118 2616c11,0 23,0 34,0 188,0 367,-34 533,-95l-14 -8 -5 0 -14 3 -5 -1 -21 -14 -14 -7 -5 -1 -6 -1 -5 2 -3 2 -7 2 -27 -1 -24 2 -16 2 -10 2 -17 9 -20 8 -16 4 -15 5 -10 2 -13 1 -27 -3 -9 2 -15 10 -4 2 -8 3 -21 12 -10 3 -6 1 -5 3 -5 5 -7 15 -4 7 -9 11 -6 4 -6 -1 -7 4 -6 -4 -5 -1 -8 0 -26 5 -4 -6 -5 -1 -9 0 -14 -2 -25 2 -12 2 -5 2 -9 -1 -15 2 -5 3 -4 3 -2 3zm37 -1218l0 6 1 2 2 -7 1 -14 -1 -3 -2 -5 -1 4 0 9 -1 4 1 3zm-54 131l-6 2 -2 1 -2 2 1 2 1 2 1 2 2 2 12 3 2 0 2 0 6 1 9 6 5 2 3 3 2 3 4 3 5 2 6 1 2 1 5 -2 3 0 2 -1 4 -4 1 -3 -2 -3 -4 -2 -3 -4 -3 -4 -2 -2 -2 -1 -3 0 -3 0 -1 -2 0 -3 -1 -2 -7 -4 -2 -2 -2 -2 -1 -1 -4 2 -2 1 -8 -1 -8 1 -5 0 -5 1zm169 -343l-2 -1 -8 1 -3 0 -3 4 -1 6 2 5 1 2 4 -3 5 -7 2 -1 1 8 -3 3 0 1 2 2 2 -1 1 -1 2 -6 2 0 2 3 3 0 3 -2 1 -5 -1 -2 -2 -1 -2 -1 -4 1 -4 6 -2 -4 2 -2 -1 -3zm-154 310l1 -1 0 -1 0 -1 -2 0 -1 0 -1 -1 -1 -1 -1 1 0 4 -2 2 1 3 -1 4 2 1 2 0 -1 -3 2 -2 2 -2zm115 -137l1 3 3 0 1 -2 3 2 2 0 2 0 2 -2 1 -3 -1 -5 6 -9 -1 -11 -2 -2 -2 1 -6 3 -7 3 -1 3 2 6 0 3 -3 3 -2 8zm-63 75l0 -2 -2 0 -5 -2 0 4 1 0 4 0zm44 -80l-1 2 2 4 5 5 3 -1 1 -9 -1 -3 -2 -1 -1 -3 -2 0 -2 1 0 2 -1 0 -2 2zm-250 148l0 2 1 2 6 2 9 2 2 0 4 1 9 -2 -1 -1 -2 -1 5 -9 4 -10 -1 -2 -1 -1 -2 -1 -10 -3 -4 1 -4 2 -7 6 1 7 0 6 -2 1 -5 0 -2 -1zm-30 -28l-7 5 -3 1 -4 0 -9 -2 -5 0 -1 0 0 2 0 2 1 2 3 4 2 1 5 1 5 1 5 3 4 3 2 2 2 3 0 3 -2 3 2 1 2 -1 1 -1 1 -1 0 -2 2 -4 2 -2 9 -4 4 -3 2 -2 -1 -2 -6 -7 -4 -2 -5 -2 -6 -2 -2 0zm100 13l1 0 5 -7 0 -2 -5 0 -2 1 0 2 1 3 -1 2 2 1zm-89 -60l5 0 -1 -2 -2 -1 -3 -1 -3 0 -5 1 -1 2 0 2 3 1 3 -1 2 -1zm56 84l1 2 3 2 4 1 4 1 4 -1 2 -1 2 0 3 0 3 0 5 -1 9 -4 3 0 3 0 9 -3 3 0 2 -1 2 -1 6 -6 1 1 0 5 1 2 2 0 8 -2 2 0 3 1 1 0 0 -1 -1 -1 -3 -1 0 -2 3 -1 3 0 1 0 1 1 2 0 3 -1 1 -1 1 -2 -1 -2 -2 -1 -1 -2 0 -4 -2 -5 -3 -2 -3 0 -2 1 -2 1 -1 3 -1 -1 -1 -3 -2 -2 -3 0 -3 0 -2 1 -4 3 -2 0 -2 -2 -2 -2 -2 -5 -1 -1 -8 -1 -2 0 -5 2 -1 2 1 3 2 3 7 5 2 0 2 0 2 0 3 2 3 3 -1 3 -4 0 -6 3 -3 -1 -4 0 -4 -5 -2 -1 -1 -1 -1 -3 -2 -1 -6 0 -3 0 -6 -2 -2 0 -4 3 -5 2 -3 0 -2 1 -1 3 -1 3 1 6 -1 4 0 3zm-61 505l0 2 3 1 2 -3 0 -3 -1 -2 -3 3 -2 3zm7 -515l1 1 3 3 1 -1 0 -2 -2 -2 -1 0 -3 2zm32 -228l-5 3 -2 5 -2 6 0 4 2 5 -1 8 1 2 9 -8 -1 -2 1 -2 -1 -2 -1 -8 1 -2 0 -2 -1 -2 0 -6 -1 0zm8 6l-1 1 -3 5 3 4 2 -7 0 -3zm463 -141l0 -3 -1 -3 -1 1 -1 4 1 0 1 2 0 -1zm-6 21l3 4 4 2 -1 4 1 3 1 0 5 -2 1 1 1 2 4 2 3 -1 2 -2 -1 -2 -1 -2 -1 -1 -6 0 -2 -3 3 -6 -5 -6 -2 -1 -2 1 -2 3 -4 -3 -2 0 0 2 -1 3 0 2zm-80 -138l-1 2 2 5 0 -1 0 -2 2 -2 -1 -1 -2 -1zm163 -1086l-1 -1 -3 -1 2 4 4 1 0 -1 -2 -2zm-158 1548l3 2 3 -7 -1 0 -2 1 -3 4zm178 -266l6 4 9 2 2 2 5 -1 2 -2 2 -1 1 0 2 -1 -1 -1 -1 -2 1 -1 1 -4 -3 -2 0 -2 -2 0 -5 2 -4 0 -5 1 -11 5 1 1zm32 -1376l5 -1 2 -5 -1 -1 -6 -4 -5 4 2 6 3 1zm-290 1643l-1 0 -2 -1 -2 0 -3 1 0 1 1 1 2 0 -1 1 -5 4 -4 4 1 0 3 0 3 2 1 0 2 -2 3 1 1 -1 0 -1 0 -1 0 -1 2 -2 3 0 4 -5 6 -1 -1 -1 -2 -1 -3 -1 -7 4zm269 -1735l0 2 3 -2 5 -5 0 -7 -1 -2 -7 1 0 2 -2 6 2 2 0 1 -2 2 1 1zm-37 1511l-2 -2 -1 -2 -3 0 -3 1 -5 0 -9 -1 -16 1 -4 3 -10 12 1 3 1 2 0 2 -1 4 1 0 2 -3 3 -4 1 -2 1 -3 1 -2 2 -1 2 1 2 1 2 2 6 7 2 1 2 0 5 -1 2 -2 3 -4 2 -1 3 -1 3 0 1 0 0 1 0 1 1 1 6 1 4 2 5 1 6 2 2 -1 0 -3 0 -1 1 0 3 0 9 0 5 3 1 2 2 2 11 4 4 2 9 5 9 5 2 -12 -1 -2 -3 -5 -2 0 -2 -1 -1 -3 -1 -3 -2 -4 -8 -6 -3 0 -8 1 -5 -1 -10 -5 -6 -2 -2 -1 -2 0 -2 0 -2 1 -4 3 -4 2 -2 0zm50 -118l0 2 -2 2 4 2 7 0 2 4 1 0 1 -1 3 -1 0 4 2 2 6 -1 0 -3 -2 -2 -2 0 -2 0 -3 -5 -2 -2 -1 -2 3 0 5 6 4 2 2 3 2 1 4 -1 3 1 2 1 2 0 3 -3 -2 -2 1 -2 -2 -2 -11 -5 -2 0 -7 -2 -4 1 -6 1 -2 1 -2 0 -3 2 -3 -1 -3 1zm-262 245l-1 -3 -2 -1 0 3 1 1 2 2 0 -2zm-14 152l-2 4 -1 6 -2 5 0 2 5 3 -1 2 -2 2 -1 2 0 2 2 2 4 2 5 0 5 -2 9 -5 6 -1 4 -1 3 -3 4 -4 4 -3 6 -7 5 -4 2 -4 9 -7 8 -5 14 -5 4 -1 2 0 2 0 5 -3 4 -2 4 -1 5 -1 4 -2 3 -3 4 -2 5 -1 5 -2 8 -6 8 -7 -2 -1 -2 -1 -7 -1 -4 -1 -3 1 -2 2 -5 2 -5 2 -4 0 -15 1 -11 0 -4 0 -18 4 -2 1 -6 2 -3 3 -4 6 -6 5 -8 4 -3 2 -3 2 -16 4 -9 5 -4 3 -7 7zm9 -49l4 0 2 5 3 -1 2 -1 2 -5 3 -3 1 -4 -1 -1 -1 0 -1 0 -5 7 -1 0 -1 -2 -2 0 -2 2 -2 4zm19 -1l3 1 27 -4 1 -1 0 -5 -3 -1 -5 -1 -7 0 -3 0 -3 1 -1 -3 -3 0 -3 2 -2 3 1 2 -3 4 1 1zm-22 -270l-3 -3 0 2 1 3 3 0 -1 -2zm75 -223l1 -1 -1 -2 -2 -4 -2 -4 -3 -3 -1 2 1 2 1 2 1 2 0 4 5 2zm18 244l0 -4 -4 -8 1 -7 -1 -2 -2 0 -2 3 0 2 2 6 1 2 2 6 3 2 1 -1zm-11 -392l0 -7 -3 -2 -1 5 1 1 3 6 1 -2zm1 619l0 4 1 0 5 -3 4 -1 3 0 3 1 6 0 7 1 2 -3 2 -3 5 -2 5 -1 0 -1 -1 -2 -3 0 -5 -4 -6 2 -4 3 -6 1 -5 0 -5 -1 -6 6 -2 3zm-21 -251l0 -3 -1 -1 -2 -1 -3 0 0 -3 -2 -1 -1 0 -1 2 -1 0 -4 -1 -13 -3 -8 0 -3 1 -1 1 -2 7 4 6 4 0 5 -1 8 -3 7 2 5 -2 8 0zm3 -1l2 2 0 2 2 0 15 -1 5 0 14 -2 2 -2 -13 -1 -13 1 -8 -1 -3 0 -2 1zm172 -71l2 2 2 0 0 -2 -10 -8 3 5 4 3zm717 84l1 2 1 0 3 -2 3 0 2 -1 8 2 6 0 3 -1 3 1 4 -4 1 -1 2 0 2 0 0 -2 -1 -1 0 0 0 1 -1 0 -14 -3 -9 -1 -4 1 -4 0 -3 2 0 4 -3 1 0 1zm-783 -1595l2 -1 2 3 3 0 0 -5 -1 -3 -3 -1 -2 -1 -4 2 0 3 1 4 1 0zm59 19l3 2 1 -2 0 -3 4 -6 0 -4 0 -2 0 -1 -1 -1 -5 4 0 1 0 3 -3 7 1 1zm879 1586l-5 1 -6 3 1 1 2 1 2 4 3 2 3 1 8 -1 0 -1 0 -4 0 -1 -1 -2 -9 -4zm-946 -1219l-3 5 0 2 0 3 3 0 3 -2 0 -1 -1 -2 0 -2 3 -3 2 0 -2 -2 0 -3 4 -1 4 -3 4 -1 2 -2 4 -2 2 -3 1 -4 -3 -3 -2 4 -4 4 -1 2 -2 1 -1 0 -2 -1 -4 -1 -1 1 0 2 2 2 -1 2 -4 4 -1 1 -3 1 0 6zm-13 1073l4 9 4 3 0 2 -1 2 -1 3 0 3 1 5 3 4 2 2 2 2 -1 6 0 5 0 5 -1 3 1 3 2 2 5 3 1 2 5 10 1 2 8 3 2 3 6 1 -4 -3 -3 -4 -7 -10 -5 -10 -4 -12 1 -4 0 -2 -1 -4 1 -3 1 -3 2 -1 5 0 5 2 5 1 5 0 4 2 15 5 -2 -2 -2 -2 -3 -1 -2 -2 0 -3 -1 -3 -2 -2 -9 -4 -6 -4 0 -3 2 -3 2 -1 7 -3 7 -4 1 -2 1 -11 -1 -4 1 -3 -1 -2 -6 1 -5 2 -8 5 -3 4 0 3 0 3 -2 1 -3 1 -4 3 -2 4 0 2 -2 2 -3 0 -3 -1 -2 -2 -2 -2 0 -2 1 -2 10 -6 4 -5 1 -2 1 -5 0 -5 -1 -5 -3 -4 -3 -2 0 -3 1 -2 5 -7 0 -2 0 -2 -3 1 -3 2 -7 7 -4 5 -3 6 -1 3 -1 3 0 4 -5 9 0 5zm84 -1389l0 1 -2 3 2 0 3 -2 1 -3 3 -4 -1 0 -3 1 -2 3zm-264 1510l-1 1 -1 1 -1 2 0 2 3 -3 -1 -2zm280 -1533l-1 -4 -2 -1 -1 1 -1 4 2 2 3 -2zm-26 -19l1 3 3 -2 2 -5 0 -3 -5 -2 -1 8zm18 37l-1 5 4 2 6 5 4 3 1 2 3 6 -4 0 -3 -2 -2 -4 -4 -3 -1 3 0 3 1 3 4 4 2 3 -1 4 -2 3 4 -2 4 -5 4 -2 4 1 2 2 2 1 2 0 2 -1 1 -3 0 -3 -1 -2 -2 -1 -2 1 -2 0 0 -4 0 -4 -2 -4 2 -2 3 -2 2 1 4 3 2 7 4 6 1 4 -3 4 3 1 3 0 -3 8 -4 7 -3 4 -3 4 -4 1 -1 1 0 7 1 5 -1 4 2 2 2 2 2 4 -1 5 -1 2 -1 1 -5 1 2 5 2 1 3 0 12 4 1 -2 1 -2 -3 -4 -1 -2 0 -3 1 -5 2 -5 2 -2 2 0 3 1 1 2 0 2 -1 1 -1 0 -2 1 0 2 3 7 1 5 -1 5 -1 2 -1 1 -1 2 0 2 9 -4 8 -7 -3 -6 2 -3 3 0 5 1 4 0 5 -12 1 -5 -1 -5 2 -5 1 -5 1 -5 2 -5 2 -6 3 -6 10 -12 1 -2 0 -2 -4 -3 1 -2 0 -2 -2 -2 -2 -1 0 -3 2 -3 -8 0 -8 -1 3 -6 4 -5 1 -2 -1 -2 -2 -2 -3 -1 -4 1 -3 2 -2 1 -2 0 -6 -1 -5 -3 -2 -5 -2 -4 -5 -2 -5 0 -2 1 -8 4 -1 2 -1 3 -3 5 -4 2 -5 0 -2 1 -1 2 -1 1 -6 2 -4 2 0 2 1 1 -1 2 -6 -2 -2 0 -2 1zm-14 235l4 3 4 -4 -1 -2 1 -1 2 -1 3 -3 3 -2 3 -1 0 -2 -1 -2 -4 2 -1 1 -1 1 -2 2 -2 0 -6 2 -3 2 0 1 -1 1 -2 1 5 2zm1025 1373l-1 0 -2 2 3 1 0 -1 0 -2zm-172 -112l-1 2 0 3 5 4 1 0 3 1 0 -1 -2 -5 -4 -3 -2 0zm84 -363l0 0 0 0 3 0 0 -1 0 -1 0 -1 -1 -1 -1 0 -1 0 1 0 0 1 -1 0zm20 431l1 0 0 -2 -1 -1 -4 -3 -1 1 1 1 4 4zm-118 107l-5 -2 -5 -2 -9 1 -3 -1 -2 0 -2 1 -2 0 -6 -2 -4 3 0 5 3 4 5 2 5 1 4 2 4 2 12 8 1 0 6 -2 5 0 4 2 5 6 2 1 4 0 4 0 14 0 10 -1 2 -1 5 -3 5 -2 2 -1 2 -2 5 -2 5 -1 2 -1 6 -3 4 -3 4 -4 1 -2 1 -2 0 -3 1 -2 8 0 7 1 4 -2 5 -3 3 -4 -3 -5 -4 -4 0 -3 1 -3 6 0 2 -1 2 -1 4 -5 2 -4 0 -4 -1 -3 -1 -3 2 -6 -4 -1 -4 -1 -3 -3 -6 4 -2 -1 -2 -1 -2 -2 -5 -1 -5 0 -1 2 -1 2 0 2 5 12 1 5 0 5 -4 2 -6 0 -2 0 -2 1 -8 6 -3 4 -2 5 -3 4 -2 1 -2 0 -2 1 -2 2 -5 0 -4 -3 -5 1 -4 3 -5 -1 -3 -4 -1 -5 0 -5 1 -2 3 -3 -2 -2 -1 0 -2 1 -1 4 -2 13 -6 3 -6 0 -2 0 -7 2 -5 0 -5 0zm171 242l-4 -1 0 1 1 3 4 2 -1 2 3 -1 1 3 6 1 1 2 6 -1 3 -1 -2 -2 -7 -2 -10 -5zm-55 -361l-2 -1 -1 2 0 3 1 0 2 -1 0 -3zm-53 0l4 2 5 0 4 2 14 9 3 3 5 2 9 8 4 3 4 2 2 1 5 1 2 1 4 3 3 4 10 14 3 6 1 6 0 3 -1 3 0 3 3 6 2 3 2 3 2 3 3 -3 2 -4 1 -4 0 -4 3 -4 1 -2 0 -4 -5 -6 -27 -22 -2 -3 -6 -5 -5 -5 -1 -1 -9 -3 -5 -4 -4 -3 -5 -3 -7 -3 -4 0 -2 -3 -8 -4 -7 -5 1 3 -1 3 -3 1zm47 -425l0 0 0 1 0 0 1 0 1 -1 0 0 -1 0 -1 0zm34 442l-1 -4 -3 1 -1 1 2 3 3 2 1 -4zm-1046 -1634l-2 2 2 2 0 -1 -1 -3zm353 1991l7 -3 2 -1 4 -3 0 -2 -1 1 -8 4 -4 4zm-65 -207l1 1 1 -1 2 -3 0 -2 -2 0 -1 1 -1 2 0 1zm5 -23l0 -3 0 -2 -2 -4 2 -3 -1 -3 0 -3 0 -2 -2 -4 -2 -1 1 -2 -1 -2 -1 -2 -2 0 -3 0 -1 4 -1 1 -5 7 -4 -1 -2 1 1 2 5 4 -2 6 0 2 -3 0 -3 0 0 2 1 1 4 3 1 1 3 3 4 3 8 1 1 -1 1 0 1 -1 1 -4 1 -1zm2 9l0 2 1 0 3 -5 -1 0 -1 1 -1 2zm-3 5l-2 -2 -2 1 1 3 2 0 1 -2zm-86 -25l1 0 2 1 3 -4 0 -3 -3 -5 -1 -1 -1 -2 -3 0 2 5 -1 5 1 2zm-5 227l1 -1 1 -6 -1 -3 0 -5 -1 -1 -2 3 -2 0 1 3 -1 2 3 7zm18 -239l-3 3 -1 4 -3 8 3 -4 2 -7 6 -7 2 -9 -1 -1 -1 0 -4 13zm19 -59l-6 -4 1 2 7 4 5 2 -2 -2 -4 -2zm29 95l-2 0 -2 12 1 3 5 3 5 -3 1 -1 2 -6 4 -4 1 -3 1 -3 -5 -2 -4 -3 -4 -4 -3 -2 -2 1 0 3 1 7 3 1 0 1 -1 0zm229 419l-1 0 -5 2 -7 1 -3 3 -3 4 -1 4 0 1 3 -1 2 0 3 -1 2 -2 2 1 3 -4 2 -2 6 -1 -4 -5zm-362 -1999l3 -5 1 -7 -1 -2 -1 0 -1 1 -3 6 0 4 -3 6 0 3 4 0 1 -6zm477 1736l-2 -2 -3 0 -1 2 1 2 3 1 3 -3zm-7 -2l1 -3 -2 -1 -2 3 2 3 1 -1zm-438 -127l1 1 2 1 3 0 2 2 2 1 1 -2 -3 -4 -7 0zm288 53l11 1 2 -1 0 -2 -4 -7 -1 0 -4 1 -2 3 -2 2 0 1 1 2zm-88 304l0 2 1 0 2 0 1 -4 -1 0 -3 0 -1 2zm21 8l2 2 2 -2 -1 -2 0 -3 -2 -3 -1 2 -1 1 -1 2 2 1 0 2zm-6 -6l1 0 1 -1 -1 -4 -1 2 0 4zm86 -327l4 -8 -1 -5 -3 -3 -4 -4 -1 -1 -9 0 -10 2 -5 2 -4 3 -3 3 -7 12 -6 14 -1 5 2 1 8 -1 5 0 13 1 10 -6 3 -3 7 -6 4 -7zm-82 268l1 -3 -1 0 -2 1 -4 -2 -2 -2 0 -2 2 -5 1 -2 1 0 3 -3 -1 -2 -1 -1 -1 -1 -2 4 -2 0 -2 -2 -1 -3 0 -2 -2 0 -3 2 -2 3 -5 3 -1 6 1 5 -1 2 -2 2 1 1 4 0 8 2 5 0 6 1 2 -2zm-9 -131l-1 1 -2 1 -4 6 -2 1 0 2 3 -3 6 -8 2 -8 -2 1 0 3 -1 2zm-365 -402l-5 -4 -7 -3 -4 -1 -2 1 -6 4 -3 6 0 2 3 2 4 1 8 -2 7 0 6 1 1 0 3 -2 0 -2 -5 -3zm-21 72l-2 1 2 2 4 1 -1 -2 -2 -3 -1 0zm11 203l1 3 9 3 4 -4 -1 -2 -4 0 -7 -2 -2 1zm17 -183l2 -1 1 -2 0 -2 1 -1 1 -1 1 -2 -3 0 -6 3 -4 1 -4 3 0 1 0 2 2 1 3 -2 2 -1 2 0 0 1 -1 1 2 0zm-9 -33l-2 1 -4 2 1 1 4 0 2 -3zm156 175l-2 -1 -3 1 -1 1 0 2 -2 1 -2 3 -1 1 -3 4 -2 1 -2 1 -3 6 0 2 -2 1 0 4 -2 3 2 2 0 3 3 0 5 1 1 0 1 -1 0 -1 1 -3 4 -4 1 -2 3 -2 2 -2 3 -8 -2 -7 4 -3 -2 -2zm-300 343l-1 0 -1 1 -1 2 2 2 0 2 1 0 2 -1 0 -2 -2 -2 -1 -2zm121 -323l2 -1 0 -1 0 -2 -4 -1 0 3 -1 3 3 -1zm-95 288l-2 2 -1 4 2 2 3 -3 0 -1 0 -3 -2 -1zm86 -580l-2 6 1 1 4 1 1 -1 0 -1 -2 -6 -2 0zm-178 142l0 1 1 4 3 3 3 0 4 -5 0 -3 -2 -2 -8 -1 -2 2zm314 -131l-2 2 18 -3 2 -1 1 -2 -4 0 0 2 -4 0 -4 0 -2 1 -1 0 -1 0 -1 0 -2 0 -1 1 -1 1zm8 -15l2 -2 -1 -1 -2 -1 -1 0 -1 1 -2 0 -3 2 4 2 2 0zm4 24l1 3 2 3 3 3 5 1 1 -1 2 -5 1 -9 -2 -2 -4 0 -2 -1 -9 3 0 1 2 3 0 2zm10 453l14 -9 4 -5 3 0 0 -3 3 -3 -1 -1 -2 -1 -2 -3 -5 -3 -2 -2 -2 2 -3 1 -5 3 -1 0 -3 -1 -7 3 -6 0 -3 -3 -2 -1 -4 -4 -1 0 -1 0 -1 1 2 4 1 6 4 7 6 5 13 8zm-94 -349l0 -2 -1 -1 -1 0 -3 -1 0 1 1 3 2 0 2 1 0 -1zm57 339l-1 4 1 2 2 0 8 -2 8 3 4 -1 0 -2 -1 -2 -2 -1 -3 -1 -1 -4 -2 -3 0 -4 -2 -4 -2 0 -2 1 -4 5 1 3 0 5 -2 2 -3 -1zm-68 -342l-1 1 -2 4 7 -2 -1 -2 -4 -1zm9 149l-1 -1 -2 1 -2 2 1 1 3 2 2 -1 0 -2 0 -1 -1 -1zm100 47l6 -3 -4 0 -3 -1 -8 7 -2 3 4 -1 2 -3 6 -1zm-60 -17l0 1 0 4 5 5 3 0 2 -4 0 -3 -1 -3 -7 -1 -2 0zm4 -1691l-1 4 1 -1 3 -4 0 -2 -3 3zm410 2082l-2 2 1 2 2 -1 5 -1 0 -2 -3 -2 -1 3zm-146 -648l-5 0 -17 -2 0 1 1 2 16 3 8 3 6 1 1 1 4 -1 6 1 7 -1 4 -1 8 -2 -3 -2 -4 -1 -14 -1 -8 -3 -9 -1zm8 -27l-4 -4 -7 -6 -2 -1 -4 1 -3 -2 -3 0 -9 -2 0 2 2 3 2 1 0 -1 1 0 5 4 4 -2 3 9 1 4 3 2 4 0 5 2 2 0 6 -2 3 -3 -4 -1 -5 -4zm85 -438l1 -2 -1 -2 -2 0 -1 1 -1 2 -1 2 0 1 3 -3 2 0zm313 -290l1 1 1 0 1 0 0 -1 -1 -1 -3 0 0 1zm-144 -449l-2 -3 -2 -1 -1 0 3 5 1 0 1 -1zm147 346l0 -1 -1 -1 -2 0 0 2 1 1 1 -2zm-21 199l2 -2 0 -1 -1 0 -3 1 0 1 1 1 2 0zm-22 36l2 0 2 -6 7 -7 -1 -1 -1 -1 -2 0 -2 4 -6 4 0 5 0 1 2 1zm-424 237l-2 1 -2 3 0 4 1 3 3 -1 0 -2 1 -3 1 -7 0 -2 -2 4 0 0zm-114 345l-4 2 -14 3 -7 2 -2 1 0 2 0 2 0 2 -3 7 -2 2 -3 1 -2 2 -2 4 0 2 3 1 3 0 3 0 3 -1 2 -2 18 6 4 1 4 0 0 6 3 9 1 2 2 2 2 2 4 3 4 3 4 0 4 -1 5 1 10 1 4 0 11 -2 6 0 6 0 9 -2 9 -4 0 2 -1 1 -2 2 -2 3 5 0 0 4 -1 1 -2 0 -3 1 -2 4 -1 3 -2 -1 -2 -2 -3 0 -5 -1 -6 -2 -3 -1 -3 1 -4 2 -6 7 -7 5 -3 -1 -3 -2 -11 -2 -4 0 -7 3 -4 1 1 3 2 2 2 1 6 1 4 1 9 6 8 7 3 5 2 6 -5 6 2 5 2 5 1 2 2 2 2 2 5 -1 5 0 2 0 6 -7 1 -2 -1 -2 0 -2 4 -5 1 -4 -1 -4 3 0 2 -2 0 -7 0 -2 1 -2 3 -2 3 0 -3 4 -4 4 -1 3 0 7 2 4 4 3 2 1 2 2 1 2 2 2 3 0 3 -1 2 0 1 1 1 3 3 2 5 -1 3 2 3 1 2 0 4 -2 2 0 5 1 -8 1 -1 2 0 3 3 5 19 11 3 0 3 0 4 0 11 1 11 2 5 2 5 3 8 2 10 5 10 3 3 0 2 1 2 1 3 0 2 1 2 2 2 -1 2 -1 1 3 19 10 2 2 2 2 2 0 1 1 3 2 3 2 1 3 -1 3 0 2 1 1 2 0 2 0 4 -1 4 -1 -4 2 -2 3 3 1 4 0 -3 2 -1 3 3 7 3 9 3 5 5 4 2 3 1 4 3 2 2 3 -8 1 -4 1 0 1 5 6 5 3 9 3 3 0 3 0 -5 2 -2 0 -4 -1 -2 0 -3 1 -2 1 2 2 3 2 1 1 2 4 2 1 3 1 2 3 -1 2 -1 2 -2 6 -3 3 -1 5 -1 2 -1 2 0 2 1 2 2 1 6 -5 5 -2 2 -4 0 3 1 3 2 2 3 1 6 -1 6 -2 6 -1 6 0 4 -3 3 -4 -3 7 -2 2 0 1 1 1 4 4 16 13 4 4 3 5 5 5 6 5 9 6 3 0 3 -2 5 -1 5 2 4 1 4 0 11 -1 11 -1 3 1 4 2 2 1 4 3 5 1 9 -5 9 -5 6 -2 6 -3 1 -2 0 -4 -1 -2 -3 -4 -4 -4 -5 -4 -2 -1 -2 -1 -9 -4 -9 0 -4 1 -4 -2 -1 -3 -1 -2 -5 0 3 -1 3 0 1 2 1 2 2 3 3 0 4 -1 4 -1 4 1 4 1 8 0 8 -2 7 -1 7 -2 -1 -4 -2 -4 -1 -1 1 -1 5 0 5 1 2 0 2 0 -2 -3 2 0 2 0 -8 -17 -4 -4 3 2 2 2 2 3 3 2 3 1 7 2 3 0 2 -2 2 -2 1 0 2 1 1 0 1 -3 3 -1 4 1 4 1 4 1 4 0 1 4 2 2 2 1 5 1 5 1 4 1 8 3 4 1 7 0 2 1 2 1 9 4 2 2 1 2 1 2 2 2 3 4 2 5 7 8 3 4 4 8 3 3 7 3 2 0 2 -1 -1 4 0 4 4 6 2 2 10 6 5 4 4 5 2 5 3 2 2 2 4 2 5 1 7 2 2 0 2 -1 5 1 5 2 2 0 7 -1 3 -1 3 0 5 3 4 1 18 1 8 2 5 0 4 1 3 2 5 4 1 1 1 3 5 2 7 1 4 0 2 -1 6 -3 1 -2 -2 -1 -5 -2 -3 -4 2 -1 8 1 2 -1 7 -3 -8 1 -5 -2 -7 -1 -3 -1 -3 -2 -5 -2 -5 -1 -2 -1 -2 -1 -2 -3 -2 -3 0 -3 4 -1 3 0 2 -1 1 -2 -2 -1 -5 -1 -5 -1 -12 -1 -2 -1 -7 -3 -3 -4 1 -5 2 -5 -1 -5 -2 -2 -2 -1 -2 0 -13 3 -5 0 -4 -2 -2 -5 -3 -10 -2 -1 -7 -5 -1 -2 0 -2 -1 -5 -2 -7 -1 -2 -8 -5 -5 -2 -4 -3 -8 -7 -4 -4 -4 -3 -4 -3 -3 -4 -4 -9 -6 -10 -1 -2 0 -2 7 -5 10 1 15 -1 4 -1 1 -2 0 -5 -1 -7 -1 -2 -2 -1 -1 -1 -3 -4 -4 -4 -2 -2 -4 -2 -2 -1 -5 0 -5 0 -4 -1 -27 -13 -8 -3 -9 -2 -6 -1 -5 -3 2 -9 0 -12 -1 -3 -18 -18 -5 0 -5 -1 -3 -3 -3 -4 -4 -4 -4 -3 -5 -2 -3 -3 -1 -2 -2 -1 -2 -1 -2 0 -5 1 -5 0 -2 0 -2 -1 -5 -4 -4 -3 -4 -2 -8 -6 -6 -2 -10 -2 -5 0 -5 -1 -15 -5 -14 -5 -9 -5 -2 0 -2 0 -2 -1 -6 -4 -21 -9 -3 -1 -15 0 -1 -4 -2 -2 -2 -1 -14 -1 -2 0 -2 -2 -2 -1 -12 0 -3 0 -13 -6 -10 -5 -4 -3 -5 -2 -5 -1 -4 -2 -3 -3 -4 -2 -23 -7 -4 -2 -4 -3 -4 0 -8 3 -10 5 -9 5 -2 2 0 2 2 4 0 2 -4 3 -10 4 -10 1 -9 2 -2 2 -2 4 -1 4 -1 2 -10 6 -1 1 -3 6 -3 4 -10 8 -3 3 -3 3 -5 1 -5 0 -7 -1 -2 -1 -5 -3 -1 -2 -1 -4 0 -5 -1 -3 -3 1 -3 0 -2 -9 0 -5 -1 -2 -3 -1 -2 1 -1 2 0 5 -1 5 -4 -9 -7 -13 -2 -5 -1 -5 0 -5 -1 -5 -1 -5 2 -4 3 -4 1 -2 1 -5 -1 -2 -2 -4 -3 -4 -2 -4 1 -4 1 -2 -4 -3 -2 -1 -5 -1 -5 0 -11 -1 -9 -4 -8 -5 -9 -4 -10 -2 -5 0 -5 0 -11 4 -2 2 -2 2 -3 2 -3 3zm-30 -154l0 -1 -1 0 -1 0 -1 1 0 1 1 0 1 0 1 -1zm58 -1350l-1 -1 -1 -2 -1 0 -1 2 -1 2 4 1 1 -2zm-9 13l2 -2 1 -2 -1 0 -5 1 -2 -2 -2 0 0 1 0 3 2 0 4 1zm560 830l1 0 2 0 0 -1 1 -2 0 -2 1 -2 -2 0 -3 2 -1 4zm-476 719l-1 2 0 2 1 -1 2 -3 -1 -1 -1 0 -1 0zm23 -46l-3 2 -1 2 2 3 2 1 2 -1 1 -3 -2 0 -1 -2 -2 -2zm669 402l-1 2 1 1 3 1 1 -3 -1 -1 -3 0zm-210 -1205l-1 1 -3 4 2 -1 2 -2 -1 -2zm-109 1116l2 3 3 1 6 4 6 3 -1 -2 -6 -5 -6 -2 -4 -2zm16 2l0 -1 0 -3 -2 -1 -9 0 2 2 7 3 2 0zm228 503l1 -1 0 -1 -2 -2 -1 -3 -2 6 2 1 1 0zm-4 -10l-1 1 -1 2 1 0 1 0 1 -1 1 -4 -2 1zm-113 -80l-1 1 -2 1 -4 0 1 2 3 3 2 4 3 1 1 -2 1 -2 -2 -3 -1 -4 -1 0zm195 -370l-4 -4 -2 -1 -3 1 -6 -3 -1 0 -3 1 0 1 0 2 3 4 -1 1 -2 3 6 0 4 1 6 0 2 0 0 2 2 -1 0 -1 -1 -2 0 -3zm-365 53l3 -2 -3 -5 -3 2 0 1 1 3 2 1zm143 -1080l0 1 1 3 2 -2 -1 -4 -1 0 -2 1zm16 820l-2 2 -1 3 1 3 2 1 3 -1 1 -4 -1 -3 -2 -1 -2 1zm77 40l0 4 4 5 4 2 1 2 2 0 1 -3 1 -5 -1 -2 -9 -5 -2 0 -1 1zm139 121l-2 1 -2 3 3 2 0 1 0 2 -1 4 3 3 -1 -3 1 -7 -1 -2 0 -4 -1 0zm-164 -125l2 -2 -1 -5 -3 -3 -5 3 0 2 1 1 4 4 2 0zm133 171l1 -1 1 -4 0 -2 -2 -4 -5 -2 -3 2 -1 4 7 6 2 1zm-106 -303l-1 2 -2 0 1 1 3 0 1 -2 -2 -2 -1 1zm126 312l-2 -1 1 3 3 4 1 4 2 1 0 4 9 3 2 2 3 -10 -2 -1 -3 1 -3 3 -2 0 -2 -2 0 -2 -8 -6 -2 -3zm-2430 -909l-2 1 1 2 3 3 -2 -6 -1 0zm5 160l2 0 -1 -2 -2 -4 -1 1 -1 2 2 2zm-52 -566l3 0 1 -4 -1 -3 -1 -2 -1 0 -2 1 1 6 -1 2 1 1zm-14 -38l0 -2 -1 -3 -2 -4 -1 -2 -1 1 -1 5 2 4 2 1 2 -1zm-17 1l-3 -7 -1 18 4 -3 1 -5 -1 -4zm78 110l-1 -4 -2 -5 -2 -2 0 4 3 6 2 2zm-12 294l-1 -1 -1 0 -1 1 0 6 1 -3 1 -4zm-4 35l0 4 -1 3 -2 1 -1 2 1 2 1 5 4 8 1 1 1 -1 2 -4 0 -5 1 -5 0 -2 -1 -1 -1 -2 2 -2 1 -2 3 -4 1 -2 -1 -9 3 -1 2 -4 -1 -13 -3 -4 1 -1 2 -4 2 -1 2 -3 1 -3 0 -1 -2 -4 3 -3 0 -2 0 -5 -1 0 -4 2 -3 5 0 5 -2 8 1 2 -1 5 -2 2 -1 2 1 5 -1 2 -1 3 0 8 1 1 2 1 0 3 -1 0 -3 0 -1 1 -2 3zm-33 -421l-1 2 -1 3 1 3 2 -4 0 -2 -1 -2 0 0zm280 434l-6 1 1 3 0 1 2 5 1 0 3 1 1 -9 -1 -3zm443 -333l-7 6 -5 3 -4 3 -1 1 -1 2 -1 15 0 2 2 5 1 9 9 5 5 2 6 2 7 1 2 1 5 3 3 0 4 -1 1 -1 2 -4 2 -2 6 -1 2 0 2 -1 0 -1 -1 -1 5 -3 4 -4 2 -1 2 0 3 -1 2 -2 1 -3 2 -7 2 -6 0 -2 0 -2 1 -2 2 -4 8 -12 4 -1 4 -3 -1 -5 -1 -5 -1 -3 -2 -2 -3 -1 -3 -2 -3 -3 -1 0 -2 2 0 1 0 4 -7 -3 -1 0 0 2 0 2 -2 -3 -5 -1 -2 0 -4 3 -7 1 -11 -1 -3 1 -3 3 -4 1 -4 -1 -2 1 -2 2 -2 3 2 0 2 0 -4 4 -5 3zm-36 670l-1 0 -4 3 3 2 6 -2 3 -6 0 -2 0 -5 -6 -7 0 -3 -2 1 -8 7 0 3 2 4 2 2 7 2 0 1 -1 1zm34 107l-3 3 -2 9 0 5 1 11 1 7 5 4 3 4 1 2 2 2 1 1 0 1 -3 2 -1 5 -1 2 -1 3 0 5 0 2 1 2 4 3 5 3 0 1 -2 1 -2 2 -1 3 1 2 2 1 5 0 10 3 4 3 4 4 3 3 2 4 2 5 1 5 -1 5 -3 4 0 5 5 4 1 2 1 10 4 19 0 10 1 2 2 1 2 -2 1 -1 8 -2 4 5 1 1 1 -1 3 -2 4 -1 -2 2 -1 2 2 2 3 1 5 -1 9 -4 5 -1 5 2 6 0 1 -2 2 -2 3 2 2 3 1 2 1 10 0 5 -1 5 2 1 2 0 2 -1 7 -6 7 -3 7 2 7 1 7 -3 9 -6 3 -11 13 13 1 -1 2 0 5 -2 2 0 2 1 1 2 0 4 0 4 3 1 4 0 7 -3 5 -5 1 0 1 2 2 1 2 0 2 -2 2 -3 -2 5 0 2 2 1 2 1 2 0 3 -4 0 5 3 9 1 17 1 2 2 1 24 -11 29 -13 2 -3 1 -4 2 -4 4 -5 1 -2 2 -1 2 -1 -4 -4 -1 -2 1 -2 3 2 3 -1 2 -2 1 -3 1 -5 0 -5 -3 1 0 -2 2 -1 2 0 2 1 3 -1 1 -4 1 -5 -2 -4 -5 -1 -2 -1 -2 -1 5 -4 1 -5 -1 -2 0 -3 -3 0 -3 0 1 -2 1 -1 6 -3 2 -1 1 -2 0 -3 2 -2 4 -2 2 -2 1 -3 0 -2 -1 -2 0 -2 1 -2 1 3 2 3 2 1 3 0 4 -1 3 -3 3 -4 4 -4 5 -2 7 -3 2 -1 0 -2 -1 -2 0 -5 -4 -10 0 -5 2 -18 1 -4 8 -16 1 -1 3 -1 3 -2 2 -2 1 -3 -1 -3 -2 -3 4 2 3 5 4 2 5 1 9 1 9 -1 6 -2 4 -4 -1 -3 -5 -2 -9 -9 -7 -4 -13 -9 -3 -3 -6 -7 -3 -4 -1 -1 -2 -1 4 -1 0 -1 3 -3 4 -2 1 -2 0 -2 -1 -2 -6 -7 -3 -5 -1 -3 -2 -1 -3 -1 -1 -1 1 -1 1 -1 -3 -1 -3 -1 3 -1 -1 -2 0 -2 -2 -1 -3 0 -4 -3 -3 -1 -1 -2 3 -5 -2 -3 -8 -7 -2 -1 -2 0 5 -1 5 0 7 0 2 -2 1 -3 2 2 3 2 4 0 3 -2 -1 -2 -1 -2 0 -1 -4 -3 -3 -2 0 -2 -4 -4 1 -2 3 -1 2 -2 2 -4 2 -2 2 0 7 3 5 1 5 -2 5 -1 6 -1 6 -1 2 -1 2 -1 0 -2 -1 -2 -10 -7 -6 -7 3 -7 2 -1 3 0 7 2 5 0 10 -2 9 -3 4 -2 1 -2 1 -2 0 -3 0 -2 -1 -2 -2 -1 -5 1 -2 0 -2 0 -10 -5 -5 -1 -1 -4 -2 -2 -2 -1 -4 -2 -2 -1 -2 0 -4 3 -5 2 -2 0 -2 -3 0 -1 6 -2 2 -1 -2 -5 -2 -3 -5 3 -3 1 -13 2 5 -2 1 -3 0 -3 -1 -5 3 -3 0 -3 -1 -3 -1 -2 -2 -2 -5 -2 -5 -2 -4 -3 -2 -4 0 -2 0 -4 -1 -1 -4 -1 -2 2 -3 5 -4 6 -4 2 -1 0 1 -4 1 -3 0 -2 -1 -5 -2 -2 -1 1 -9 16 -2 3 -15 16 -1 5 -2 5 -6 7 -2 5 -3 3 -2 0 -2 0 -3 -1 -1 -2 -2 2 -6 6 0 3 2 3 5 3 -1 4 -1 2 -4 3 -2 2 -10 1 -5 0 1 -3 0 -2 -2 0 -6 3 -4 3 -4 3 -4 3 -5 3 -5 2 -5 1 -5 0 -2 1 -1 1 0 3 0 3 -1 6 -1 2 -9 10 -11 11 -5 7 -8 9 -4 6 -2 2 -3 1 -8 3 -26 7 -16 3 -4 1 -5 3 -3 5 0 6 0 3 0 2 -2 1 -2 0 -2 -1 -2 -2 -1 2 -1 3 1 4 2 2 -1 3 -2 3 -1 3 -1 7 -2 2 -3 2 -1 3 1 3 3 2 4 2 -3 0 -2 -1 -7 -5 -2 -1 -5 0 -4 -1 -12 -6 -2 -1 -2 1 -2 0 -6 0 -5 -1 -5 -2 -6 -4 -1 -1 -3 -6 -10 4 -3 4 -2 5 -4 4 -4 5 -1 2 -2 8 2 0 1 0 2 0 -2 1 -2 1zm58 -839l-2 -2 -3 1 -2 2 1 1 2 0 3 0 3 2 1 -2 0 -1 -1 -2 -4 1zm150 -50l0 -3 2 -2 -7 2 -2 2 1 1 1 0 5 0zm-270 1062l0 1 0 3 2 3 -1 4 2 0 7 -2 1 -3 1 0 3 2 1 2 0 2 3 0 1 -1 4 -2 1 -2 1 -4 4 -7 -3 -6 -6 -4 -8 -2 -2 -1 -7 2 -1 7 -2 3 0 3 -2 2 1 1zm279 -1062l0 -1 0 -1 -3 -1 -2 0 0 1 3 3 1 -1zm-67 22l-4 2 -1 2 1 0 4 -1 0 -3zm5 6l1 -1 0 -4 0 -1 2 -2 -1 -1 -2 0 -1 2 -2 2 1 1 0 2 1 2zm-59 797l-1 0 -1 1 0 13 2 2 1 -1 0 -2 0 -5 0 -6 -1 -2zm-271 129l1 0 1 -1 2 0 -2 -1 -2 -1 -3 -3 -2 2 -1 -1 -3 -3 -3 -1 0 -1 -1 -2 -4 -2 -2 6 -2 3 1 1 4 1 6 -2 9 5zm-14 -61l0 -3 -4 2 -3 -1 -3 1 -5 3 0 1 0 3 2 0 6 -1 1 2 -1 2 2 1 0 1 0 1 1 1 3 1 1 -1 2 -4 0 -4 -1 -2 -2 -2zm3 43l-5 -5 -2 0 4 6 1 1 1 1 2 1 0 -1 -1 -2zm-12 21l-1 -1 -1 0 -1 0 -2 3 3 3 1 5 2 -3 3 1 1 -1 2 -3 2 -2 -1 -1 -4 -4 -5 3zm131 104l1 -2 -1 0 -2 0 -1 1 0 1 1 1 2 -1zm-91 -43l-5 2 -2 2 0 3 5 2 2 1 2 0 9 -2 2 1 4 1 3 2 1 5 2 5 2 1 1 2 -1 6 1 4 3 3 5 1 5 2 4 2 2 1 2 1 2 1 2 1 3 1 2 0 0 -3 -2 -3 0 -2 3 -8 1 -2 2 -2 3 -2 -19 -5 -7 -11 -2 -13 -1 -3 -2 -3 -1 -3 -1 -3 -2 -2 -3 -1 -4 0 -4 1 1 5 -2 3 -1 -2 -1 -3 -2 -4 -5 2 -2 2 -2 2 0 2 1 2 0 3 -2 2zm532 -464l-2 0 -2 0 -6 6 -6 5 -3 3 -5 6 -3 2 -4 7 -1 4 0 4 4 -3 4 -2 2 -1 2 -1 1 -2 1 -2 5 -1 4 -2 5 -3 4 -3 3 -4 3 -5 4 -3 5 -1 4 -2 3 -3 3 -4 9 -14 -1 -4 1 -2 2 -1 5 -2 10 -3 1 -2 1 -2 2 -4 4 -3 2 -1 5 -1 2 -1 4 -4 0 -2 -3 -7 -4 -10 1 -4 -1 -2 0 -2 1 -5 0 -2 -2 -1 -2 2 -5 11 -1 3 -2 5 2 4 1 3 -1 5 -3 4 -2 2 -2 1 -3 1 -2 1 -8 9 -1 1 -4 3 -8 10 -8 8 -10 11 -4 3 -2 1zm-453 -50l-1 0 -1 1 -3 1 0 2 4 -3 1 -2zm-8 687l-3 3 -2 1 -2 0 -6 -3 -4 -1 -5 0 -5 -1 -8 -1 -4 -2 -2 1 -4 3 -3 4 -3 14 -1 1 -2 1 -2 -1 -2 6 -1 2 -4 5 -1 0 -2 -1 -1 -1 -1 -4 -1 0 -3 2 -1 2 1 2 2 0 3 -1 2 0 2 1 5 0 5 -1 5 0 5 1 11 3 14 5 -1 3 -2 3 -1 3 0 3 2 2 3 1 4 1 19 1 9 1 11 3 2 1 4 3 5 2 5 2 13 2 5 1 5 0 3 -3 2 -1 7 -2 5 0 5 2 9 0 4 0 24 5 8 3 24 11 9 2 9 2 12 1 7 2 25 1 10 1 10 2 4 0 4 0 5 -1 5 -2 5 -1 5 0 18 8 10 4 9 2 5 0 3 1 2 2 3 1 5 1 1 -2 0 -2 -5 -3 -1 -2 -3 -6 0 -3 0 -3 2 -11 0 -5 -1 -4 -1 -1 -13 -6 -1 0 -7 2 -5 1 -10 1 -11 0 -10 -3 -9 -4 0 -5 0 -5 -2 -2 -4 -2 -1 -2 -2 -5 -2 -5 -4 -1 -5 0 -7 0 -2 0 -4 -4 -11 -1 -2 -1 -2 -2 -4 -2 -2 0 -4 2 -2 0 -7 -1 -1 -1 -6 -9 -1 -1 -6 -1 -2 1 -2 1 -2 2 -1 2 -2 5 -2 5 -3 4 -4 2 -2 0 -2 0 -3 -1 -3 -1 -6 0 -6 1 -5 -1 -10 -3 -4 -1 -4 2 -5 0 -12 -2 -5 0 -5 0 -4 -1 -3 -3 -3 -9 -1 -2 -4 -4 -4 -4 -1 -1 -2 0 -2 1 -3 0 -5 -1 -5 -2 -5 -1 -5 0 -4 -1 -4 -3 -4 -5 -2 -1 -7 -1 -5 -2 -1 4zm-31 -379l0 -3 -1 -2 -2 -1 -1 1 1 3 3 2zm12 -234l1 1 1 0 2 -1 0 -1 0 -2 -4 3zm-36 244l2 0 2 -2 1 -3 -1 0 -1 0 -1 -1 -1 -1 -2 -1 0 2 0 1 0 2 0 2 1 1zm-91 128l-3 3 -1 3 6 1 6 -1 1 -1 -2 -2 -5 -2 -3 0zm852 -1039l3 -1 2 -2 0 -2 -7 -2 -1 1 0 2 -3 1 0 1 3 0 3 1zm-60 -250l0 -2 0 -3 -2 0 -1 1 2 4 1 0zm-20 665l1 0 2 0 1 -4 -2 -6 2 -3 1 0 1 0 -1 -2 -3 -2 -6 0 -1 3 2 2 1 3 1 2 0 3 -1 1 -1 2zm2 22l9 6 0 -2 -9 -8 -1 1 0 1 0 1zm88 23l5 3 3 -2 2 0 1 1 1 -3 2 -2 0 -3 1 -5 -3 -3 -1 -1 -4 -6 -2 1 -1 1 -1 2 0 8 -4 5 1 2zm58 -481l-2 -1 -3 -1 -1 -2 -1 -1 -1 6 4 1 4 -1zm-307 14l1 -3 -1 -1 -3 -2 0 0 -1 2 0 1 0 2 2 0zm338 -405l-1 3 1 1 2 3 0 1 2 1 2 -1 11 -1 5 -2 7 -3 1 -2 1 -3 -1 -3 -6 -2 -3 0 -15 4 -6 4zm-80 916l1 7 3 7 3 4 4 3 2 1 4 1 3 4 2 2 1 2 3 3 2 1 3 0 0 3 -1 3 -3 3 1 3 4 6 2 2 3 1 3 5 3 0 5 1 8 -1 2 0 3 3 1 -1 -2 -4 -3 -3 -2 0 0 -2 1 -2 -1 -2 -4 -7 -1 -2 0 -3 0 -2 -1 -2 0 -8 2 -4 0 -3 1 -2 -2 -3 -3 -1 -2 0 -1 -1 0 -3 -1 -3 -3 -3 -4 -2 -13 2 -12 0 -11 -2zm-5 -507l2 -1 2 -7 1 -2 -1 -1 -4 6 -2 0 -2 -1 -1 2 2 4 2 1zm-123 -170l-1 -2 -1 -1 -3 3 0 3 1 0 4 -1 0 -3zm28 407l3 -3 -2 -2 -2 1 -1 2 0 1 -2 3 1 1 3 -3zm-146 -242l-2 -3 -3 2 -2 0 0 2 6 1 1 -2zm144 158l-1 0 -2 4 0 2 2 0 2 -4 -1 -2zm-75 -104l-1 3 1 2 2 2 1 3 4 11 2 4 2 4 0 0 3 3 4 2 4 4 1 2 3 7 1 6 2 3 4 1 1 -5 1 -5 0 -5 1 -5 2 -5 3 -5 6 -7 6 -8 2 -4 2 -5 3 -11 2 -11 2 -8 1 -8 1 -3 4 -7 4 -11 0 -5 -1 -5 0 -3 2 -3 3 -3 -1 -4 -2 -2 -5 -2 -2 -1 -2 -2 -2 -2 -3 0 -3 1 -4 4 -11 4 -2 1 -3 5 -3 5 -3 4 -3 4 -5 7 -20 34 -1 2 0 6 1 6 -1 4 -1 4zm55 166l-1 1 0 1 0 1 4 2 3 0 0 -4 -5 -2zm27 -457l2 0 4 3 0 -1 0 -1 -2 -4 -2 0 -1 2zm-86 594l-2 -1 -2 -2 -2 -2 -2 1 -1 2 0 9 0 2 2 2 2 2 1 1 0 2 2 17 1 4 2 5 1 5 0 6 2 5 2 2 3 0 2 1 1 5 3 3 1 5 2 2 2 1 3 0 1 -2 0 -5 -1 -7 2 -5 2 3 3 2 4 1 4 2 2 3 0 4 -1 3 -10 9 -2 2 -1 2 0 8 1 8 4 -4 5 1 4 5 3 0 4 3 5 2 6 0 4 -3 0 -3 2 -2 6 -3 2 -1 2 0 1 0 12 6 6 6 7 5 1 1 4 5 1 2 0 2 4 3 3 -3 0 -6 -2 -5 -1 -2 -4 -4 0 -2 0 -3 0 -2 -1 -3 1 -2 2 0 2 1 8 7 3 5 1 1 11 6 1 2 1 2 4 6 0 5 1 2 4 0 9 5 5 1 3 0 3 -1 2 0 1 1 -2 5 -1 5 4 4 4 1 3 -9 0 -10 -2 0 -1 0 -5 -3 -3 -1 -4 0 1 -3 0 -3 -2 -4 -3 -3 -4 -4 -2 -5 2 -3 8 -1 2 -3 -2 -2 -4 -2 -2 -1 -2 0 -8 -3 -2 -3 -2 -1 -2 2 -1 2 2 2 0 4 -3 4 -5 0 -2 -2 0 -2 1 -2 0 -2 -2 -5 -3 -5 -3 -3 -4 -1 -6 -1 -6 0 -4 2 -4 3 -2 1 -2 1 0 2 3 3 1 2 -3 1 -1 2 -3 0 -3 -1 -7 -3 -2 -2 -2 -2 -1 -2 -1 -3 -4 -10 -1 -4 0 -4 3 -2 0 -1 -1 -1 -5 -9 -5 -9 -2 -2 0 -2 1 -2 2 -2 2 -4 4 -5 1 -2 0 -2 -1 -2 -1 -2 1 -5 4 -3 4 -3 8 -3 7 -1 3 -7 0 -4 8 -17 2 -7 1 -3 1 -3 -2 -1 -3 -1 -1 -3 0 -3 -1 -2 -4 -2 -1 -2 -3 -6 -1 -4 0 -4 1 -13 2 -4 3 -3 1 -4 -1 -4 -1 -2 -2 -2 -3 1 -3 5 -2 2 -4 2 -4 0 -5 -2 -5 -2 -14 -8 -6 -2 -2 0 -5 1 -2 -1 -2 0 -4 3 -5 2 -1 6 -1 4 -2 4 -6 23 1 4 2 4 0 3 -1 5 0 8 0 6 -4 8 -1 5 0 5 1 5 3 8 0 3 -1 2 -1 2 -3 1 -5 0 -1 -1 -4 -5 -2 -1zm84 -183l-2 1 -1 4 1 0 1 -1 3 -4 -2 0zm13 -421l1 -3 -2 -2 -7 -3 -6 0 0 4 2 2 6 1 5 3 1 -1zm-1241 899l-1 1 -1 1 0 2 1 1 2 0 1 -2 -1 -3 -1 0zm1195 -420l0 2 0 2 2 2 0 -3 0 -3 -1 -2 -1 2zm-969 293l-1 0 -1 0 -1 0 -1 2 2 3 1 1 1 0 0 0 -1 -2 0 -1 0 -2 0 -1zm-115 306l2 5 3 4 4 4 17 17 10 8 3 4 6 7 3 2 12 2 4 2 3 3 9 12 3 4 3 5 3 4 8 5 1 3 1 5 1 8 2 6 4 3 5 1 4 1 3 2 20 12 1 2 5 7 4 9 6 19 5 14 2 9 2 5 3 3 4 2 11 4 3 2 2 3 6 12 3 4 4 3 3 3 8 10 1 1 4 11 4 8 15 26 0 9 2 4 2 4 7 10 4 3 4 3 3 3 2 4 7 11 3 3 7 6 13 9 3 3 8 12 7 8 16 13 9 5 4 3 4 4 3 2 15 9 3 2 10 13 4 3 4 3 5 6 5 5 5 4 1 0 2 -1 0 -3 -2 -7 0 -3 1 -2 12 7 4 2 2 1 2 -1 7 -6 2 -1 7 5 1 2 1 2 2 2 2 1 3 0 2 -4 1 -2 3 -28 0 -9 0 -6 0 -4 -2 -16 0 -2 4 -10 0 -2 -1 -2 -2 -2 0 -5 2 -7 1 -2 6 -6 1 -2 0 -2 0 -2 -6 -9 -13 -17 -4 -3 -4 -2 -5 -1 -11 0 -2 1 -2 1 -2 1 -6 6 -2 1 -2 0 -1 -2 1 -5 1 -2 5 -4 2 -2 1 -3 0 -3 -2 -2 -5 -2 -5 -3 -2 -4 0 -5 -2 -4 -1 -10 -1 -5 -2 -7 -1 -1 -4 1 -2 0 -6 -1 -5 -2 -9 -4 -6 -4 -2 -2 -4 -7 0 -2 3 -3 -1 -2 -4 -2 2 -4 -1 -1 1 -2 7 -5 5 -2 3 -3 -2 -5 -3 -5 -4 -4 -4 -4 -3 -1 -3 0 -3 1 -7 4 -4 3 -4 2 -5 1 -10 1 10 -3 9 -5 2 -3 -1 -4 -4 -4 -4 -2 -12 -1 -4 -1 -3 -3 -6 -6 -1 -1 -1 -5 -2 -5 -3 -4 -3 -4 -10 -7 -4 -2 -5 0 -4 -1 -3 -3 -2 -5 -2 -5 -3 -4 -7 -6 -5 -2 -3 0 -2 2 0 2 0 2 3 4 0 4 -3 -2 -6 -5 -3 -1 -3 -2 -3 -3 -2 -3 -2 -3 -2 -2 -8 -8 -4 -6 -2 -4 -3 -4 -7 -8 -9 -5 -16 -11 -12 -5 -4 -2 -3 -3 -1 -2 -1 -2 -5 -3 -9 -4 -3 -4 1 -5 -1 -4 -10 -9 -1 -1 -1 -5 -2 -4 -8 -7 -5 -5 -2 -2 -2 -1 -2 0 -11 1 -4 -1 -5 -2 -5 0 -10 2 -5 0 -10 -2 -5 -1 -4 -2 -8 -7 -4 -3 -5 -1 -5 -1 -5 0 -5 1 -2 1 0 2 1 2 0 2 -1 3 -1 3 7 13zm92 -475l1 -6 0 -1 0 -1 -1 -1 -2 -1 -1 0 -2 2 0 7 2 3 2 -1zm-94 441l1 -1 0 -1 0 -1 -3 -1 -2 0 -1 1 3 4 2 1zm1320 -1246l-2 -2 -2 0 0 2 2 2 3 0 -1 -2zm-1195 1108l0 -2 -1 0 -1 1 0 2 2 0 0 -1zm-1 -41l-3 0 -3 3 -1 4 1 0 2 -2 2 -1 2 -2 0 -2zm13 -80l-4 -2 -3 -3 0 1 1 7 2 0 3 -1 1 -1zm-8 -27l-1 -2 -4 -1 0 3 1 4 -1 7 1 0 2 -1 3 -5 0 -4 -1 0 -1 -1zm-6 -25l0 -1 0 1 0 4 0 4 2 3 0 -7 -1 -2 -1 -2zm230 515l-1 1 0 2 4 2 0 -1 -1 -2 -2 -2zm-423 -272l-2 1 -2 1 -1 2 2 2 4 -4 -2 -2zm-52 -145l-3 3 -1 2 1 4 0 4 4 1 1 -1 3 -6 -1 -4 -2 -4 -3 1zm8 -27l0 3 -2 2 2 1 2 -1 0 -1 0 -2 -2 -2zm36 138l-2 2 0 3 0 2 0 1 0 1 0 0 2 -2 -1 -4 1 -2 -2 0zm-7 9l-1 2 1 2 1 2 3 0 0 -1 -1 -2 -2 -3 -2 0zm12 -461l-5 1 3 5 4 4 1 0 1 -1 1 -4 0 -2 -5 -1zm40 123l2 -5 -1 -3 -2 2 -2 3 -4 4 1 6 3 -4 4 -3zm-45 -166l-3 -3 0 3 1 3 3 2 -1 -6zm55 175l1 -3 0 -2 -4 5 0 0 2 1 1 -1zm-46 372l5 11 3 -3 2 -6 -3 -10 -2 -1 -6 2 -1 2 0 5 2 1zm368 229l-18 -5 -1 1 0 1 0 1 2 2 3 1 5 0 4 2 2 2 3 1 0 -5 -1 -2zm3 16l-2 2 -1 4 -1 2 -1 3 2 1 2 1 7 2 3 0 8 2 2 1 1 -2 -1 -5 -2 -1 -7 -3 -2 -1 -4 -3 -4 -3zm19 3l-9 -4 -3 0 -1 4 1 0 3 0 4 1 3 2 3 3 2 1 2 0 1 -1 -4 -6 -3 -2zm7 22l5 0 0 -3 -2 -4 -2 0 -1 2 -1 4 1 1zm-34 -34l-3 -2 -1 0 -1 2 0 3 1 5 1 3 2 3 2 2 2 -1 0 -3 1 -4 0 -3 -1 -1 -2 -4zm65 -3l-4 -1 -5 1 -2 4 7 3 6 -3 1 -1 -1 -1 -2 -1zm8 20l0 1 0 1 3 4 3 -1 -1 -2 -2 -1 -2 -2 -1 0zm-4 -10l-1 2 -2 0 0 2 -1 1 0 1 1 1 4 1 3 -4 0 -2 0 -2 -2 1 -3 -2zm-26 5l-1 -3 -1 1 -2 2 2 3 3 1 0 -2 -1 -1zm-3 12l4 5 1 -1 2 -2 -1 -2 -2 -2 -2 -2 -1 1 -1 3zm-223 -486l-2 0 -2 2 1 1 2 2 2 -3 0 -2 0 0 -1 0zm23 182l-3 -2 2 8 1 -1 0 -5zm122 264l4 1 5 -3 1 -4 2 -3 0 -2 -2 -3 -3 -2 -4 3 -4 0 -2 2 0 5 3 6 1 1zm-132 -266l-1 -2 -1 1 -2 9 1 6 1 0 2 -2 2 0 0 -3 0 -3 2 -5 -4 -1zm-12 -153l-2 -4 0 7 3 3 0 -2 0 -2 -1 -1zm3 33l-3 3 3 0 3 3 1 4 1 0 0 -1 0 -1 -4 -7 -2 -1 -1 1zm2 -25l-1 4 1 1 0 0 0 -1 2 -2 1 -3 1 -5 0 -3 -1 1 -2 5 -2 3zm90 258l-1 -1 -3 -1 -2 1 -1 7 3 1 1 -1 2 -5zm42 99l-1 -1 -2 1 0 2 0 1 2 -1 0 -2zm-72 -148l2 3 1 0 2 -2 -2 -6 -2 5zm2 10l2 1 2 3 2 0 2 -2 2 1 1 -1 1 -2 -3 -4 -1 1 -3 1 -2 -1 -3 0 0 2zm-24 -51l-1 -2 0 0 0 3 1 2 2 1 -1 -5zm-25 -142l1 1 1 0 1 0 -1 -5 -2 5zm67 55l0 -1 0 -2 -1 -2 -3 0 1 2 1 2 2 1zm-265 -410l2 1 4 -1 1 -1 1 -2 0 -1 -3 -2 -2 0 -5 -4 -1 1 -2 2 1 2 3 2 1 4zm1233 1159l-3 3 0 2 11 0 1 -2 1 -4 -5 -1 -4 1 -1 1zm-974 -744l0 4 1 2 4 -2 1 -3 0 -2 -1 0 -4 0 -1 1zm102 -106l-2 -3 -2 0 0 1 1 6 2 0 1 0 2 1 0 -1 -1 -2 -1 -2zm190 -374l3 4 2 0 0 -1 1 -2 0 -1 -1 -1 -4 -1 -2 2zm27 -17l-4 -2 -1 1 -2 6 2 0 6 -5 -2 0zm-33 16l1 1 2 2 0 -1 0 -2 -2 -3 -1 3zm26 -2l3 0 2 -1 1 -2 0 -2 -1 1 -2 3 -3 2zm-175 433l2 3 2 -2 -4 -3 0 1zm-28 -38l-1 2 2 2 1 -4 -2 -1 -1 1zm19 13l0 2 1 1 1 0 1 0 0 -4 -1 0 -1 1zm440 -496l-3 0 1 2 2 1 1 0 3 3 0 -2 -1 -2 -2 -2zm-394 538l-1 -2 -2 -2 -2 0 -4 2 -2 0 1 1 4 4 3 9 1 -1 0 -2 2 -5 0 -5zm2 317l1 2 1 0 2 0 0 -2 -2 -4 -1 1 -2 4zm733 -1246l-1 -2 -2 -1 -1 -3 -5 -2 -5 0 1 2 5 5 8 4 11 4 3 -1 -1 -2 -2 -1 -10 -4zm7 1378l-3 3 -1 2 1 0 2 -1 1 0 4 0 1 1 1 -2 -2 -2 -3 0 -2 0zm-77 -455l3 -2 1 -1 -3 -1 -4 -1 -4 4 1 4 5 -1zm57 187l-3 1 -2 -3 -5 -1 -6 4 -1 2 2 2 4 -1 3 1 6 -2 3 3 5 -3 0 -1 -1 -2 -5 -1zm-40 -254l-3 -3 -1 -3 -1 2 -2 1 -2 -1 -1 -1 -5 -3 -2 -2 -1 0 0 1 0 1 0 0 -1 1 0 2 1 1 3 5 2 3 4 1 3 -1 3 1 3 0 1 -3zm-16 293l2 -3 4 -1 1 -2 1 1 2 1 1 -1 1 -3 -1 -1 -1 -2 -2 0 -4 3 -4 1 -7 4 0 3 2 0 3 -1zm-7 -878l-1 -1 -2 1 -1 2 1 2 -1 2 0 3 2 1 3 -2 0 -1 -1 -1 1 -2 0 -1 0 -1 -1 -1zm-12 1128l-6 14 -2 7 0 4 1 4 -1 3 2 7 -1 4 -3 4 -3 5 -1 5 0 5 -2 4 -6 5 -2 1 -2 1 -2 1 -1 2 0 2 2 4 1 3 -2 5 0 5 1 5 1 5 2 4 3 2 10 -3 5 -1 2 1 2 2 1 2 0 2 -1 2 0 3 1 2 5 10 1 1 -1 16 -1 4 -2 5 -1 5 0 6 -4 8 -2 5 -1 5 1 5 4 4 4 4 7 3 2 0 2 -1 4 -3 2 -1 5 0 5 -1 2 -1 2 0 5 2 -1 -4 -1 -4 -5 -10 0 -2 1 -5 4 -10 1 -5 -1 -8 -1 -14 1 -10 2 -4 0 -2 -2 -15 -1 -4 -3 -4 -2 -4 0 -4 3 -3 9 -6 5 -3 5 -1 5 0 5 1 3 3 1 5 0 5 -1 7 -1 2 -6 8 -1 2 0 3 1 1 17 15 4 3 5 1 3 3 0 3 -1 2 -1 1 -1 2 -2 12 1 4 3 3 2 1 4 1 7 1 5 -1 1 -2 -1 -5 0 -2 3 -3 4 -2 11 -3 6 0 2 0 2 -1 0 -1 0 -2 4 2 2 0 1 -2 0 -5 0 -3 -1 -2 -1 -2 -2 0 -1 1 -1 1 -3 -1 -2 -3 -2 -2 0 -3 -1 -2 -2 -1 -4 -5 -2 -1 -2 -1 -2 -1 -1 -2 0 -2 0 -2 2 -6 0 -5 3 -3 -1 -2 -3 -4 -1 -2 1 -2 0 -2 -9 -7 -3 -4 -2 -5 -5 -9 -3 -4 -2 -1 -4 -1 -2 -1 -3 -4 -4 -3 -2 -1 0 -3 2 -2 5 2 3 1 3 0 3 -1 3 -4 3 -3 13 -4 4 -2 4 -2 7 -6 6 -7 3 -5 4 -4 2 -2 2 -1 6 -1 4 1 3 4 3 1 3 -1 1 -2 2 -8 -1 -3 -2 -2 -4 -2 -5 -1 -6 1 -6 2 -2 1 1 1 2 1 0 1 -10 1 -5 -1 -11 0 -4 2 -2 2 -2 1 -5 2 -5 1 -5 -1 -2 -2 -2 -2 -2 0 -2 1 -4 3 -7 8 -3 4 -3 5 -5 3 -5 -1 -5 -1 -3 0 -3 0 -3 -5 -4 -9 -4 -3 -7 -3 -1 -1 -6 -9 -1 -4 -1 -5 -1 -5 0 -5 1 -4 2 -5 2 -5 3 -4 5 -6 2 -2 5 -3 5 -1 5 1 9 3 4 0 17 -2 4 0 4 0 5 2 5 1 9 -1 9 -1 26 0 4 0 4 0 4 3 4 4 2 0 9 1 5 0 5 0 15 -3 5 0 3 -1 4 -2 2 -1 4 -4 3 -4 2 -4 2 -3 8 -7 3 -4 3 -4 4 -8 1 -1 3 -3 1 -1 -3 -6 -2 -2 -5 -1 -2 1 -4 4 -3 4 -2 1 -4 1 -2 1 -1 4 -2 3 -5 2 -6 7 -14 7 -4 0 -24 -4 -9 -1 -2 0 -2 1 -3 3 -2 0 -2 -1 -6 -3 -5 -2 -5 -1 -14 -1 -10 -2 -12 1 -2 -1 -2 -1 -2 -2 -1 -2 -2 -1 -2 0 -3 0 -3 -1 -5 -3 -2 0 -2 1 -2 1 -2 2 -3 4 -2 5 -2 2 -2 2 -1 2 -1 2 -4 2 -4 -1 -2 -2 -2 -4 -1 0 -1 0 -2 5 -3 4 -2 1 -2 2 -1 5 -2 2 -4 3 -4 9 0 2 2 6 -1 3 -2 1 -2 0 -1 2 2 16 2 8 1 4 0 4 -2 -4 -3 -3 -2 2 -6 7zm32 -611l0 -3 -2 -3 -4 -2 -1 1 0 1 0 2 7 4zm-887 647l5 -2 0 -5 -2 -3 -3 -5 0 -1 0 -1 -1 -2 -2 -4 -5 -8 -1 -4 -3 -2 -8 2 -3 9 1 3 8 12 0 3 2 2 8 5 4 0zm868 -555l-3 2 -1 0 0 2 3 1 1 1 1 -1 1 -3 -1 -2 -1 0zm245 45l-1 0 -2 2 -1 1 -2 2 0 5 -1 3 2 1 2 4 2 2 1 2 1 -1 0 -1 0 -1 1 -5 -2 -7 2 -6 -1 -2zm-68 -35l-3 4 0 2 -1 2 -1 2 0 3 -4 10 -4 7 -1 4 -5 7 -3 7 -5 7 1 3 -3 13 0 4 1 3 2 -1 5 -6 6 -14 0 -4 2 -5 4 -4 4 -2 3 -2 2 -4 2 -8 -1 -8 1 -7 0 -4 -1 -1 0 -2 1 -5 -1 -2zm2 51l-1 3 -6 3 -2 2 -2 3 1 2 2 4 3 2 8 1 10 -1 2 -1 3 -4 1 0 3 0 0 -2 0 -2 -1 -2 1 -6 -4 -2 -3 -3 -1 0 -1 0 -1 -1 -7 1 -3 3zm-70 7l-1 3 0 5 6 9 2 2 2 1 5 2 4 2 3 9 2 2 3 0 3 0 3 -1 2 -1 3 -4 1 -2 0 -2 -1 -2 -7 -10 0 -2 1 -2 0 -6 1 -3 3 -5 1 -3 2 -8 3 -6 4 -5 1 -3 2 -5 0 -1 -2 -4 -11 -3 -1 0 -8 3 -2 1 -1 2 0 3 0 3 -2 4 -2 2 -2 2 1 5 1 5 0 7 0 2 -6 4 -3 0 -5 0 -2 1 -2 3zm52 26l-1 0 -4 2 -2 0 0 1 2 3 3 1 4 -1 0 -4 -2 -2zm-75 114l0 2 3 4 1 0 4 -1 5 -2 2 -4 3 -1 -1 -2 -10 -4 -6 3 -3 1 -1 2 3 2zm10 -256l-4 2 -1 7 -2 2 -1 2 1 2 2 2 -1 2 2 4 3 -11 2 -8 0 -3 1 -2 -2 0zm46 -11l-7 -9 -1 0 -3 0 0 2 1 1 3 2 5 5 5 3 4 4 -4 -6 -3 -2zm26 74l-2 -6 -1 0 -1 1 1 4 3 0zm-51 29l1 0 1 -1 1 -1 2 -7 0 -2 -1 -1 -1 0 -1 1 -1 1 -4 4 -1 5 1 3 2 -2zm-399 1535l-5 -13 -1 1 -2 2 2 9 8 14 1 -2 -1 -4 -1 -1 0 -3 -1 -3zm176 -1445l0 3 1 3 3 -1 0 -3 -1 -1 -2 0zm-634 567l-2 0 -2 2 1 2 6 5 3 0 2 -3 -1 -2 -7 -3zm191 -98l0 1 1 1 2 1 2 0 1 -1 1 -3 -5 -1 -2 1zm-62 150l-1 0 -1 1 -3 3 1 1 2 1 3 -1 1 -3 -1 -2zm-232 -181l-2 -5 -3 -2 -2 0 0 1 0 3 -1 2 3 4 3 1 7 4 0 -1 -1 -2 -3 -4zm249 346l-1 0 -2 0 -1 2 3 1 2 2 1 -3 -1 -3 -1 1zm-219 -307l0 -3 -1 -2 -9 -9 -2 0 -1 1 1 7 2 3 3 2 1 2 0 3 5 4 -2 -6 0 -2 1 -1zm-19 -12l5 0 3 -3 0 -3 -8 -7 -1 1 -1 3 0 1 1 2 0 5 1 2zm602 177l-1 0 -1 1 2 3 2 0 1 -2 -1 -2 -1 0zm134 -436l1 2 4 3 1 -1 1 -5 -2 -1 -4 0 0 2zm8 -26l8 -2 0 -2 -1 -4 -5 -3 -2 0 -2 0 0 2 -2 3 5 5zm-31 -169l-1 1 0 5 3 4 2 -3 0 -8 -4 1zm3 33l0 3 1 3 3 -2 4 -1 1 -2 1 -3 -1 -3 -5 1 -3 3zm305 -140l3 -1 0 -2 -1 0 -2 -1 -2 4 1 0zm-649 318l-3 4 2 1 2 -2 0 -4 -1 0zm-3 190l1 4 5 -2 0 -2 -3 -1 -3 1zm34 -24l-6 0 -1 2 -1 8 2 2 2 0 8 -4 2 -1 0 -2 -1 -3 -2 -1 -4 -1zm144 260l4 1 1 -1 1 0 1 0 11 0 3 -1 5 -3 7 0 1 -1 2 -2 8 -3 0 -1 -4 -4 -38 0 -8 1 -4 4 -2 3 2 3 12 3zm-16 -62l-3 3 1 2 4 0 1 -2 0 -2 -2 -1 -2 0zm373 -765l1 -2 -3 -8 0 -4 1 -4 2 -3 -1 -2 -3 -2 -4 -3 -3 -5 -3 -2 -3 2 -2 -1 -2 -1 -2 -2 -3 -1 -7 1 -2 0 -2 -1 -8 -1 -3 0 -2 2 -1 3 2 0 2 0 1 1 1 3 1 2 3 2 3 2 1 2 4 7 0 5 0 2 1 2 2 2 2 2 1 3 0 3 2 3 4 4 1 1 1 1 0 2 2 1 3 1 2 -2 1 -1 1 0 2 1 0 -3 1 -1 0 -1 2 -4 3 -3zm372 -871l2 -2 2 -3 -4 -1 -5 3 1 1 2 0 4 0zm-72 -121l-3 4 -4 3 1 2 5 4 4 -3 -1 -10 -2 0zm19 91l-1 -3 -3 8 -2 1 1 2 1 4 1 0 1 -4 2 -1 1 -2 -1 0 -1 -3zm-33 1325l-5 7 2 9 2 2 7 -1 4 -2 3 -5 3 -10 -4 -5 -1 0 -4 1 -6 4zm-41 75l0 2 0 0 1 -1 1 -2 0 -2 -1 -1 -2 0 -1 3zm62 -1385l-1 -1 -2 0 -2 1 -2 -1 -1 6 0 2 2 1 2 1 2 -2 1 -1 3 0 -1 -2 -2 -3zm5 222l-2 1 -1 3 1 5 2 1 2 -1 1 -2 -1 -2 -2 -4zm-227 1412l0 1 0 1 1 2 2 0 0 -4 -3 -1 -1 1zm1 -155l-1 -2 -1 0 -2 1 0 6 2 1 3 0 1 -3 -1 -1 -1 -2zm-3 360l-1 -2 -3 1 -3 4 0 3 4 -1 0 -3 4 -1 0 -1zm-24 -71l-1 1 -1 2 2 1 1 -2 2 -2 5 -1 -1 -1 -2 -1 -3 0 -3 2zm-5 97l0 4 1 0 4 0 2 -1 9 -3 4 -5 5 -2 0 -1 -1 -2 0 -4 -1 0 -1 1 -3 1 -5 5 -4 2 -9 3 -1 2zm1 -250l-1 5 -1 2 0 2 -1 5 0 1 -1 2 -3 3 -1 2 0 2 -2 3 0 2 3 5 2 0 2 -1 3 2 2 -1 3 -5 0 -2 1 -2 1 -1 1 -1 2 1 3 -1 3 -3 1 -3 -2 -2 -4 -3 -1 0 -2 1 0 -2 1 -7 1 -2 0 -3 2 -3 1 0 1 0 1 -1 1 1 2 3 0 -2 -1 -9 -5 -5 0 -2 -2 0 -4 2 -4 7 0 9zm1267 180l0 -1 -2 -2 -2 -1 -2 -1 -2 -2 -5 0 -2 -1 -2 0 -3 2 5 2 3 3 1 2 2 0 5 2 2 -1 2 0 0 -2 1 -1 0 -1zm-707 194l-1 1 -1 1 0 2 4 1 1 0 2 -1 -1 -4 -2 -2 -2 3zm-604 -136l-4 2 1 1 5 1 2 0 4 -3 1 -3 -2 -1 -4 0 -3 3zm122 -825l-2 1 -1 2 1 2 5 2 1 -2 -1 -2 -2 -2 -1 0zm-235 729l1 -1 0 -1 -1 -2 -1 0 -2 1 -1 2 0 2 2 0 1 -1zm147 -857l2 -1 1 -3 0 -2 -3 -3 -6 0 -2 2 1 1 3 2 4 4zm40 -7l-4 -2 -5 -2 -4 -2 0 4 1 4 -1 3 -1 9 -2 6 0 2 6 -5 5 -7 2 -1 2 1 3 4 2 1 0 1 3 2 0 2 1 1 4 1 6 4 3 3 0 -2 -1 -7 -6 -9 -8 -5 -6 -5 -1 -2zm-66 -47l-1 0 -3 0 -2 -1 -2 6 1 4 2 2 5 3 2 -1 0 -1 3 -4 -1 -2 0 -2 -5 -4zm13 43l-1 -3 0 0 -1 2 1 2 1 0 1 -1zm-12 27l-3 0 -2 2 -1 3 2 1 5 1 1 2 0 2 -2 13 0 10 -1 5 -2 5 -1 5 1 2 0 3 -2 6 0 1 1 1 1 -1 3 -2 2 -3 4 -2 14 -3 6 -5 4 -1 1 -2 0 -3 1 -2 2 -1 4 -1 3 -2 2 -3 2 -4 1 -3 1 -3 0 -4 -2 0 -9 4 0 -2 1 -2 -4 -3 -5 -1 -5 2 -5 -2 -4 -4 -5 -3 -9 -4 -2 -2zm117 14l1 1 1 -2 -1 -1 -1 -2 -2 -1 1 2 2 3 1 1zm16 59l-2 0 1 4 5 5 0 -2 -2 -6 -2 -1zm-29 -56l5 0 1 -2 -2 -4 -2 -2 -3 0 -3 1 3 6 2 2zm-30 -37l0 -4 -3 -7 -4 -3 -1 2 1 3 5 7 2 1zm22 37l1 2 1 2 2 9 1 10 2 1 5 -2 2 0 3 3 2 4 0 2 0 2 -3 10 2 5 0 2 0 4 1 1 5 2 4 3 0 -3 -1 -3 -1 -7 2 2 3 4 2 1 0 -2 0 -2 4 0 1 -2 0 -2 -3 -5 0 -5 -1 -2 -2 -2 -2 -2 -2 -1 -1 -1 1 -7 0 -8 -1 -3 -1 -2 -3 -5 -5 -1 -4 3 -3 1 -3 -1 -1 -2 -2 -1 -3 -1 -3 -2 -2 -1 -1 2zm98 312l1 5 3 4 0 -2 1 -2 -2 -4 -2 -2zm6 8l0 1 1 1 2 1 1 -1 0 -1 0 -1 -2 -2 -1 1zm-3 -9l0 2 3 0 2 -1 1 -6 3 -5 -1 -3 -1 -4 -2 -2 -2 0 -2 6 0 3 2 3 2 1 -2 4 -3 4zm26 134l-1 1 0 1 1 2 1 0 1 -1 -1 -2 -1 -1zm-8 47l-1 6 1 4 3 0 3 -1 1 -4 -1 -3 2 -1 -4 -1 -3 1zm-3 122l-2 -2 -7 -3 -2 -1 -11 0 -10 2 -4 2 -6 -2 -2 1 -1 2 0 8 1 3 4 4 1 2 2 1 8 4 6 3 6 2 2 0 2 -1 3 0 3 -1 6 -4 3 -1 3 -1 1 -7 -1 -3 -3 -2 -2 -1 -1 -1 -1 -3zm-47 -540l-1 5 1 2 1 -1 1 -4 -1 -3 -1 1zm-13 4l-5 -4 -2 0 -2 4 4 17 1 6 -1 5 -5 1 -5 -1 -2 0 -1 4 -2 2 -4 -1 -4 -3 -3 -1 -3 2 -1 2 -1 8 -1 5 -5 2 -7 -3 -2 0 -2 2 -1 2 -2 5 -2 5 -1 2 -2 1 -7 2 -3 1 -6 3 -2 0 4 -4 1 -2 -1 -8 0 -2 -3 -5 -4 -3 -5 -1 -3 -1 -3 -1 -2 4 -2 2 -2 1 -6 1 -2 1 -2 2 -1 2 -1 2 0 3 0 3 -4 3 -4 1 -6 0 -3 2 -9 2 -2 1 -4 4 -5 6 0 2 0 4 -3 12 -2 4 -3 3 -1 5 3 4 3 2 3 1 2 -2 1 -2 3 -7 3 -7 5 -9 1 -3 1 -1 5 -4 4 0 3 2 1 7 1 1 3 0 3 -1 3 -3 2 -4 1 1 1 2 1 2 1 2 4 3 5 2 4 -11 0 -2 0 -2 1 -2 3 -1 2 0 2 1 2 1 2 2 9 3 4 4 5 6 1 2 0 3 -1 3 -1 2 -2 2 -3 3 -3 5 0 3 0 3 3 8 0 6 1 5 6 7 8 5 10 5 12 5 2 0 2 0 2 -1 4 -6 1 -1 2 0 2 2 0 4 -1 5 0 2 2 5 3 1 5 -3 6 -9 3 -5 0 -10 -3 -10 -1 -1 -3 -3 -2 -1 -2 -3 1 -4 3 -5 3 -4 4 -4 1 -2 0 -3 1 -2 4 -2 2 0 3 9 3 3 1 4 2 4 2 5 1 10 1 4 2 4 1 -7 1 -10 -2 -5 1 -2 3 0 6 -5 5 -7 1 -3 0 -3 0 -9 -1 -5 -1 -2 -2 -1 -2 -3 0 -4 1 -9 0 -2 -3 -5 -1 -7 -3 -2 -5 -1 -1 -2 0 -1 3 -3 2 -2 2 -4 -1 -4 -4 -5 -1 -2 0 -6 -4 1 -3 -3 -2 -4 -3 -4 -10 -6zm25 -1095l-1 1 -4 4 -1 2 1 0 2 2 3 -1 4 -3 2 -3 -2 -2 -4 -1zm-142 1189l-2 -1 -1 1 0 3 2 0 4 -2 0 -1 0 -1 -1 -1 -2 2zm135 -1206l-3 2 2 1 1 3 2 3 2 0 1 -1 0 -5 -4 -4zm-4 1103l2 3 1 0 3 0 2 -1 -2 -3 0 -1 0 -2 -2 -5 -3 6 0 4zm-250 -87l-2 -1 -2 -1 -2 -1 -2 1 3 8 0 1 1 2 1 1 3 -1 1 -3 0 -2 0 -2 -1 -2zm1450 711l1 2 1 3 0 4 2 5 1 0 2 -2 1 -7 -2 -3 0 -4 -2 -2 -1 1 -3 3zm-2405 -262l3 5 2 5 2 0 6 4 3 8 0 2 6 1 2 -3 1 -11 1 -4 -1 -2 -5 -5 -4 -2 -9 -12 -5 -3 -1 1 -1 2 -3 2 -7 0 9 10zm2454 342l-1 3 3 1 4 -1 1 -2 -5 -3 -1 2zm-2453 -379l0 -3 -2 -2 -2 -1 -4 -1 -2 1 5 2 4 4 0 -1zm43 102l-1 4 -1 3 4 2 3 -2 3 -6 1 -5 -3 -4 -3 -6 -2 -1 -2 0 4 9 -1 3 -2 3zm-79 -114l0 -2 -1 -2 -1 -2 -10 -6 -2 -2 -1 -1 -4 -2 -4 -5 -4 -1 -1 3 -2 1 1 2 3 5 3 1 2 2 4 0 11 7 2 2 3 1 3 0zm2464 332l-4 -3 -5 -1 -2 -1 -2 -2 -2 0 0 4 -1 8 1 3 2 5 1 2 4 4 3 2 3 4 1 1 7 3 1 4 -1 5 2 4 4 4 4 3 4 2 4 1 4 0 2 -1 2 -2 4 -1 1 1 1 -1 1 -4 -1 -5 -2 -4 -3 -4 -4 -4 -4 -3 -2 -1 -3 -1 -2 -2 -4 -7 -2 -2 -4 -3 -1 -2 0 -2 -4 -7zm-45 241l1 2 2 0 5 -1 2 1 1 -2 -2 -1 -6 -1 1 2 -4 -1 0 1z"/>
 </g>
</svg>
