<svg width="612" height="792" viewBox="0 0 612 792" fill="none" xmlns="http://www.w3.org/2000/svg">
<path fill-rule="evenodd" clip-rule="evenodd" d="M16 51H595V741H16V51Z" fill="black"/>
<path fill-rule="evenodd" clip-rule="evenodd" d="M26 57H585V735H26V57Z" fill="white"/>
<path fill-rule="evenodd" clip-rule="evenodd" d="M55 87H556V563H55V87Z" fill="#008837"/>
<path fill-rule="evenodd" clip-rule="evenodd" d="M336.922 199.601C362.336 206.406 384.239 221.231 399.319 240.983C392.12 244.947 383.969 248.453 375.032 251.409C366.74 228.461 353.27 210.072 336.922 199.601ZM402.502 245.371C413.741 261.708 420.482 281.025 421.034 301.75H383.992C383.746 285.642 381.174 270.336 376.77 256.519C386.212 253.38 394.856 249.621 402.502 245.371ZM305.494 341.609C313.081 341.609 320.562 341.941 327.808 342.583C328.724 331.527 329.229 319.646 329.3 307.238H281.677C281.735 319.635 282.276 331.527 283.18 342.583C290.45 341.953 297.896 341.609 305.494 341.609ZM333.504 343.167C346.928 344.679 359.612 347.246 371.215 350.717C375.372 337.45 377.803 322.751 378.073 307.25H335.254C335.172 319.818 334.561 331.893 333.504 343.167ZM376.758 352.459C386.189 355.598 394.832 359.367 402.49 363.606C413.729 347.28 420.47 327.964 421.022 307.238H383.981C383.734 323.347 381.139 338.642 376.758 352.459ZM399.307 368.006C392.108 364.041 383.934 360.536 375.02 357.58C366.74 380.516 353.27 398.905 336.922 409.388C362.336 402.582 384.239 387.757 399.307 368.006ZM369.488 355.85C358.273 352.539 345.977 350.076 332.952 348.621C329.723 378.294 323.322 401.689 315.383 412.481C338.801 407.658 358.707 385.947 369.488 355.85ZM327.327 348.059C320.233 347.44 312.916 347.108 305.494 347.108C298.048 347.108 290.767 347.429 283.673 348.059C287.361 386.508 295.758 413.501 305.494 413.501C315.242 413.501 323.639 386.508 327.327 348.059ZM278.06 348.621C265.023 350.076 252.727 352.539 241.523 355.838C252.293 385.935 272.211 407.646 295.629 412.47C287.69 401.689 281.301 378.294 278.06 348.621ZM235.98 357.58C227.043 360.536 218.88 364.041 211.681 368.006C226.761 387.757 248.652 402.582 274.078 409.388C257.719 398.905 244.26 380.516 235.98 357.58ZM208.498 363.618C216.144 359.367 224.788 355.621 234.242 352.47C229.838 338.653 227.266 323.358 227.007 307.25H189.966C190.518 327.975 197.259 347.28 208.498 363.618ZM239.797 350.706C251.4 347.246 264.084 344.679 277.508 343.167C276.451 331.893 275.828 319.818 275.758 307.25H232.938C233.185 322.751 235.628 337.45 239.797 350.706ZM305.494 267.38C313.081 267.38 320.562 267.036 327.808 266.395C328.724 277.45 329.229 289.343 329.3 301.739H281.677C281.735 289.343 282.276 277.439 283.18 266.395C290.45 267.048 297.896 267.38 305.494 267.38ZM333.504 265.821C346.928 264.309 359.612 261.743 371.215 258.271C375.372 271.538 377.803 286.249 378.073 301.739H335.254C335.172 289.182 334.561 277.095 333.504 265.821ZM369.488 253.139C358.273 256.45 345.977 258.924 332.952 260.379C329.723 230.706 323.322 207.323 315.383 196.519C338.801 201.342 358.707 223.03 369.488 253.139ZM327.327 260.929C320.233 261.559 312.916 261.88 305.494 261.88C298.048 261.88 290.767 261.548 283.673 260.929C287.361 222.469 295.758 195.499 305.494 195.499C315.242 195.499 323.639 222.469 327.327 260.929ZM278.06 260.368C265.023 258.913 252.727 256.438 241.523 253.139C252.293 223.042 272.211 201.342 295.629 196.519C287.69 207.311 281.301 230.695 278.06 260.368ZM235.98 251.409C227.043 248.453 218.869 244.947 211.681 240.983C226.772 221.231 248.664 206.395 274.09 199.601C257.718 210.084 244.26 228.461 235.98 251.409ZM208.498 245.371C216.144 249.621 224.8 253.38 234.242 256.519C229.838 270.336 227.266 285.642 227.007 301.75H189.966C190.518 281.025 197.259 261.697 208.498 245.371ZM239.785 258.271C251.388 261.731 264.072 264.309 277.496 265.821C276.439 277.095 275.817 289.171 275.746 301.75H232.927C233.185 286.249 235.628 271.538 239.785 258.271ZM305.494 190C372.401 190 427 241.441 427 304.5C427 367.57 372.413 419 305.494 419C238.575 419 184 367.57 184 304.5C184 241.441 238.587 190 305.494 190Z" fill="white"/>
<path fill-rule="evenodd" clip-rule="evenodd" d="M153.261 357.329L159.338 374.602H178.962L163.079 385.278L169.144 402.54L153.261 391.864L137.389 402.54L143.454 385.278L127.571 374.602H147.207L153.261 357.329ZM457.716 357.329L463.781 374.602H483.418L467.534 385.278L473.599 402.54L457.716 391.864L441.832 402.54L447.898 385.278L432.014 374.602H451.65L457.716 357.329ZM141.141 247.138L147.561 265.388H168.294L151.514 276.651L157.922 294.901L141.141 283.615L124.373 294.901L130.78 276.651L114 265.388H134.734L141.141 247.138ZM469.847 247.138L476.255 265.388H497L480.22 276.651L486.627 294.901L469.847 283.615L453.066 294.901L459.474 276.651L442.694 265.388H463.415L469.847 247.138ZM192.049 158.232L198.115 175.482H217.739L201.867 186.17L207.933 203.432L192.049 192.767L176.165 203.432L182.231 186.17L166.347 175.482H185.972L192.049 158.232ZM418.927 158.232L424.993 175.482H444.629L428.745 186.17L434.811 203.432L418.927 192.767L403.044 203.432L409.109 186.17L393.226 175.482H412.862L418.927 158.232ZM305.488 93L316.345 123.881H351.428L323.036 142.958L333.892 173.839L305.5 154.761L277.108 173.839L287.953 142.958L259.56 123.881H294.655L305.488 93ZM247.064 434.409L253.318 452.2H273.544L257.177 463.221L263.443 481L247.064 469.99L230.708 481L236.962 463.221L220.595 452.2H240.833L247.064 434.409ZM363.913 434.409L370.156 452.2H390.393L374.026 463.221L380.269 481L363.901 469.99L347.534 481L353.776 463.221L337.409 452.2H357.647L363.913 434.409Z" fill="#FFFF00"/>
<path fill-rule="evenodd" clip-rule="evenodd" d="M198.489 267C202.586 268.139 206.683 269.642 210.768 271.156C215.276 276.439 215.276 276.439 228.378 286.619C228.789 286.243 229.2 285.867 230.021 285.867L244.766 304.734L250.906 309.266C250.084 313.411 249.685 317.567 249.262 322.087C252.949 322.838 261.143 323.977 262.787 327.37C269.748 326.994 271.803 325.104 278.353 326.619C279.046 322.133 286.935 330.501 284.493 329.636C286.137 330.012 290.633 331.139 290.633 333.416C291.443 333.416 292.676 333.416 293.908 333.792C293.908 337.561 288.578 336.809 285.303 336.809C285.303 337.128 279.598 338.939 278.753 335.295C275.477 334.919 272.613 334.544 269.736 334.156C264.818 329.636 253.759 331.891 247.208 327.746C247.208 326.232 247.619 324.717 248.03 323.59C242.7 322.838 239.436 319.81 234.095 318.307L228.366 309.254L224.269 304.723C218.939 294.908 207.47 275.665 196 270.382L198.489 267ZM277.144 311.52L266.085 303.971C267.318 300.578 263.221 294.156 261.988 290.388C264.031 286.243 264.442 284.728 268.95 288.884C271.403 288.884 273.869 288.884 276.733 288.884L283.695 287.37C290.246 287.37 293.122 279.07 294.753 273.786C301.727 273.786 301.727 273.786 304.591 274.914C305.401 279.445 304.591 283.966 308.677 287.746C308.677 288.498 308.677 289.636 308.677 290.763C304.18 291.902 302.126 299.815 299.672 303.584C299.672 303.971 300.083 304.336 300.482 304.723C300.964 304.666 301.433 304.609 301.915 304.552V308.754C301.304 308.663 300.694 308.571 300.071 308.492C298.029 312.272 295.164 313.775 290.656 314.902C289.834 313.763 289.013 313.012 288.602 312.261C286.958 312.261 285.327 312.261 284.106 312.261C282.955 318.603 278.13 310.405 277.144 311.52ZM310.32 303.983C313.185 297.572 313.596 293.416 318.914 288.509C322.6 288.885 326.274 289.26 329.961 289.647L334.48 287.006C335.701 287.006 337.345 287.006 338.977 287.006C338.977 287.382 339.387 288.144 339.798 288.896C337.662 289.875 336.57 291.617 335.995 293.69H329.878C329.902 293.599 329.949 293.507 329.972 293.416C325.476 293.416 321.379 293.416 317.27 293.792C316.883 294.543 316.472 295.682 316.049 296.809C316.871 297.948 317.681 299.075 318.503 300.203C321.778 299.075 325.065 297.937 328.752 297.185C328.775 297.094 328.775 297.014 328.798 296.923H335.513C335.42 298.597 335.513 300.328 335.607 301.91H329.233C329.186 301.58 329.139 301.262 329.139 300.954C327.918 301.33 327.096 301.706 326.275 302.081C326.275 302.833 326.274 303.584 326.685 304.723C327.096 304.723 327.601 304.723 328.176 304.723V309.254C327.601 309.254 327.096 309.254 326.685 309.254C327.096 310.757 327.507 312.272 328.341 313.775C328.752 313.775 329.139 313.775 329.972 313.775C329.972 313.399 329.972 313.012 329.972 312.625H334.469C334.058 314.595 333.87 316.69 333.8 318.865H329.996C329.972 317.965 329.972 317.031 329.972 316.041C327.519 316.792 325.065 317.544 322.612 318.307C320.956 315.665 319.747 313.023 318.503 310.382C317.681 314.162 317.27 317.931 316.871 322.075C315.216 321.7 313.983 321.7 312.762 321.7L310.32 303.983ZM334.011 327.609C334.222 331.071 334.492 334.487 334.492 337.561C334.903 337.561 335.713 337.561 336.535 337.937C339.81 334.919 344.306 334.919 349.237 334.919C345.551 339.827 338.166 340.578 334.081 347L329.151 346.249C329.151 342.856 329.151 339.451 329.151 336.445C328.352 336.445 327.519 336.445 326.697 336.445C326.697 336.821 326.697 337.197 326.697 337.948C322.612 337.948 318.514 337.948 314.406 337.948C314.406 336.821 314.406 336.058 314.817 335.307C326.791 334.521 329.421 333.724 329.949 327.621H334.011V327.609ZM339.552 304.734C349.73 304.734 359.932 304.734 370.122 304.734C368.079 301.341 368.079 301.341 368.079 298.324C371.331 297.572 374.618 296.81 378.304 296.434L384.867 304.734C391.84 304.359 394.704 303.22 400.022 300.965L416 309.266C415.589 318.705 415.178 328.133 415.178 337.948C412.725 336.445 410.271 335.306 408.205 334.168C405.34 334.168 402.476 334.544 400.022 334.919C399.612 333.792 399.612 333.792 402.887 329.26C402.887 325.492 400.844 323.601 399.612 320.208C394.294 318.705 388.976 317.191 384.045 316.064L366.436 309.266C366.025 310.393 365.614 311.908 365.614 313.411C362.338 311.521 357.842 311.52 353.733 311.52C352.512 310.382 351.28 309.255 350.047 308.503C350.047 311.896 348.415 312.283 344.318 312.283C343.52 311.145 342.686 310.018 342.275 308.89C341.36 308.89 340.444 308.936 339.575 309.027V304.734H339.552ZM317.681 344.734C315.227 343.596 312.774 342.468 310.731 341.717C310.731 340.965 310.731 340.203 310.731 339.827C315.227 338.313 318.503 338.688 319.325 343.971C318.503 343.971 318.092 344.359 317.681 344.734Z" fill="white"/>
<path fill-rule="evenodd" clip-rule="evenodd" d="M95.9512 526.19H99.82C101.607 526.19 102.912 525.561 103.759 524.347C104.594 523.11 105.006 521.176 105.006 518.535C105.006 516.106 104.582 514.341 103.747 513.251C102.901 512.16 101.525 511.621 99.6319 511.621H95.9512V526.19ZM93 546.078V507.922H99.773C102.654 507.922 104.759 508.776 106.076 510.485C107.405 512.194 108.063 514.892 108.063 518.579C108.063 522.357 107.369 525.224 105.993 527.146C104.606 529.091 102.572 530.058 99.8907 530.058H95.9512V546.089L93 546.078ZM112.967 531.216H119.998L116.494 511.227L112.967 531.216ZM107.404 546.078L114.601 507.922H118.352L125.654 546.078H122.679L120.68 535.072H112.32L110.403 546.078H107.404ZM131.381 525.415H134.967C137.037 525.415 138.554 524.842 139.518 523.695C140.494 522.548 140.976 520.76 140.976 518.332C140.976 515.994 140.541 514.307 139.694 513.251C138.848 512.194 137.46 511.666 135.543 511.666H131.392V525.415H131.381ZM128.512 546.078V507.922H135.92C138.648 507.922 140.67 508.72 141.999 510.339C143.328 511.947 143.986 514.409 143.986 517.703C143.986 520.266 143.586 522.312 142.787 523.841C141.987 525.37 140.752 526.438 139.083 527.045C140.553 527.236 141.646 527.911 142.375 529.102C143.116 530.294 143.551 532.149 143.716 534.633C143.775 535.555 143.845 536.825 143.904 538.478C144.092 542.638 144.551 545.179 145.292 546.078H141.634C141.27 545.201 141.035 543.121 140.929 539.861C140.87 538.22 140.823 536.927 140.752 535.971C140.6 533.34 140.117 531.542 139.341 530.575C138.554 529.608 137.154 529.136 135.132 529.136H131.381V546.078H128.512ZM152.641 546.078V511.845H145.915V507.933H161.989V511.845H155.663V546.078H152.641ZM165.999 531.216H173.019L169.515 511.227L165.999 531.216ZM160.437 546.078L167.621 507.922H171.373L178.675 546.078H175.688L173.689 535.072H165.328L163.412 546.078H160.437ZM181.544 546.078V507.922H184.566V546.078H181.544ZM198.006 546.078V507.922H200.923V526.28L210.459 507.922H213.869L205.662 523.324L214.469 546.067H210.882L203.686 527.045L200.911 532.273V546.078H198.006ZM217.032 546.078V507.922H230.12V511.89H219.948V524.156H229.461V528.023H219.948V542.076H230.237V546.078H217.032ZM237.081 524.156H240.162C242.008 524.156 243.313 523.661 244.054 522.66C244.807 521.671 245.183 519.973 245.183 517.556C245.183 515.263 244.795 513.644 244.042 512.711C243.29 511.778 241.937 511.306 239.997 511.306H237.081V524.156ZM237.081 542.312H240.82C242.619 542.312 243.913 541.772 244.701 540.682C245.488 539.591 245.888 537.804 245.888 535.319C245.888 532.52 245.465 530.553 244.63 529.395C243.784 528.237 242.349 527.663 240.315 527.663H237.081V542.312ZM234.235 546.078V507.922H241.114C243.584 507.922 245.371 508.675 246.488 510.181C247.605 511.699 248.158 514.116 248.158 517.455C248.158 519.726 247.864 521.559 247.264 522.93C246.665 524.313 245.747 525.258 244.513 525.775C246.053 526.213 247.182 527.202 247.911 528.731C248.64 530.272 249.005 532.396 249.005 535.117C249.005 538.602 248.346 541.3 247.017 543.211C245.7 545.111 243.819 546.067 241.397 546.067H234.235V546.078ZM256.977 531.216H263.997L260.493 511.227L256.977 531.216ZM251.415 546.078L258.612 507.922H262.363L269.665 546.078H266.678L264.679 535.072H256.318L254.39 546.078H251.415ZM272.511 546.078V507.922H276.45L285.598 540.648L285.328 507.922H288.173V546.078H284.399L275.109 512.385L275.344 546.078H272.511ZM306.882 546.078L306.693 540.794C306.235 542.795 305.459 544.324 304.424 545.392C303.377 546.46 302.119 547 300.638 547C297.792 547 295.711 545.359 294.359 542.087C293.018 538.816 292.348 533.7 292.348 526.752C292.348 519.827 293.053 514.813 294.464 511.688C295.875 508.574 298.145 507 301.237 507C303.624 507 305.482 508.046 306.835 510.114C308.163 512.194 308.857 515.083 308.881 518.816H305.965C305.917 516.207 305.459 514.195 304.636 512.779C303.777 511.351 302.601 510.643 301.096 510.643C299.05 510.643 297.592 511.935 296.722 514.532C295.852 517.107 295.417 521.592 295.417 527.944C295.417 533.06 295.875 536.826 296.804 539.288C297.733 541.739 299.156 542.964 301.061 542.964C302.778 542.964 304.107 541.997 305 540.086C305.917 538.175 306.352 535.387 306.352 531.733C306.352 531.295 306.352 530.957 306.352 530.71C306.352 530.463 306.329 530.238 306.305 530.024H300.355V526.157H309.163V546.055H306.882V546.078ZM313.678 546.078V507.922H316.594V526.28L326.131 507.922H329.553L321.333 523.324L330.153 546.067H326.566L319.381 527.045L316.606 532.273V546.078H313.678ZM332.692 546.078V507.922H335.726V546.078H332.692ZM345.298 546.078V511.845H338.572V507.933H354.646V511.845H348.332V546.078H345.298ZM358.668 531.216H365.699L362.184 511.227L358.668 531.216ZM353.106 546.078L360.29 507.922H364.053L371.332 546.078H368.369L366.346 535.072H357.985L356.081 546.078H353.106ZM374.213 546.078V507.922H378.164L387.3 540.648L387.03 507.922H389.876V546.078H386.113L376.812 512.385L377.058 546.078H374.213ZM406.162 524.156H409.242C411.077 524.156 412.394 523.661 413.123 522.66C413.876 521.671 414.252 519.973 414.252 517.556C414.252 515.263 413.887 513.644 413.123 512.711C412.359 511.778 411.006 511.306 409.054 511.306H406.162V524.156ZM406.162 542.312H409.901C411.688 542.312 412.982 541.772 413.782 540.682C414.558 539.591 414.957 537.804 414.957 535.319C414.957 532.52 414.546 530.553 413.699 529.395C412.876 528.237 411.429 527.663 409.383 527.663H406.174V542.312H406.162ZM403.316 546.078V507.922H410.207C412.664 507.922 414.452 508.675 415.557 510.181C416.686 511.699 417.238 514.116 417.238 517.455C417.238 519.726 416.945 521.559 416.345 522.93C415.745 524.313 414.828 525.258 413.593 525.775C415.134 526.213 416.262 527.202 416.991 528.731C417.732 530.272 418.097 532.396 418.097 535.117C418.097 538.602 417.427 541.3 416.098 543.211C414.793 545.111 412.911 546.067 410.489 546.067H403.316V546.078ZM426.058 531.216H433.09L429.574 511.227L426.058 531.216ZM420.496 546.078L427.68 507.922H431.42L438.722 546.078H435.735L433.736 535.072H425.376L423.447 546.078H420.496ZM441.603 546.078V507.922H445.53L454.69 540.648L454.42 507.922H457.266V546.078H453.503L444.201 512.385L444.437 546.078H441.603ZM475.962 546.078L475.774 540.794C475.292 542.795 474.539 544.324 473.505 545.392C472.446 546.46 471.188 547 469.718 547C466.873 547 464.78 545.359 463.451 542.087C462.099 538.816 461.428 533.7 461.428 526.752C461.428 519.827 462.146 514.813 463.545 511.688C464.968 508.574 467.225 507 470.318 507C472.705 507 474.586 508.046 475.927 510.114C477.256 512.194 477.949 515.083 477.973 518.816H475.057C475.01 516.207 474.551 514.195 473.704 512.779C472.858 511.351 471.682 510.643 470.189 510.643C468.143 510.643 466.673 511.935 465.802 514.532C464.932 517.107 464.521 521.592 464.521 527.944C464.521 533.06 464.979 536.826 465.897 539.288C466.814 541.739 468.237 542.964 470.142 542.964C471.859 542.964 473.199 541.997 474.093 540.086C475.01 538.175 475.445 535.387 475.445 531.733C475.445 531.295 475.445 530.957 475.445 530.71C475.445 530.463 475.421 530.238 475.398 530.024H469.424V526.157H478.244V546.055H475.962V546.078ZM482.206 533.97H485.005V535.33C485.005 537.927 485.416 539.884 486.239 541.21C487.063 542.525 488.285 543.189 489.92 543.189C491.39 543.189 492.542 542.548 493.365 541.278C494.188 540.007 494.6 538.253 494.6 536.016C494.6 534.24 494.353 532.857 493.847 531.901C493.342 530.935 492.189 529.957 490.425 528.99C489.99 528.754 489.391 528.428 488.638 528.023C486.498 526.887 485.216 526.044 484.758 525.482C484.04 524.538 483.499 523.425 483.123 522.132C482.782 520.828 482.594 519.321 482.594 517.613C482.594 514.285 483.218 511.688 484.476 509.822C485.757 507.944 487.509 507.011 489.779 507.011C491.919 507.011 493.612 507.877 494.835 509.608C496.058 511.339 496.646 513.745 496.646 516.803C496.646 516.893 496.646 517.062 496.622 517.287C496.622 517.512 496.622 517.658 496.622 517.77H493.918V517.365C493.918 515.241 493.553 513.565 492.813 512.407C492.095 511.249 491.072 510.665 489.732 510.665C488.38 510.665 487.298 511.227 486.522 512.34C485.722 513.453 485.322 514.96 485.322 516.848C485.322 518.647 485.593 520.041 486.122 521.041C486.651 522.031 487.827 523.009 489.638 523.965C489.849 524.077 490.167 524.245 490.602 524.482C493.354 525.954 494.988 527.056 495.541 527.787C496.187 528.664 496.67 529.732 496.987 530.98C497.281 532.228 497.446 533.734 497.446 535.488C497.446 539.097 496.752 541.918 495.376 543.942C494 545.954 492.072 546.955 489.591 546.955C487.133 546.955 485.299 545.966 484.029 543.976C482.771 541.997 482.147 539.085 482.147 535.24C482.147 535.117 482.147 534.903 482.171 534.611C482.183 534.319 482.206 534.116 482.206 533.97ZM505.336 531.216H512.367L508.852 511.227L505.336 531.216ZM499.75 546.078L506.958 507.922H510.698L518 546.078H515.013L513.014 535.072H504.654L502.725 546.078H499.75Z" fill="white"/>
<path fill-rule="evenodd" clip-rule="evenodd" d="M35 67H576V582H35V67ZM39.9337 71.6049H571.054V577.395H39.9337V71.6049Z" fill="black"/>
<path fill-rule="evenodd" clip-rule="evenodd" d="M120.393 649.875H132.728C140.737 649.875 146.1 649.055 148.817 647.379C151.499 645.727 152.862 642.809 152.862 638.58C152.862 634.318 151.557 631.354 148.957 629.713C146.38 628.049 140.947 627.217 132.728 627.217H120.393V649.875ZM82 710.989V600H131.2C142.055 600 150.671 600.592 157.036 601.778C163.379 602.963 168.695 604.844 172.962 607.454C178.477 610.93 182.604 615.227 185.321 620.345C188.014 625.462 189.366 631.559 189.366 638.58C189.366 650.992 185.402 660.498 177.509 667.108C169.616 673.719 158.226 677.013 143.349 677.013H120.381V710.989H82ZM248.337 710.989V600H286.403V636.791L320.797 600H365.356L322.685 640.928L370.894 710.989H325.122L295.893 666.538L286.403 675.645V711H248.337V710.989ZM458.907 685.059H476.686C482.563 685.059 486.772 684.273 489.232 682.643C491.738 681.047 492.962 678.403 492.962 674.745C492.962 671.097 491.715 668.476 489.161 666.926C486.632 665.353 482.376 664.59 476.36 664.59H458.895L458.907 685.059ZM458.907 644.325H474.728C480.033 644.325 483.787 643.607 485.932 642.136C488.101 640.678 489.185 638.227 489.185 634.762C489.185 631.092 488.019 628.585 485.699 627.228C483.355 625.872 477.981 625.188 469.528 625.188H458.895L458.907 644.325ZM421.645 710.989V600H470.671C481.234 600 488.905 600.251 493.72 600.741C498.547 601.265 502.674 602.074 506.125 603.237C512.2 605.357 516.828 608.651 520.057 613.119C523.264 617.598 524.884 623.023 524.884 629.405C524.884 634.409 523.695 638.808 521.282 642.535C518.868 646.297 515.242 649.363 510.416 651.779C516.746 653.887 521.433 657.056 524.465 661.273C527.473 665.478 529 670.972 529 677.674C529 684.262 527.542 689.972 524.558 694.827C521.643 699.671 517.341 703.398 511.71 706.02C507.909 707.809 503.607 709.108 498.734 709.849C493.883 710.59 485.827 710.989 474.576 710.989H421.645Z" fill="black"/>
</svg>
