<svg width="150" height="150" viewBox="0 0 150 150" fill="none" xmlns="http://www.w3.org/2000/svg">
<path d="M19.4117 19.4118H131.176V131.474H19.4117V19.4118Z" stroke="white" stroke-width="2.5"/>
<path fill-rule="evenodd" clip-rule="evenodd" d="M81.5108 46.5119C86.0634 47.518 89.9873 49.7095 92.6882 52.6293C91.3989 53.2153 89.9389 53.7336 88.338 54.1705C86.8525 50.7782 84.4397 48.0599 81.5108 46.5119ZM93.2589 53.2779C95.2716 55.6931 96.4794 58.5486 96.5782 61.6125H89.9431C89.8989 59.2309 89.438 56.9684 88.6489 54.9259C90.3404 54.4618 91.8888 53.9063 93.2589 53.2779ZM75.881 67.5041C77.2401 67.5041 78.5805 67.5533 79.8788 67.6482C80.0425 66.014 80.1331 64.2577 80.1455 62.4237H71.6151C71.6255 64.2563 71.7222 66.014 71.8839 67.6482C73.1863 67.5553 74.5198 67.5041 75.881 67.5041ZM80.8986 67.7345C83.3038 67.9582 85.5756 68.3378 87.654 68.8509C88.3988 66.8895 88.8341 64.717 88.8825 62.425H81.2123C81.1978 64.2829 81.0879 66.0684 80.8986 67.7345ZM88.6469 69.1085C90.3362 69.5724 91.8846 70.1293 93.2561 70.7559C95.2696 68.3425 96.4773 65.4876 96.5761 62.4237H89.941C89.8968 64.8046 89.4318 67.0661 88.6469 69.1085ZM92.6861 71.4064C91.3968 70.8203 89.9327 70.3026 88.3359 69.8652C86.8525 73.2557 84.4397 75.9745 81.5108 77.5237C86.0634 76.5181 89.9873 74.3263 92.6861 71.4064ZM87.3451 69.6096C85.3359 69.1204 83.1331 68.756 80.7998 68.5409C80.2215 72.9271 79.0752 76.386 77.6526 77.981C81.848 77.2682 85.4132 74.0588 87.3451 69.6096ZM79.7924 68.458C78.5218 68.3664 77.2111 68.3173 75.881 68.3173C74.5475 68.3173 73.243 68.365 71.9723 68.458C72.6329 74.1418 74.1371 78.1317 75.881 78.1317C77.6277 78.1317 79.1319 74.1418 79.7924 68.458ZM70.967 68.5409C68.6316 68.756 66.4289 69.1204 64.4217 69.6076C66.3515 74.0569 69.9195 77.2662 74.1143 77.9797C72.6923 76.386 71.5474 72.9271 70.967 68.5409ZM63.4288 69.8652C61.8279 70.3026 60.3659 70.8203 59.0766 71.4064C61.7775 74.3263 65.6993 76.5181 70.254 77.5237C67.323 75.9745 64.9123 73.2557 63.4288 69.8652ZM58.5059 70.7579C59.876 70.1293 61.4244 69.5758 63.1179 69.1098C62.3288 67.0674 61.868 64.8066 61.8217 62.425H55.1864C55.2853 65.4889 56.4929 68.3425 58.5059 70.7579ZM64.1129 68.8489C66.1912 68.3378 68.4637 67.9582 70.8682 67.7345C70.6789 66.0684 70.567 64.2829 70.5545 62.425H62.8844C62.9286 64.717 63.366 66.8895 64.1129 68.8489ZM75.881 56.5315C77.2401 56.5315 78.5805 56.4806 79.8788 56.3858C80.0425 58.0202 80.1331 59.7779 80.1455 61.6106H71.6151C71.6255 59.7779 71.7222 58.0182 71.8839 56.3858C73.1863 56.4824 74.5198 56.5315 75.881 56.5315ZM80.8986 56.3011C83.3038 56.0775 85.5756 55.6982 87.654 55.185C88.3988 57.146 88.8341 59.3206 88.8825 61.6106H81.2123C81.1978 59.7547 81.0879 57.9678 80.8986 56.3011ZM87.3451 54.4263C85.3359 54.9157 83.1331 55.2815 80.7998 55.4966C80.2215 51.1101 79.0752 47.6534 77.6526 46.0564C81.848 46.7694 85.4132 49.9754 87.3451 54.4263ZM79.7924 55.5779C78.5218 55.671 77.2111 55.7185 75.881 55.7185C74.5475 55.7185 73.243 55.6694 71.9723 55.5779C72.6329 49.8924 74.1371 45.9056 75.881 45.9056C77.6277 45.9056 79.1319 49.8924 79.7924 55.5779ZM70.967 55.4949C68.6316 55.2799 66.4289 54.914 64.4217 54.4263C66.3515 49.9771 69.9195 46.7694 74.1143 46.0564C72.6923 47.6518 71.5474 51.1084 70.967 55.4949ZM63.4288 54.1705C61.8279 53.7336 60.3638 53.2153 59.0766 52.6293C61.7795 49.7095 65.7013 47.5162 70.256 46.5119C67.323 48.0616 64.9123 50.7782 63.4288 54.1705ZM58.5059 53.2779C59.876 53.9063 61.4265 54.4618 63.1179 54.9259C62.3288 56.9684 61.868 59.2309 61.8217 61.6125H55.1864C55.2853 58.5486 56.4929 55.6913 58.5059 53.2779ZM64.1108 55.185C66.1891 55.6964 68.461 56.0775 70.8661 56.3011C70.6768 57.9678 70.5649 59.7527 70.5524 61.6125H62.8823C62.9286 59.3206 63.3659 57.146 64.1108 55.185ZM75.881 45.0927C87.8668 45.0927 97.6471 52.6971 97.6471 62.0188C97.6471 71.342 87.8689 78.9448 75.881 78.9448C63.8938 78.9448 54.1177 71.342 54.1177 62.0188C54.1177 52.6971 63.8959 45.0927 75.881 45.0927Z" fill="white"/>
<path fill-rule="evenodd" clip-rule="evenodd" d="M48.8196 70.0774L49.9116 72.7016H53.4381L50.5839 74.3237L51.6738 76.9467L48.8196 75.3245L45.9675 76.9467L47.0575 74.3237L44.2032 72.7016H47.7318L48.8196 70.0774ZM103.529 70.0774L104.619 72.7016H108.147L105.293 74.3237L106.383 76.9467L103.529 75.3245L100.675 76.9467L101.765 74.3237L98.9104 72.7016H102.439L103.529 70.0774ZM46.6418 53.336L47.7954 56.1088H51.5211L48.5057 57.8199L49.6572 60.5925L46.6418 58.8783L43.6286 60.5925L44.78 57.8199L41.7646 56.1088H45.4904L46.6418 53.336ZM105.709 53.336L106.861 56.1088H110.588L107.573 57.8199L108.724 60.5925L105.709 58.8783L102.694 60.5925L103.845 57.8199L100.83 56.1088H104.553L105.709 53.336ZM55.7897 39.8283L56.8797 42.4492H60.4061L57.5537 44.0731L58.6438 46.6957L55.7897 45.0753L52.9355 46.6957L54.0255 44.0731L51.1713 42.4492H54.6977L55.7897 39.8283ZM96.5586 39.8283L97.6487 42.4492H101.177L98.323 44.0731L99.4131 46.6957L96.5586 45.0753L93.7049 46.6957L94.7942 44.0731L91.9405 42.4492H95.4686L96.5586 39.8283ZM76.1743 29.9176L78.125 34.6093H84.4297L79.3277 37.5078L81.2784 42.1995L76.1764 39.301L71.0744 42.1995L73.023 37.5078L67.9211 34.6093H74.2278L76.1743 29.9176ZM65.6756 81.7885L66.7997 84.4915H70.4342L67.4928 86.1659L68.619 88.867L65.6756 87.1946L62.7364 88.867L63.8605 86.1659L60.9191 84.4915H64.5557L65.6756 81.7885ZM86.673 81.7885L87.7951 84.4915H91.4316L88.4903 86.1659L89.6123 88.867L86.671 87.1946L83.7296 88.867L84.8517 86.1659L81.9103 84.4915H85.5468L86.673 81.7885Z" fill="white"/>
<path fill-rule="evenodd" clip-rule="evenodd" d="M57.4912 55.5985C58.2031 55.773 58.9157 56.0033 59.6255 56.2353C60.4089 57.0448 60.4089 57.0448 62.6857 58.6042C62.7573 58.547 62.8289 58.4891 62.9714 58.4891L65.5346 61.3797L66.6017 62.0742C66.4585 62.7088 66.3889 63.3455 66.316 64.0387C66.9562 64.1538 68.3807 64.3281 68.6664 64.8477C69.876 64.7905 70.2333 64.5004 71.3713 64.7326C71.4923 64.0455 72.8632 65.3277 72.4385 65.1949C72.7242 65.2528 73.5056 65.4251 73.5056 65.7744C73.6467 65.7744 73.8608 65.7744 74.0749 65.8316C74.0749 66.409 73.1489 66.294 72.5796 66.294C72.5796 66.343 71.5876 66.6201 71.4409 66.0618C70.8715 66.0046 70.3738 65.9467 69.8739 65.8874C69.0188 65.1949 67.0973 65.5402 65.9586 64.9055C65.9586 64.6733 66.0302 64.4411 66.1011 64.2689C65.1752 64.1538 64.6079 63.6894 63.6798 63.4592L62.6836 62.0722L61.9717 61.3783C61.0457 59.8741 59.0519 56.9261 57.0588 56.1167L57.4912 55.5985ZM71.1614 62.4194L69.2392 61.2632C69.454 60.743 68.7415 59.759 68.5273 59.1816C68.8826 58.547 68.9535 58.3148 69.737 58.9515C70.1638 58.9515 70.592 58.9515 71.0898 58.9515L72.3001 58.7193C73.4381 58.7193 73.938 57.448 74.2216 56.6383C75.434 56.6383 75.434 56.6383 75.9318 56.8109C76.0722 57.5051 75.9318 58.1977 76.6416 58.7771C76.6416 58.8922 76.6416 59.0665 76.6416 59.2395C75.8602 59.4138 75.5028 60.6259 75.0767 61.2033C75.0767 61.2632 75.1483 61.3191 75.2178 61.3783C75.3012 61.3694 75.3826 61.3606 75.4667 61.3517V61.9959C75.3603 61.9816 75.254 61.968 75.1462 61.9557C74.791 62.5345 74.2932 62.7647 73.5097 62.9376C73.3672 62.7633 73.224 62.6482 73.1524 62.5332C72.8674 62.5332 72.5838 62.5332 72.371 62.5332C72.1715 63.5049 71.3331 62.2485 71.1614 62.4194ZM76.9273 61.2646C77.425 60.2827 77.4966 59.646 78.4205 58.8936C79.0615 58.9514 79.7004 59.0093 80.3407 59.0686L81.1262 58.6634C81.3382 58.6634 81.624 58.6634 81.9076 58.6634C81.9076 58.7213 81.9792 58.8377 82.0508 58.9535C81.6789 59.1033 81.4891 59.3702 81.3897 59.6875H80.3268C80.3302 59.6739 80.3386 59.6596 80.3427 59.646C79.5613 59.646 78.8495 59.646 78.1355 59.7032C78.0681 59.8183 77.9965 59.9926 77.9228 60.1656C78.066 60.3399 78.2064 60.5128 78.3496 60.6858C78.919 60.5128 79.4897 60.3385 80.1307 60.2234C80.1349 60.2091 80.1349 60.1969 80.139 60.1833H81.3056C81.2896 60.4393 81.3056 60.7049 81.3223 60.9473H80.2141C80.2058 60.8969 80.1981 60.8479 80.1981 60.8009C79.9854 60.8581 79.8429 60.9159 79.7004 60.9731C79.7004 61.0882 79.7004 61.2033 79.7713 61.3783C79.8429 61.3783 79.9305 61.3783 80.0306 61.3783V62.0722C79.9305 62.0722 79.8429 62.0722 79.7713 62.0722C79.8429 62.3023 79.9145 62.5345 80.0591 62.7647C80.1307 62.7647 80.1981 62.7647 80.3427 62.7647C80.3427 62.7075 80.3427 62.6482 80.3427 62.589H81.1241C81.0525 62.8907 81.0199 63.2114 81.008 63.545H80.3469C80.3427 63.4068 80.3427 63.2638 80.3427 63.112C79.9166 63.227 79.4897 63.3421 79.0636 63.4592C78.7758 63.0548 78.5658 62.6496 78.3496 62.2451C78.2064 62.8239 78.1348 63.4014 78.066 64.0367C77.7782 63.9788 77.5641 63.9788 77.352 63.9788L76.9273 61.2646ZM81.0449 64.8844C81.0817 65.4149 81.1283 65.9385 81.1283 66.409C81.1999 66.409 81.3403 66.409 81.4835 66.4669C82.0529 66.0046 82.8343 66.0046 83.6908 66.0046C83.0505 66.7563 81.7672 66.8714 81.0567 67.8553L80.2002 67.7403C80.2002 67.2207 80.2002 66.6984 80.2002 66.2381C80.0612 66.2381 79.9166 66.2381 79.7734 66.2381C79.7734 66.296 79.7734 66.3532 79.7734 66.4683C79.0636 66.4683 78.3517 66.4683 77.6371 66.4683C77.6371 66.296 77.6371 66.1789 77.7087 66.0638C79.7901 65.9433 80.2468 65.8214 80.3386 64.8865H81.0449V64.8844ZM82.0077 61.3797C83.777 61.3797 85.5497 61.3797 87.3203 61.3797C86.9658 60.8601 86.9658 60.8601 86.9658 60.3978C87.531 60.2827 88.1017 60.1656 88.7427 60.1084L89.8835 61.3797C91.0952 61.3225 91.593 61.1475 92.5176 60.8022L95.2941 62.0742C95.2225 63.5205 95.1516 64.9648 95.1516 66.4683C94.7248 66.2381 94.2986 66.0638 93.9392 65.8895C93.4415 65.8895 92.9437 65.9467 92.5176 66.0046C92.4459 65.8316 92.4459 65.8316 93.0153 65.1377C93.0153 64.5603 92.6601 64.2702 92.4459 63.7507C91.5214 63.5205 90.5974 63.2883 89.7403 63.1154L86.6801 62.0742C86.6085 62.2465 86.5369 62.4787 86.5369 62.7088C85.9682 62.4194 85.1868 62.4194 84.4722 62.4194C84.2601 62.2451 84.046 62.0722 83.8319 61.9571C83.8319 62.4773 83.5483 62.5366 82.8364 62.5366C82.6973 62.3623 82.5527 62.1893 82.4811 62.0163C82.3219 62.0163 82.1627 62.0238 82.0119 62.0374V61.3797H82.0077ZM78.2064 67.5081C77.7803 67.3337 77.3534 67.1608 76.9989 67.0457C76.9989 66.9306 76.9989 66.8142 76.9989 66.7563C77.7803 66.5241 78.3496 66.582 78.4921 67.3916C78.3496 67.3916 78.278 67.4509 78.2064 67.5081Z" fill="white"/>
<path fill-rule="evenodd" clip-rule="evenodd" d="M38.1822 95.4727H38.8836C39.2077 95.4727 39.4444 95.39 39.5979 95.2304C39.7493 95.0682 39.8239 94.8141 39.8239 94.4674C39.8239 94.1483 39.7471 93.9165 39.5957 93.7734C39.4422 93.6302 39.1929 93.5593 38.8496 93.5593H38.1822V95.4727ZM37.6471 98.0847V93.0734H38.8751C39.3975 93.0734 39.7791 93.1857 40.0179 93.4103C40.2588 93.6348 40.3782 93.9888 40.3782 94.4733C40.3782 94.9691 40.2524 95.346 40.0029 95.5981C39.7514 95.8536 39.3826 95.9809 38.8965 95.9809H38.1822V98.086L37.6471 98.0847ZM41.2673 96.1326H42.5423L41.9069 93.5075L41.2673 96.1326ZM40.2588 98.0847L41.5636 93.0734H42.2438L43.5678 98.0847H43.0284L42.6659 96.6389H41.15L40.8025 98.0847H40.2588ZM44.6061 95.3709H45.2563C45.6316 95.3709 45.9067 95.2954 46.0815 95.1451C46.2585 94.9947 46.3459 94.7596 46.3459 94.4405C46.3459 94.1339 46.2669 93.9119 46.1134 93.7734C45.9599 93.6348 45.7083 93.5652 45.3608 93.5652H44.6082V95.3709H44.6061ZM44.0859 98.0847V93.0734H45.4291C45.9237 93.0734 46.2905 93.1785 46.5314 93.3912C46.7722 93.602 46.8917 93.9257 46.8917 94.3584C46.8917 94.6946 46.8192 94.9632 46.6742 95.1641C46.5292 95.365 46.3053 95.5055 46.0026 95.585C46.2691 95.6099 46.4673 95.6986 46.5995 95.8549C46.7339 96.0118 46.8128 96.2554 46.8426 96.5817C46.8533 96.7025 46.866 96.8693 46.8767 97.0867C46.9108 97.633 46.994 97.9665 47.1283 98.0847H46.4653C46.3992 97.9692 46.3565 97.696 46.3373 97.2679C46.3267 97.0525 46.3181 96.8825 46.3053 96.7571C46.2776 96.4117 46.1902 96.1753 46.0495 96.0486C45.9066 95.9218 45.6529 95.8595 45.2862 95.8595H44.6061V98.0847H44.0859ZM48.4609 98.0847V93.5889H47.2413V93.0754H50.1558V93.5889H49.0088V98.0847H48.4609ZM50.8828 96.1326H52.1557L51.5203 93.5075L50.8828 96.1326ZM49.8744 98.0847L51.1771 93.0734H51.8572L53.1812 98.0847H52.6397L52.2772 96.6389H50.7613L50.4138 98.0847H49.8744ZM53.7015 98.0847V93.0734H54.2494V98.0847H53.7015ZM56.6863 98.0847V93.0734H57.2152V95.4845L58.9445 93.0734H59.5623L58.0746 95.0965L59.6713 98.0828H59.0209L57.7164 95.585L57.2131 96.2718V98.0847H56.6863ZM60.1358 98.0847V93.0734H62.5086V93.5948H60.6648V95.2055H62.3892V95.7137H60.6648V97.5588H62.5302V98.0847H60.1358ZM63.7714 95.2055H64.3296C64.6642 95.2055 64.9009 95.1405 65.0356 95.0091C65.1717 94.8791 65.2404 94.6565 65.2404 94.3387C65.2404 94.038 65.1696 93.8253 65.0335 93.7025C64.8968 93.5803 64.6517 93.518 64.2997 93.518H63.7714V95.2055ZM63.7714 97.5896H64.449C64.7753 97.5896 65.0099 97.5187 65.1529 97.3756C65.2952 97.2324 65.3681 96.998 65.3681 96.6717C65.3681 96.304 65.2911 96.0459 65.1397 95.8936C64.9863 95.7413 64.726 95.6664 64.3573 95.6664H63.7714V97.5896ZM63.2549 98.0847V93.0734H64.5024C64.9502 93.0734 65.2744 93.1726 65.4764 93.3702C65.6791 93.5698 65.7798 93.887 65.7798 94.3256C65.7798 94.6237 65.7264 94.8647 65.6174 95.0446C65.5091 95.2265 65.3425 95.3506 65.1189 95.4182C65.398 95.476 65.6028 95.6053 65.7347 95.8063C65.8666 96.0085 65.9332 96.2876 65.9332 96.6448C65.9332 97.1024 65.8138 97.457 65.5729 97.7078C65.3341 97.9573 64.9926 98.0828 64.5538 98.0828H63.2549V98.0847ZM67.3786 96.1326H68.6511L68.0159 93.5075L67.3786 96.1326ZM66.3699 98.0847L67.675 93.0734H68.3554L69.6793 98.0847H69.1378L68.7754 96.6389H67.2592L66.9093 98.0847H66.3699ZM70.1951 98.0847V93.0734H70.9094L72.5679 97.3716L72.5186 93.0734H73.0351V98.0847H72.3506L70.6665 93.6598L70.7088 98.0847H70.1951ZM76.4271 98.0847L76.3931 97.3907C76.3098 97.6533 76.1689 97.8542 75.9814 97.9941C75.7919 98.1346 75.5635 98.2055 75.2948 98.2055C74.779 98.2055 74.4014 97.9902 74.1563 97.5601C73.9133 97.1307 73.7919 96.4589 73.7919 95.5462C73.7919 94.6368 73.9196 93.9789 74.1758 93.5685C74.4312 93.1595 74.8429 92.9526 75.4038 92.9526C75.8363 92.9526 76.173 93.0899 76.4188 93.3617C76.6597 93.6348 76.7853 94.0144 76.7895 94.5042H76.2605C76.2522 94.1615 76.1689 93.8975 76.0196 93.7117C75.8641 93.5239 75.651 93.4313 75.3781 93.4313C75.0067 93.4313 74.7429 93.6007 74.5847 93.9415C74.4271 94.2796 74.3486 94.8686 74.3486 95.7032C74.3486 96.3749 74.4312 96.8693 74.5999 97.193C74.7679 97.5148 75.0262 97.6756 75.3719 97.6756C75.6829 97.6756 75.9238 97.5483 76.0856 97.2974C76.2522 97.0466 76.3313 96.6802 76.3313 96.2009C76.3313 96.1431 76.3313 96.0985 76.3313 96.0663C76.3313 96.0341 76.3272 96.0046 76.3223 95.9763H75.2435V95.4681H76.8409V98.0814H76.4271V98.0847ZM77.6594 98.0847V93.0734H78.1884V95.4845L79.917 93.0734H80.5376L79.0471 95.0965L80.6466 98.0828H79.9961L78.6931 95.585L78.1905 96.2718V98.0847H77.6594ZM81.1069 98.0847V93.0734H81.6567V98.0847H81.1069ZM83.3923 98.0847V93.5889H82.1732V93.0754H85.0876V93.5889H83.9428V98.0847H83.3923ZM85.8165 96.1326H87.0918L86.4538 93.5075L85.8165 96.1326ZM84.8085 98.0847L86.1108 93.0734H86.7933L88.113 98.0847H87.5757L87.2091 96.6389H85.6929L85.3472 98.0847H84.8085ZM88.635 98.0847V93.0734H89.3515L91.0079 97.3716L90.9593 93.0734H91.4751V98.0847H90.7927L89.1064 93.6598L89.1508 98.0847H88.635ZM94.4276 95.2055H94.9865C95.319 95.2055 95.5578 95.1405 95.6904 95.0091C95.8265 94.8791 95.8945 94.6565 95.8945 94.3387C95.8945 94.038 95.8286 93.8253 95.6904 93.7025C95.5516 93.5803 95.3065 93.518 94.9525 93.518H94.4276V95.2055ZM94.4276 97.5896H95.1059C95.4301 97.5896 95.6648 97.5187 95.8098 97.3756C95.9501 97.2324 96.023 96.998 96.023 96.6717C96.023 96.304 95.948 96.0459 95.7946 95.8936C95.6453 95.7413 95.3829 95.6664 95.0122 95.6664H94.4304V97.5896H94.4276ZM93.9118 98.0847V93.0734H95.1614C95.6071 93.0734 95.9313 93.1726 96.1313 93.3702C96.3361 93.5698 96.436 93.887 96.436 94.3256C96.436 94.6237 96.3833 94.8647 96.2743 95.0446C96.1653 95.2265 95.9994 95.3506 95.7751 95.4182C96.0549 95.476 96.2597 95.6053 96.3916 95.8063C96.5256 96.0085 96.5922 96.2876 96.5922 96.6448C96.5922 97.1024 96.4707 97.457 96.2299 97.7078C95.9931 97.9573 95.6516 98.0828 95.2128 98.0828H93.9118V98.0847ZM98.0355 96.1326H99.3101L98.6728 93.5075L98.0355 96.1326ZM97.0268 98.0847L98.3299 93.0734H99.0074L100.331 98.0847H99.7898L99.4274 96.6389H97.912L97.5621 98.0847H97.0268ZM100.854 98.0847V93.0734H101.566L103.227 97.3716L103.178 93.0734H103.694V98.0847H103.012L101.325 93.6598L101.368 98.0847H100.854ZM107.084 98.0847L107.05 97.3907C106.963 97.6533 106.826 97.8542 106.638 97.9941C106.446 98.1346 106.218 98.2055 105.952 98.2055C105.436 98.2055 105.056 97.9902 104.815 97.5601C104.57 97.1307 104.449 96.4589 104.449 95.5462C104.449 94.6368 104.579 93.9789 104.833 93.5685C105.09 93.1595 105.5 92.9526 106.061 92.9526C106.493 92.9526 106.834 93.0899 107.077 93.3617C107.319 93.6348 107.444 94.0144 107.449 94.5042H106.92C106.911 94.1615 106.828 93.8975 106.674 93.7117C106.521 93.5239 106.308 93.4313 106.037 93.4313C105.666 93.4313 105.4 93.6007 105.242 93.9415C105.084 94.2796 105.009 94.8686 105.009 95.7032C105.009 96.3749 105.092 96.8693 105.259 97.193C105.425 97.5148 105.683 97.6756 106.029 97.6756C106.34 97.6756 106.583 97.5483 106.745 97.2974C106.911 97.0466 106.99 96.6802 106.99 96.2009C106.99 96.1431 106.99 96.0985 106.99 96.0663C106.99 96.0341 106.985 96.0046 106.981 95.9763H105.898V95.4681H107.498V98.0814H107.084V98.0847ZM108.216 96.4944H108.723V96.673C108.723 97.0138 108.798 97.2712 108.947 97.4452C109.097 97.6179 109.318 97.7052 109.614 97.7052C109.881 97.7052 110.09 97.6212 110.239 97.4544C110.389 97.2869 110.463 97.0571 110.463 96.763C110.463 96.5299 110.418 96.348 110.327 96.2226C110.235 96.0958 110.026 95.9671 109.706 95.8404C109.628 95.8095 109.519 95.7669 109.382 95.7137C108.994 95.564 108.762 95.4537 108.679 95.3795C108.549 95.256 108.45 95.1096 108.382 94.9395C108.32 94.7688 108.286 94.5705 108.286 94.3466C108.286 93.9093 108.4 93.5685 108.627 93.3229C108.86 93.0767 109.178 92.9539 109.589 92.9539C109.977 92.9539 110.284 93.0675 110.506 93.2954C110.727 93.5226 110.834 93.8384 110.834 94.2402C110.834 94.2521 110.834 94.2737 110.83 94.3033C110.83 94.3328 110.83 94.3525 110.83 94.367H110.339V94.3138C110.339 94.0347 110.273 93.8148 110.139 93.6624C110.009 93.5107 109.823 93.4339 109.58 93.4339C109.335 93.4339 109.139 93.5075 108.999 93.6539C108.854 93.8003 108.781 93.998 108.781 94.2462C108.781 94.4819 108.83 94.6651 108.926 94.7964C109.022 94.9264 109.235 95.0551 109.563 95.1805C109.602 95.195 109.66 95.2173 109.738 95.2481C110.237 95.4418 110.534 95.5863 110.634 95.6822C110.751 95.7977 110.838 95.9376 110.896 96.1017C110.949 96.2659 110.979 96.4635 110.979 96.694C110.979 97.1674 110.854 97.5384 110.604 97.8037C110.355 98.0683 110.005 98.1996 109.555 98.1996C109.109 98.1996 108.777 98.0696 108.547 97.8083C108.318 97.5483 108.205 97.1661 108.205 96.6612C108.205 96.6448 108.205 96.6172 108.209 96.5785C108.211 96.5404 108.216 96.5134 108.216 96.4944ZM112.409 96.1326H113.685L113.047 93.5075L112.409 96.1326ZM111.397 98.0847L112.704 93.0734H113.382L114.706 98.0847H114.164L113.802 96.6389H112.286L111.937 98.0847H111.397Z" fill="white"/>
<path fill-rule="evenodd" clip-rule="evenodd" d="M42.804 114.185H45.0278C46.4719 114.185 47.4388 114.047 47.9285 113.766C48.412 113.487 48.6579 112.996 48.6579 112.285C48.6579 111.568 48.4225 111.069 47.9537 110.793C47.4893 110.512 46.5098 110.373 45.0278 110.373H42.804V114.185ZM35.8823 124.468V105.793H44.7525C46.7094 105.793 48.2628 105.892 49.4104 106.092C50.5538 106.291 51.5123 106.608 52.2816 107.047C53.2758 107.632 54.0199 108.355 54.5097 109.216C54.9952 110.077 55.2391 111.103 55.2391 112.285C55.2391 114.373 54.5244 115.973 53.1014 117.085C51.6784 118.197 49.6248 118.752 46.9428 118.752H42.8019V124.468H35.8823ZM65.8709 124.468V105.793H72.7334V111.984L78.9345 105.793H86.9676L79.2749 112.68L87.9659 124.468H79.714L74.4445 116.989L72.7334 118.521V124.47H65.8709V124.468ZM103.833 120.105H107.039C108.098 120.105 108.857 119.973 109.301 119.699C109.753 119.43 109.973 118.985 109.973 118.369C109.973 117.756 109.748 117.315 109.288 117.054C108.832 116.789 108.065 116.661 106.981 116.661H103.831L103.833 120.105ZM103.833 113.251H106.686C107.643 113.251 108.319 113.13 108.706 112.883C109.097 112.638 109.293 112.225 109.293 111.642C109.293 111.025 109.082 110.603 108.664 110.374C108.242 110.146 107.272 110.031 105.749 110.031H103.831L103.833 113.251ZM97.1162 124.468V105.793H105.954C107.859 105.793 109.242 105.835 110.11 105.918C110.98 106.006 111.724 106.142 112.347 106.338C113.442 106.694 114.276 107.249 114.858 108C115.436 108.754 115.729 109.667 115.729 110.741C115.729 111.583 115.514 112.323 115.079 112.95C114.644 113.583 113.99 114.099 113.12 114.505C114.261 114.86 115.106 115.393 115.653 116.103C116.195 116.811 116.471 117.735 116.471 118.862C116.471 119.971 116.208 120.932 115.67 121.749C115.144 122.564 114.368 123.191 113.353 123.632C112.668 123.933 111.892 124.152 111.014 124.277C110.14 124.401 108.687 124.468 106.659 124.468H97.1162Z" fill="white"/>
<rect x="27.1323" y="26.4983" width="98.0882" height="75.1265" stroke="white" stroke-width="2.5"/>
</svg>
