<svg width="255" height="257" viewBox="0 0 255 257" fill="none" xmlns="http://www.w3.org/2000/svg">
<path d="M53.5 49.5H201.5V207.5H53.5V49.5Z" stroke="white"/>
<path fill-rule="evenodd" clip-rule="evenodd" d="M135.646 84.1381C142.235 85.6538 147.914 88.9554 151.823 93.3543C149.957 94.2371 147.844 95.0179 145.527 95.6762C143.377 90.5655 139.885 86.4702 135.646 84.1381ZM152.649 94.3315C155.562 97.97 157.31 102.272 157.453 106.888H147.85C147.786 103.3 147.119 99.8914 145.977 96.8142C148.425 96.1151 150.666 95.2781 152.649 94.3315ZM127.498 115.764C129.465 115.764 131.405 115.838 133.284 115.981C133.521 113.519 133.652 110.873 133.67 108.11H121.324C121.339 110.871 121.479 113.519 121.713 115.981C123.598 115.841 125.528 115.764 127.498 115.764ZM134.76 116.111C138.241 116.448 141.529 117.02 144.537 117.793C145.615 114.838 146.245 111.565 146.315 108.112H135.214C135.193 110.911 135.034 113.601 134.76 116.111ZM145.974 118.181C148.419 118.88 150.66 119.719 152.645 120.663C155.559 117.027 157.307 112.726 157.45 108.11H147.847C147.783 111.697 147.11 115.104 145.974 118.181ZM151.82 121.643C149.954 120.76 147.835 119.98 145.524 119.321C143.377 124.429 139.885 128.525 135.646 130.859C142.235 129.344 147.914 126.042 151.82 121.643ZM144.09 118.936C141.182 118.199 137.994 117.65 134.617 117.326C133.78 123.934 132.121 129.145 130.062 131.548C136.134 130.474 141.294 125.639 144.09 118.936ZM133.159 117.201C131.32 117.063 129.423 116.989 127.498 116.989C125.568 116.989 123.68 117.061 121.841 117.201C122.797 125.764 124.974 131.775 127.498 131.775C130.026 131.775 132.203 125.764 133.159 117.201ZM120.386 117.326C117.006 117.65 113.818 118.199 110.913 118.933C113.706 125.636 118.87 130.471 124.941 131.546C122.883 129.145 121.226 123.934 120.386 117.326ZM109.476 119.321C107.159 119.98 105.043 120.76 103.177 121.643C107.086 126.042 112.762 129.344 119.354 130.859C115.112 128.525 111.623 124.429 109.476 119.321ZM102.351 120.666C104.334 119.719 106.575 118.885 109.026 118.183C107.884 115.106 107.217 111.7 107.15 108.112H97.5467C97.6899 112.728 99.4376 117.027 102.351 120.666ZM110.466 117.79C113.474 117.02 116.763 116.448 120.243 116.111C119.969 113.601 119.807 110.911 119.789 108.112H108.688C108.752 111.565 109.385 114.838 110.466 117.79ZM127.498 99.2331C129.465 99.2331 131.405 99.1565 133.284 99.0136C133.521 101.476 133.652 104.124 133.67 106.885H121.324C121.339 104.124 121.479 101.473 121.713 99.0136C123.598 99.1591 125.528 99.2331 127.498 99.2331ZM134.76 98.886C138.241 98.5492 141.529 97.9777 144.537 97.2046C145.615 100.159 146.245 103.435 146.315 106.885H135.214C135.193 104.089 135.034 101.397 134.76 98.886ZM144.09 96.0615C141.182 96.7989 137.994 97.35 134.617 97.674C133.78 91.0655 132.121 85.8579 130.062 83.4518C136.134 84.526 141.294 89.356 144.09 96.0615ZM133.159 97.7965C131.32 97.9368 129.423 98.0083 127.498 98.0083C125.568 98.0083 123.68 97.9343 121.841 97.7965C122.797 89.231 124.974 83.2247 127.498 83.2247C130.026 83.2247 132.203 89.231 133.159 97.7965ZM120.386 97.6715C117.006 97.3475 113.818 96.7963 110.913 96.0615C113.706 89.3586 118.87 84.526 124.941 83.4518C122.883 85.8554 121.226 91.063 120.386 97.6715ZM109.476 95.6762C107.159 95.0179 105.04 94.2371 103.177 93.3543C107.089 88.9554 112.765 85.6512 119.357 84.1381C115.112 86.4728 111.623 90.5655 109.476 95.6762ZM102.351 94.3315C104.334 95.2781 106.578 96.1151 109.026 96.8142C107.884 99.8914 107.217 103.3 107.15 106.888H97.5467C97.6899 102.272 99.4376 97.9674 102.351 94.3315ZM110.463 97.2046C113.471 97.9751 116.759 98.5492 120.24 98.886C119.966 101.397 119.804 104.086 119.786 106.888H108.685C108.752 103.435 109.385 100.159 110.463 97.2046ZM127.498 82C144.845 82 159 93.4564 159 107.5C159 121.546 144.848 133 127.498 133C110.149 133 96 121.546 96 107.5C96 93.4564 110.152 82 127.498 82Z" fill="white"/>
<path fill-rule="evenodd" clip-rule="evenodd" d="M88.1483 119.632L89.7191 123.594H94.7918L90.6861 126.043L92.254 130.003L88.1483 127.554L84.0456 130.003L85.6135 126.043L81.5078 123.594H86.5835L88.1483 119.632ZM166.846 119.632L168.413 123.594H173.489L169.383 126.043L170.951 130.003L166.846 127.554L162.74 130.003L164.308 126.043L160.202 123.594H165.278L166.846 119.632ZM85.0156 94.3564L86.675 98.5426H92.0343L87.6968 101.126L89.3531 105.312L85.0156 102.724L80.6812 105.312L82.3375 101.126L78 98.5426H83.3593L85.0156 94.3564ZM169.981 94.3564L171.638 98.5426H177L172.663 101.126L174.319 105.312L169.981 102.724L165.644 105.312L167.3 101.126L162.963 98.5426H168.319L169.981 94.3564ZM98.1745 73.9629L99.7424 77.9198H104.815L100.712 80.3715L102.28 84.331L98.1745 81.8846L94.0688 84.331L95.6367 80.3715L91.5311 77.9198H96.6037L98.1745 73.9629ZM156.819 73.9629L158.387 77.9198H163.463L159.357 80.3715L160.925 84.331L156.819 81.8846L152.714 84.331L154.281 80.3715L150.176 77.9198H155.251L156.819 73.9629ZM127.497 59L130.303 66.0834H139.372L132.033 70.4595L134.839 77.5429L127.5 73.1668L120.161 77.5429L122.964 70.4595L115.625 66.0834H124.697L127.497 59ZM112.395 137.313L114.012 141.394H119.24L115.009 143.922L116.629 148L112.395 145.475L108.167 148L109.784 143.922L105.553 141.394H110.784L112.395 137.313ZM142.599 137.313L144.213 141.394H149.444L145.213 143.922L146.827 148L142.596 145.475L138.365 148L139.979 143.922L135.748 141.394H140.979L142.599 137.313Z" fill="white"/>
<path fill-rule="evenodd" clip-rule="evenodd" d="M100.622 98C101.646 98.2562 102.671 98.5944 103.692 98.9352C104.819 100.124 104.819 100.124 108.094 102.414C108.197 102.33 108.3 102.245 108.505 102.245L112.192 106.49L113.727 107.51C113.521 108.442 113.421 109.377 113.316 110.395C114.237 110.564 116.286 110.82 116.697 111.583C118.437 111.499 118.951 111.073 120.588 111.414C120.762 110.405 122.734 112.288 122.123 112.093C122.534 112.178 123.658 112.431 123.658 112.944C123.861 112.944 124.169 112.944 124.477 113.028C124.477 113.876 123.145 113.707 122.326 113.707C122.326 113.779 120.899 114.186 120.688 113.366C119.869 113.282 119.153 113.197 118.434 113.11C117.204 112.093 114.44 112.6 112.802 111.668C112.802 111.327 112.905 110.986 113.007 110.733C111.675 110.564 110.859 109.882 109.524 109.544L108.091 107.507L107.067 106.488C105.735 104.279 102.867 99.9496 100 98.7609L100.622 98ZM120.286 108.017L117.521 106.319C117.83 105.555 116.805 104.11 116.497 103.262C117.008 102.33 117.11 101.989 118.237 102.924C118.851 102.924 119.467 102.924 120.183 102.924L121.924 102.583C123.561 102.583 124.28 100.716 124.688 99.5269C126.432 99.5269 126.432 99.5269 127.148 99.7805C127.35 100.8 127.148 101.817 128.169 102.668C128.169 102.837 128.169 103.093 128.169 103.347C127.045 103.603 126.531 105.383 125.918 106.231C125.918 106.319 126.021 106.401 126.121 106.488C126.241 106.475 126.358 106.462 126.479 106.449V107.395C126.326 107.374 126.173 107.354 126.018 107.336C125.507 108.186 124.791 108.524 123.664 108.778C123.459 108.522 123.253 108.353 123.15 108.184C122.74 108.184 122.332 108.184 122.026 108.184C121.739 109.611 120.533 107.766 120.286 108.017ZM128.58 106.321C129.296 104.879 129.399 103.944 130.728 102.839C131.65 102.924 132.569 103.009 133.49 103.096L134.62 102.501C134.925 102.501 135.336 102.501 135.744 102.501C135.744 102.586 135.847 102.757 135.95 102.927C135.415 103.147 135.142 103.539 134.999 104.005H133.47C133.475 103.985 133.487 103.964 133.493 103.944C132.369 103.944 131.345 103.944 130.318 104.028C130.221 104.197 130.118 104.453 130.012 104.707C130.218 104.963 130.42 105.217 130.626 105.471C131.445 105.217 132.266 104.961 133.188 104.792C133.194 104.771 133.194 104.753 133.2 104.733H134.878C134.855 105.109 134.878 105.499 134.902 105.855H133.308C133.296 105.781 133.285 105.709 133.285 105.64C132.979 105.724 132.774 105.809 132.569 105.893C132.569 106.062 132.569 106.231 132.671 106.488C132.774 106.488 132.9 106.488 133.044 106.488V107.507C132.9 107.507 132.774 107.507 132.671 107.507C132.774 107.845 132.877 108.186 133.085 108.524C133.188 108.524 133.285 108.524 133.493 108.524C133.493 108.44 133.493 108.353 133.493 108.266H134.617C134.514 108.709 134.467 109.18 134.45 109.67H133.499C133.493 109.467 133.493 109.257 133.493 109.034C132.88 109.203 132.266 109.372 131.653 109.544C131.239 108.95 130.937 108.355 130.626 107.761C130.42 108.611 130.317 109.459 130.218 110.392C129.804 110.307 129.496 110.307 129.191 110.307L128.58 106.321ZM134.503 111.637C134.556 112.416 134.623 113.185 134.623 113.876C134.726 113.876 134.928 113.876 135.134 113.961C135.953 113.282 137.077 113.282 138.309 113.282C137.388 114.386 135.542 114.555 134.52 116L133.288 115.831C133.288 115.068 133.288 114.301 133.288 113.625C133.088 113.625 132.88 113.625 132.674 113.625C132.674 113.71 132.674 113.794 132.674 113.963C131.653 113.963 130.629 113.963 129.601 113.963C129.601 113.71 129.601 113.538 129.704 113.369C132.698 113.192 133.355 113.013 133.487 111.64H134.503V111.637ZM135.888 106.49C138.433 106.49 140.983 106.49 143.53 106.49C143.02 105.727 143.02 105.727 143.02 105.048C143.833 104.879 144.654 104.707 145.576 104.623L147.217 106.49C148.96 106.406 149.676 106.149 151.006 105.642L155 107.51C154.897 109.634 154.795 111.755 154.795 113.963C154.181 113.625 153.568 113.369 153.051 113.113C152.335 113.113 151.619 113.197 151.006 113.282C150.903 113.028 150.903 113.028 151.722 112.009C151.722 111.161 151.211 110.735 150.903 109.972C149.573 109.634 148.244 109.293 147.011 109.039L142.609 107.51C142.506 107.763 142.403 108.104 142.403 108.442C141.585 108.017 140.461 108.017 139.433 108.017C139.128 107.761 138.82 107.507 138.512 107.338C138.512 108.102 138.104 108.189 137.08 108.189C136.88 107.933 136.672 107.679 136.569 107.425C136.34 107.425 136.111 107.436 135.894 107.456V106.49H135.888ZM130.42 115.49C129.807 115.234 129.193 114.98 128.683 114.811C128.683 114.642 128.683 114.471 128.683 114.386C129.807 114.045 130.626 114.13 130.831 115.319C130.626 115.319 130.523 115.406 130.42 115.49Z" fill="white"/>
<path fill-rule="evenodd" clip-rule="evenodd" d="M72.7708 157.838H73.7812C74.248 157.838 74.5889 157.712 74.81 157.469C75.0281 157.222 75.1356 156.835 75.1356 156.307C75.1356 155.821 75.025 155.468 74.8069 155.25C74.5858 155.032 74.2266 154.924 73.7321 154.924H72.7708V157.838ZM72 161.816V154.184H73.7689C74.5214 154.184 75.0711 154.355 75.4151 154.697C75.7621 155.039 75.934 155.578 75.934 156.316C75.934 157.071 75.7529 157.645 75.3935 158.029C75.0312 158.418 74.4999 158.612 73.7997 158.612H72.7708V161.818L72 161.816ZM77.2148 158.843H79.0513L78.1361 154.845L77.2148 158.843ZM75.7621 161.816L77.6416 154.184H78.6213L80.5285 161.816H79.7515L79.2294 159.614H77.0458L76.5452 161.816H75.7621ZM82.0241 157.683H82.9608C83.5013 157.683 83.8976 157.568 84.1494 157.339C84.4043 157.11 84.5302 156.752 84.5302 156.266C84.5302 155.799 84.4165 155.461 84.1954 155.25C83.9743 155.039 83.6119 154.933 83.1113 154.933H82.0272V157.683H82.0241ZM81.2748 161.816V154.184H83.2096C83.9221 154.184 84.4504 154.344 84.7974 154.668C85.1444 154.989 85.3164 155.482 85.3164 156.141C85.3164 156.653 85.212 157.062 85.0031 157.368C84.7943 157.674 84.4718 157.888 84.0357 158.009C84.4196 158.047 84.7052 158.182 84.8956 158.42C85.0891 158.659 85.2028 159.03 85.2458 159.527C85.2611 159.711 85.2795 159.965 85.2949 160.296C85.344 161.128 85.4638 161.636 85.6573 161.816H84.7022C84.607 161.64 84.5456 161.224 84.5179 160.572C84.5026 160.244 84.4902 159.985 84.4718 159.794C84.4319 159.268 84.306 158.908 84.1033 158.715C83.8975 158.522 83.532 158.427 83.0038 158.427H82.0241V161.816H81.2748ZM87.5768 161.816V154.969H85.8201V154.187H90.0183V154.969H88.366V161.816H87.5768ZM91.0655 158.843H92.8991L91.9838 154.845L91.0655 158.843ZM89.6129 161.816L91.4894 154.184H92.4691L94.3762 161.816H93.5962L93.0741 159.614H90.8905L90.3899 161.816H89.6129ZM95.1257 161.816V154.184H95.9149V161.816H95.1257ZM99.4252 161.816V154.184H100.187V157.856L102.678 154.184H103.568L101.425 157.265L103.725 161.813H102.788L100.909 158.009L100.184 159.055V161.816H99.4252ZM104.394 161.816V154.184H107.812V154.978H105.156V157.431H107.64V158.205H105.156V161.015H107.843V161.816H104.394ZM109.631 157.431H110.435C110.917 157.431 111.258 157.332 111.452 157.132C111.648 156.934 111.747 156.595 111.747 156.111C111.747 155.653 111.645 155.329 111.449 155.142C111.252 154.956 110.899 154.861 110.392 154.861H109.631V157.431ZM109.631 161.062H110.607C111.077 161.062 111.415 160.954 111.621 160.736C111.826 160.518 111.931 160.161 111.931 159.664C111.931 159.104 111.82 158.711 111.602 158.479C111.381 158.247 111.006 158.133 110.475 158.133H109.631V161.062ZM108.887 161.816V154.184H110.684C111.329 154.184 111.796 154.335 112.087 154.636C112.379 154.94 112.524 155.423 112.524 156.091C112.524 156.545 112.447 156.912 112.29 157.186C112.134 157.463 111.894 157.652 111.572 157.755C111.974 157.843 112.269 158.04 112.459 158.346C112.649 158.654 112.745 159.079 112.745 159.623C112.745 160.32 112.573 160.86 112.226 161.242C111.882 161.622 111.39 161.813 110.758 161.813H108.887V161.816ZM114.827 158.843H116.66L115.745 154.845L114.827 158.843ZM113.374 161.816L115.254 154.184H116.234L118.141 161.816H117.361L116.839 159.614H114.655L114.151 161.816H113.374ZM118.884 161.816V154.184H119.913L122.302 160.73L122.231 154.184H122.975V161.816H121.989L119.563 155.077L119.624 161.816H118.884ZM127.861 161.816L127.812 160.759C127.692 161.159 127.489 161.465 127.219 161.678C126.946 161.892 126.617 162 126.23 162C125.487 162 124.943 161.672 124.59 161.017C124.24 160.363 124.065 159.34 124.065 157.95C124.065 156.565 124.249 155.563 124.618 154.938C124.986 154.315 125.579 154 126.387 154C127.01 154 127.495 154.209 127.849 154.623C128.196 155.039 128.377 155.617 128.383 156.363H127.621C127.609 155.841 127.489 155.439 127.274 155.156C127.05 154.87 126.743 154.729 126.35 154.729C125.815 154.729 125.435 154.987 125.207 155.506C124.98 156.021 124.867 156.918 124.867 158.189C124.867 159.212 124.986 159.965 125.229 160.458C125.471 160.948 125.843 161.193 126.341 161.193C126.789 161.193 127.136 160.999 127.369 160.617C127.609 160.235 127.723 159.677 127.723 158.947C127.723 158.859 127.723 158.791 127.723 158.742C127.723 158.693 127.717 158.648 127.71 158.605H126.156V157.831H128.457V161.811H127.861V161.816ZM129.636 161.816V154.184H130.398V157.856L132.888 154.184H133.782L131.635 157.265L133.939 161.813H133.002L131.125 158.009L130.401 159.055V161.816H129.636ZM134.602 161.816V154.184H135.394V161.816H134.602ZM137.894 161.816V154.969H136.138V154.187H140.336V154.969H138.687V161.816H137.894ZM141.386 158.843H143.223L142.304 154.845L141.386 158.843ZM139.934 161.816L141.81 154.184H142.793L144.694 161.816H143.92L143.392 159.614H141.208L140.71 161.816H139.934ZM145.446 161.816V154.184H146.478L148.864 160.73L148.794 154.184H149.537V161.816H148.554L146.125 155.077L146.189 161.816H145.446ZM153.79 157.431H154.595C155.074 157.431 155.418 157.332 155.609 157.132C155.805 156.934 155.903 156.595 155.903 156.111C155.903 155.653 155.808 155.329 155.609 155.142C155.409 154.956 155.056 154.861 154.546 154.861H153.79V157.431ZM153.79 161.062H154.767C155.234 161.062 155.572 160.954 155.781 160.736C155.983 160.518 156.088 160.161 156.088 159.664C156.088 159.104 155.98 158.711 155.759 158.479C155.544 158.247 155.166 158.133 154.632 158.133H153.794V161.062H153.79ZM153.047 161.816V154.184H154.847C155.489 154.184 155.956 154.335 156.244 154.636C156.539 154.94 156.683 155.423 156.683 156.091C156.683 156.545 156.607 156.912 156.45 157.186C156.293 157.463 156.054 157.652 155.731 157.755C156.134 157.843 156.429 158.04 156.619 158.346C156.812 158.654 156.908 159.079 156.908 159.623C156.908 160.32 156.733 160.86 156.386 161.242C156.045 161.622 155.553 161.813 154.921 161.813H153.047V161.816ZM158.987 158.843H160.823L159.905 154.845L158.987 158.843ZM157.534 161.816L159.411 154.184H160.387L162.294 161.816H161.514L160.992 159.614H158.809L158.305 161.816H157.534ZM163.047 161.816V154.184H164.073L166.465 160.73L166.394 154.184H167.138V161.816H166.155L163.726 155.077L163.787 161.816H163.047ZM172.021 161.816L171.972 160.759C171.846 161.159 171.649 161.465 171.379 161.678C171.102 161.892 170.774 162 170.39 162C169.647 162 169.1 161.672 168.753 161.017C168.4 160.363 168.225 159.34 168.225 157.95C168.225 156.565 168.412 155.563 168.778 154.938C169.149 154.315 169.739 154 170.547 154C171.17 154 171.661 154.209 172.011 154.623C172.359 155.039 172.54 155.617 172.546 156.363H171.784C171.772 155.841 171.652 155.439 171.431 155.156C171.21 154.87 170.903 154.729 170.513 154.729C169.978 154.729 169.595 154.987 169.367 155.506C169.14 156.021 169.032 156.918 169.032 158.189C169.032 159.212 169.152 159.965 169.392 160.458C169.631 160.948 170.003 161.193 170.501 161.193C170.949 161.193 171.299 160.999 171.532 160.617C171.772 160.235 171.886 159.677 171.886 158.947C171.886 158.859 171.886 158.791 171.886 158.742C171.886 158.693 171.879 158.648 171.873 158.605H170.313V157.831H172.617V161.811H172.021V161.816ZM173.652 159.394H174.382V159.666C174.382 160.185 174.49 160.577 174.705 160.842C174.92 161.105 175.239 161.238 175.666 161.238C176.05 161.238 176.351 161.11 176.566 160.856C176.781 160.601 176.888 160.251 176.888 159.803C176.888 159.448 176.824 159.171 176.692 158.98C176.56 158.787 176.259 158.591 175.798 158.398C175.685 158.351 175.528 158.286 175.331 158.205C174.772 157.977 174.438 157.809 174.318 157.696C174.131 157.508 173.989 157.285 173.891 157.026C173.802 156.766 173.753 156.464 173.753 156.123C173.753 155.457 173.916 154.938 174.244 154.564C174.579 154.189 175.037 154.002 175.629 154.002C176.188 154.002 176.63 154.175 176.95 154.522C177.269 154.868 177.423 155.349 177.423 155.961C177.423 155.979 177.423 156.012 177.417 156.057C177.417 156.102 177.417 156.132 177.417 156.154H176.71V156.073C176.71 155.648 176.615 155.313 176.422 155.081C176.234 154.85 175.967 154.733 175.617 154.733C175.264 154.733 174.981 154.845 174.779 155.068C174.57 155.291 174.465 155.592 174.465 155.97C174.465 156.329 174.536 156.608 174.674 156.808C174.812 157.006 175.12 157.202 175.592 157.393C175.648 157.415 175.731 157.449 175.844 157.496C176.563 157.791 176.99 158.011 177.134 158.157C177.303 158.333 177.429 158.546 177.512 158.796C177.589 159.046 177.632 159.347 177.632 159.698C177.632 160.419 177.451 160.984 177.091 161.388C176.732 161.791 176.228 161.991 175.58 161.991C174.938 161.991 174.459 161.793 174.128 161.395C173.799 160.999 173.636 160.417 173.636 159.648C173.636 159.623 173.636 159.581 173.642 159.522C173.645 159.464 173.652 159.423 173.652 159.394ZM179.692 158.843H181.529L180.611 154.845L179.692 158.843ZM178.234 161.816L180.116 154.184H181.093L183 161.816H182.22L181.698 159.614H179.514L179.011 161.816H178.234Z" fill="white"/>
<path fill-rule="evenodd" clip-rule="evenodd" d="M58 53H198V172H58V53ZM59.2767 54.0641H196.72V170.936H59.2767V54.0641Z" fill="white"/>
<path fill-rule="evenodd" clip-rule="evenodd" d="M79.9632 187.581H83.1642C85.2428 187.581 86.6346 187.374 87.3395 186.952C88.0354 186.535 88.3894 185.799 88.3894 184.732C88.3894 183.657 88.0505 182.909 87.3758 182.495C86.7072 182.075 85.2973 181.866 83.1642 181.866H79.9632V187.581ZM70 202.997V175H82.7679C85.5847 175 87.8206 175.149 89.4725 175.448C91.1184 175.747 92.4981 176.222 93.6054 176.88C95.0365 177.757 96.1075 178.841 96.8125 180.132C97.5114 181.423 97.8624 182.961 97.8624 184.732C97.8624 187.863 96.8337 190.261 94.7854 191.928C92.7371 193.596 89.7812 194.427 85.9206 194.427H79.9602V202.997H70ZM113.166 202.997V175H123.044V184.281L131.97 175H143.533L132.46 185.324L144.97 202.997H133.092L125.507 191.784L123.044 194.082V203H113.166V202.997ZM167.81 196.456H172.424C173.949 196.456 175.041 196.258 175.68 195.847C176.33 195.444 176.648 194.777 176.648 193.854C176.648 192.934 176.324 192.273 175.662 191.882C175.005 191.485 173.901 191.293 172.34 191.293H167.807L167.81 196.456ZM167.81 186.181H171.916C173.293 186.181 174.267 186 174.824 185.629C175.386 185.261 175.668 184.643 175.668 183.769C175.668 182.843 175.365 182.211 174.763 181.868C174.155 181.526 172.76 181.354 170.567 181.354H167.807L167.81 186.181ZM158.141 202.997V175H170.863C173.604 175 175.595 175.063 176.845 175.187C178.097 175.319 179.168 175.523 180.064 175.817C181.64 176.351 182.841 177.182 183.679 178.309C184.511 179.439 184.932 180.808 184.932 182.418C184.932 183.68 184.623 184.79 183.997 185.73C183.371 186.678 182.43 187.452 181.177 188.061C182.82 188.593 184.036 189.392 184.823 190.456C185.604 191.517 186 192.903 186 194.593C186 196.255 185.622 197.696 184.847 198.92C184.091 200.142 182.974 201.082 181.513 201.744C180.527 202.195 179.41 202.523 178.146 202.71C176.887 202.897 174.796 202.997 171.877 202.997H158.141Z" fill="white"/>
</svg>
